<svg width="978" height="477" viewBox="0 0 978 477" fill="none" xmlns="http://www.w3.org/2000/svg">
<g clip-path="url(#clip0_1635_745)">
<path d="M976 477.5C976 350.859 924.691 229.405 833.361 139.857C742.031 50.3079 618.16 9.56112e-06 489 0C359.84 -9.56112e-06 235.969 50.3079 144.639 139.856C53.3088 229.405 2.00002 350.859 2 477.5L489 477.5H976Z" fill="url(#paint0_linear_1635_745)"/>
<path d="M978 489C978 359.309 926.481 234.93 834.775 143.225C743.07 51.5195 618.691 9.79139e-06 489 0C359.309 -9.79139e-06 234.93 51.5195 143.225 143.225C51.5195 234.93 1.95828e-05 359.309 0 489L6.58368 489C6.5837 361.055 57.4096 238.351 147.88 147.88C238.351 57.4095 361.055 6.58367 489 6.58368C616.945 6.58369 739.649 57.4096 830.12 147.88C920.59 238.351 971.416 361.055 971.416 489H978Z" fill="url(#paint1_linear_1635_745)"/>
</g>
<defs>
<linearGradient id="paint0_linear_1635_745" x1="489" y1="0" x2="489" y2="478" gradientUnits="userSpaceOnUse">
<stop stop-color="white"/>
<stop offset="1" stop-color="white"/>
</linearGradient>
<linearGradient id="paint1_linear_1635_745" x1="489" y1="0" x2="489" y2="505" gradientUnits="userSpaceOnUse">
<stop stop-color="#F90000"/>
<stop offset="0.90791" stop-color="#F4F4F4"/>
</linearGradient>
<clipPath id="clip0_1635_745">
<rect width="978" height="477" fill="white"/>
</clipPath>
</defs>
</svg>
