<svg width="88" height="67" viewBox="0 0 88 67" fill="none" xmlns="http://www.w3.org/2000/svg">
<path fill-rule="evenodd" clip-rule="evenodd" d="M83.1996 67.0039H4.6016C2.0586 67.0039 0 64.9414 0 62.4023V14.6833H87.805V62.3983C87.805 64.9452 85.7426 67.0039 83.1996 67.0039ZM29.3906 22.3479V28.7541C29.3906 29.0237 29.5 29.2659 29.6758 29.4416C29.8515 29.6174 30.0937 29.7268 30.3633 29.7268V29.7307H32.0391V29.7268C32.3086 29.7268 32.5508 29.6174 32.7266 29.4416C32.9023 29.2659 33.0117 29.0237 33.0117 28.7541V22.3479C33.0117 22.0784 32.9023 21.8362 32.7266 21.6604C32.5508 21.4847 32.3086 21.3753 32.0391 21.3753H30.3633C30.0937 21.3753 29.8515 21.4846 29.6758 21.6604C29.5 21.8362 29.3906 22.0784 29.3906 22.3479ZM27.0508 28.7581C27.0508 29.6722 27.4219 30.5003 28.0235 31.1019C28.625 31.7035 29.4532 32.0746 30.3673 32.0746V32.0707H32.0431V32.0746C32.9571 32.0746 33.7853 31.7035 34.3869 31.1019C34.9884 30.5004 35.3595 29.6722 35.3595 28.7581V26.7269H42.0665C42.715 26.7269 43.2384 26.2035 43.2384 25.555C43.2384 24.9066 42.715 24.3831 42.0665 24.3831H35.3595V22.3479C35.3595 21.4339 34.9884 20.6057 34.3869 20.0041C33.7853 19.4026 32.9572 19.0315 32.0431 19.0315H30.3673C29.4532 19.0315 28.6251 19.4026 28.0235 20.0041C27.4219 20.6057 27.0508 21.4338 27.0508 22.3479V24.3831H7.7498C7.10136 24.3831 6.5779 24.9066 6.5779 25.555C6.5779 26.2035 7.10134 26.7269 7.7498 26.7269H27.0508V28.7581ZM29.3906 51.7621V58.1683C29.3906 58.4379 29.5 58.6801 29.6758 58.8558C29.8515 59.0316 30.0937 59.141 30.3633 59.141H32.0391C32.3086 59.141 32.5508 59.0316 32.7266 58.8558C32.9023 58.6801 33.0117 58.4379 33.0117 58.1683V51.7621C33.0117 51.4926 32.9023 51.2504 32.7266 51.0746C32.5508 50.8989 32.3086 50.7895 32.0391 50.7895H30.3633C30.0937 50.7895 29.8515 50.8989 29.6758 51.0746C29.5 51.2504 29.3906 51.4965 29.3906 51.7621ZM27.0508 58.1723C27.0508 59.0864 27.4219 59.9145 28.0235 60.5161C28.625 61.1177 29.4532 61.4888 30.3673 61.4888H32.0431C32.9571 61.4888 33.7853 61.1177 34.3869 60.5161C34.9884 59.9146 35.3595 59.0864 35.3595 58.1723V56.1411H42.0665C42.715 56.1411 43.2384 55.6177 43.2384 54.9692C43.2384 54.3208 42.715 53.7973 42.0665 53.7973H35.3595V51.7621C35.3595 50.8481 34.9884 50.0199 34.3869 49.4183C33.7853 48.8168 32.9572 48.4457 32.0431 48.4457H30.3673C29.4532 48.4457 28.6251 48.8168 28.0235 49.4183C27.4219 50.0199 27.0508 50.848 27.0508 51.7621V53.7973H7.7498C7.10136 53.7973 6.5779 54.3208 6.5779 54.9692C6.5779 55.6177 7.10134 56.1411 7.7498 56.1411H27.0508V58.1723ZM20.418 43.4653V37.0591C20.418 36.7896 20.3086 36.5474 20.1328 36.3716C19.9571 36.1959 19.7149 36.0865 19.4453 36.0865V36.0826H17.7695V36.0865C17.5 36.0865 17.2578 36.1959 17.082 36.3716C16.9063 36.5474 16.7969 36.7896 16.7969 37.0591V43.4653C16.7969 43.7349 16.9063 43.9771 17.082 44.1528C17.2578 44.3286 17.5 44.438 17.7695 44.438V44.4419H19.4453V44.438C19.7149 44.438 19.9571 44.3286 20.1328 44.1528C20.3086 43.9771 20.418 43.7349 20.418 43.4653ZM22.7618 37.0551C22.7618 36.1411 22.3907 35.3129 21.7891 34.7113C21.1876 34.1098 20.3594 33.7387 19.4453 33.7387V33.7426H17.7695V33.7387C16.8555 33.7387 16.0273 34.1098 15.4257 34.7113C14.8241 35.3129 14.4531 36.141 14.4531 37.0551V39.0863L7.74998 39.0902C7.10154 39.0902 6.57808 39.6137 6.57808 40.2621C6.57808 40.9106 7.10152 41.434 7.74998 41.434H14.457V43.4692C14.457 44.3833 14.8281 45.2114 15.4296 45.813C16.0312 46.4146 16.8593 46.7857 17.7734 46.7857V46.7818H19.4492V46.7857C20.3633 46.7857 21.1914 46.4146 21.793 45.813C22.3946 45.2115 22.7657 44.3833 22.7657 43.4692V41.434H42.0667C42.7151 41.434 43.2386 40.9106 43.2386 40.2621C43.2386 39.6137 42.7152 39.0902 42.0667 39.0902H22.7657L22.7618 37.0551ZM65.3048 57.2001C66.4532 57.2001 67.4767 56.5087 67.9181 55.4345L69.215 52.2197C69.2306 52.1885 69.2502 52.165 69.2853 52.1494C69.3166 52.1338 69.3478 52.1338 69.383 52.1494L72.5744 53.4971C73.6369 53.9463 74.8517 53.7081 75.6642 52.8956L76.9923 51.5675C77.8048 50.755 78.0392 49.5402 77.5938 48.4777L76.2461 45.2824C76.2305 45.2511 76.2305 45.2121 76.2461 45.1808C76.2579 45.1496 76.2813 45.1261 76.3047 45.1144L79.5313 43.8097C80.5938 43.3722 81.2852 42.3488 81.2852 41.2003V39.3214C81.2852 38.1769 80.5782 37.13 79.5235 36.7081L76.3126 35.4034C76.2814 35.3917 76.2579 35.3682 76.2423 35.3331C76.2267 35.3018 76.2267 35.2706 76.2423 35.2393L77.59 32.0362C78.0392 30.9737 77.8009 29.7589 76.9884 28.9464L75.6525 27.6105C74.8361 26.8019 73.6253 26.5714 72.5667 27.0168L69.3753 28.3645C69.344 28.3801 69.3088 28.3801 69.2776 28.3645C69.2463 28.3528 69.2229 28.3293 69.2112 28.3059L67.9065 25.0793C67.469 24.0129 66.4456 23.3254 65.2971 23.3254H63.4182C62.2698 23.3254 61.2463 24.0168 60.8088 25.0832L59.5041 28.298C59.4924 28.3292 59.4689 28.3527 59.4338 28.3683C59.3869 28.3878 59.3556 28.3761 59.34 28.3683L56.1525 27.0167C55.0978 26.5714 53.8869 26.8058 53.0627 27.6183L51.7268 28.9542C50.9221 29.7745 50.6916 30.9854 51.1331 32.0401L52.4808 35.2471C52.4925 35.2744 52.4925 35.3057 52.4808 35.3369C52.4651 35.3682 52.4417 35.3916 52.4183 35.4033L49.2074 36.708C48.1527 37.1299 47.4418 38.1807 47.4418 39.3252V41.2041C47.4418 42.3525 48.1332 43.376 49.1996 43.8174L52.4105 45.1143C52.4417 45.126 52.4652 45.1495 52.4808 45.1846C52.4964 45.2198 52.4964 45.2549 52.4808 45.2862L51.1331 48.4815C50.6878 49.5362 50.9221 50.7471 51.7346 51.5713L53.0627 52.8994C53.8792 53.7158 55.09 53.9502 56.1525 53.5009L59.3556 52.1493C59.3674 52.1454 59.3986 52.1298 59.4416 52.1493C59.4728 52.165 59.4963 52.1884 59.508 52.2118L60.8127 55.4266C61.2346 56.4852 62.2854 57.1961 63.426 57.1961L65.3048 57.2001ZM59.3986 49.4462C59.758 49.4462 60.1213 49.5165 60.4689 49.6572C61.172 49.9462 61.7189 50.4892 62.008 51.1963L63.3205 54.4229C63.3361 54.4658 63.3791 54.4971 63.4299 54.4971H65.3088C65.3557 54.4971 65.4025 54.4658 65.4221 54.419L66.719 51.2042C67.0119 50.4932 67.5588 49.9464 68.2581 49.6612C68.9612 49.3721 69.7308 49.376 70.43 49.669L73.6253 51.0167C73.6721 51.0362 73.7229 51.0284 73.7581 50.9932L75.0862 49.6651C75.1213 49.63 75.133 49.5753 75.1096 49.5284L73.7619 46.3331C73.465 45.63 73.465 44.8604 73.7541 44.1573C74.0432 43.4542 74.5861 42.9112 75.2893 42.6221L78.5159 41.3174C78.555 41.3018 78.5901 41.2549 78.5901 41.208V39.3291C78.5901 39.2784 78.5589 39.2315 78.5237 39.2198C78.5198 39.2159 78.5159 39.2159 78.5159 39.2159L75.2971 37.9073C74.5901 37.6143 74.0432 37.0674 73.7541 36.3643C73.465 35.6611 73.4689 34.8916 73.7658 34.1963L75.1135 30.9971C75.133 30.9463 75.1252 30.8916 75.0901 30.8603L73.7581 29.5245C73.7268 29.4932 73.6721 29.4815 73.6253 29.501L70.4339 30.8487C69.7307 31.1456 68.9612 31.1495 68.2581 30.8565C67.555 30.5675 67.012 30.0245 66.7229 29.3213L65.4182 26.0908C65.4025 26.0518 65.3557 26.0166 65.3088 26.0166H63.4299C63.383 26.0166 63.3361 26.0479 63.3166 26.0947L62.0119 29.3135C61.7189 30.0245 61.1721 30.5713 60.4689 30.8565C59.7658 31.1456 58.9962 31.1417 58.3048 30.8409L55.1095 29.4932C55.0626 29.4737 55.004 29.4854 54.9689 29.5245L53.6486 30.8448C53.6173 30.876 53.6056 30.9346 53.6252 30.9815L54.9729 34.1846C55.2658 34.876 55.2697 35.6455 54.9846 36.3487C54.6955 37.0518 54.1525 37.5987 53.4494 37.8878L50.2228 39.2003C50.1798 39.2159 50.1486 39.2628 50.1486 39.3136V41.1925C50.1486 41.2393 50.1798 41.2862 50.2267 41.3057L53.4415 42.6065C54.1485 42.8995 54.6954 43.4464 54.9845 44.1456C55.2735 44.8488 55.2696 45.6183 54.9767 46.3214L53.629 49.5206C53.6094 49.5675 53.6212 49.6261 53.6602 49.6652L54.9805 50.9894C55.0157 51.0245 55.0665 51.0323 55.1172 51.0128L58.3164 49.6651C58.6563 49.5245 59.0236 49.4462 59.3986 49.4462ZM64.3634 46.8329C67.9845 46.8329 70.9298 43.8876 70.9298 40.2626C70.9298 36.6415 67.9845 33.6962 64.3634 33.6962C60.7462 33.6962 57.8048 36.6415 57.8048 40.2626C57.8048 43.8876 60.7462 46.8329 64.3634 46.8329ZM64.3634 36.3949C62.2345 36.3949 60.504 38.1293 60.504 40.2621C60.504 42.3988 62.2384 44.1332 64.3634 44.1332C66.4962 44.1332 68.2306 42.3949 68.2306 40.2621C68.2345 38.1293 66.4962 36.3949 64.3634 36.3949ZM7.2074 5.62894C6.55896 5.62894 6.0355 6.15238 6.0355 6.80084C6.0355 7.44928 6.55894 7.97274 7.2074 7.97274H12.1215C12.7699 7.97274 13.2934 7.4493 13.2934 6.80084C13.2934 6.1524 12.77 5.62894 12.1215 5.62894H7.2074ZM18.3054 5.6055C17.657 5.6055 17.1335 6.12894 17.1335 6.7774C17.1335 7.42584 17.6569 7.9493 18.3054 7.9493H23.2195C23.8679 7.9493 24.3914 7.42586 24.3914 6.7774C24.3914 6.12896 23.868 5.6055 23.2195 5.6055H18.3054ZM29.4034 5.57816C28.755 5.57816 28.2315 6.1016 28.2315 6.75006C28.2315 7.3985 28.7549 7.92196 29.4034 7.92196H34.3175C34.9659 7.92196 35.4894 7.39852 35.4894 6.75006C35.4894 6.10162 34.966 5.57816 34.3175 5.57816H29.4034ZM43.2044 5.543C42.556 5.543 42.0325 6.06644 42.0325 6.7149C42.0325 7.36334 42.5559 7.8868 43.2044 7.8868H80.5954C81.2438 7.8868 81.7673 7.36336 81.7673 6.7149C81.7673 6.06646 81.2439 5.543 80.5954 5.543H43.2044ZM0.00139999 12.3438V4.6016C0.00139999 2.0586 2.0639 0 4.603 0H83.201C85.744 0 87.8026 2.0625 87.8026 4.6016V12.3438H0.00139999Z" fill="#C00808"/>
</svg>
