<svg width="746" height="203" viewBox="0 0 746 203" fill="none" xmlns="http://www.w3.org/2000/svg">
<path d="M139.575 200.955H123.984V66.9197H139.575V200.955ZM206.334 104.661C214.484 104.661 221.453 106.425 227.24 109.952C233.146 113.479 237.634 118.476 240.705 124.943C243.894 131.292 245.488 138.758 245.488 147.341V156.688H180.468C180.704 167.387 183.421 175.559 188.618 181.202C193.933 186.728 201.315 189.491 210.764 189.491C216.787 189.491 222.102 188.962 226.709 187.904C231.433 186.728 236.276 185.082 241.236 182.966V196.546C236.394 198.662 231.61 200.191 226.886 201.131C222.161 202.189 216.551 202.719 210.055 202.719C201.078 202.719 193.106 200.896 186.137 197.251C179.287 193.607 173.913 188.198 170.015 181.026C166.235 173.736 164.346 164.859 164.346 154.395C164.346 144.049 166.058 135.172 169.483 127.765C173.027 120.357 177.928 114.655 184.188 110.658C190.566 106.66 197.948 104.661 206.334 104.661ZM206.157 117.359C198.716 117.359 192.811 119.77 188.44 124.59C184.188 129.293 181.649 135.877 180.822 144.343H229.189C229.189 138.934 228.362 134.231 226.709 130.234C225.055 126.236 222.516 123.12 219.09 120.887C215.783 118.535 211.472 117.359 206.157 117.359ZM287.109 200.955L251.144 106.425H267.798L287.995 162.155C288.94 164.742 289.944 167.623 291.007 170.797C292.07 173.972 293.015 177.028 293.841 179.968C294.668 182.79 295.259 185.2 295.613 187.199H296.322C296.794 185.2 297.444 182.731 298.271 179.791C299.215 176.852 300.219 173.795 301.282 170.621C302.463 167.446 303.467 164.624 304.294 162.155L324.491 106.425H341.145L305.003 200.955H287.109ZM392.136 104.838C403.711 104.838 412.275 107.365 417.826 112.421C423.377 117.477 426.153 125.531 426.153 136.583V200.955H414.814L411.802 187.551H411.093C408.377 190.961 405.542 193.842 402.589 196.193C399.755 198.427 396.447 200.073 392.668 201.131C389.006 202.189 384.518 202.719 379.203 202.719C373.534 202.719 368.396 201.719 363.79 199.72C359.301 197.722 355.758 194.665 353.159 190.55C350.561 186.317 349.262 181.026 349.262 174.677C349.262 165.271 352.982 158.04 360.423 152.984C367.864 147.811 379.321 144.989 394.794 144.519L410.916 143.99V138.346C410.916 130.469 409.204 125.002 405.778 121.945C402.353 118.888 397.511 117.359 391.251 117.359C386.29 117.359 381.565 118.124 377.077 119.652C372.589 121.063 368.396 122.709 364.498 124.59L359.715 112.95C363.849 110.716 368.75 108.835 374.42 107.307C380.089 105.661 385.995 104.838 392.136 104.838ZM396.743 155.277C384.932 155.747 376.723 157.629 372.116 160.921C367.628 164.213 365.384 168.857 365.384 174.853C365.384 180.144 366.979 184.024 370.168 186.493C373.475 188.962 377.668 190.197 382.746 190.197C390.778 190.197 397.451 188.022 402.766 183.671C408.082 179.204 410.739 172.384 410.739 163.213V154.748L396.743 155.277ZM487.197 190.021C489.559 190.021 491.981 189.844 494.461 189.491C496.941 189.021 498.949 188.551 500.485 188.081V199.897C498.831 200.72 496.469 201.366 493.398 201.837C490.327 202.425 487.374 202.719 484.54 202.719C479.579 202.719 474.972 201.896 470.72 200.25C466.587 198.486 463.219 195.488 460.62 191.255C458.022 187.022 456.723 181.085 456.723 173.442V118.417H443.258V111.01L456.9 104.838L463.101 84.7323H472.315V106.425H499.776V118.417H472.315V173.09C472.315 178.851 473.673 183.142 476.39 185.964C479.224 188.668 482.827 190.021 487.197 190.021ZM556.17 104.661C564.32 104.661 571.288 106.425 577.076 109.952C582.981 113.479 587.47 118.476 590.541 124.943C593.73 131.292 595.324 138.758 595.324 147.341V156.688H530.303C530.54 167.387 533.256 175.559 538.453 181.202C543.768 186.728 551.15 189.491 560.599 189.491C566.623 189.491 571.938 188.962 576.544 187.904C581.269 186.728 586.111 185.082 591.072 182.966V196.546C586.229 198.662 581.446 200.191 576.721 201.131C571.997 202.189 566.387 202.719 559.891 202.719C550.914 202.719 542.941 200.896 535.973 197.251C529.122 193.607 523.748 188.198 519.85 181.026C516.071 173.736 514.181 164.859 514.181 154.395C514.181 144.049 515.894 135.172 519.319 127.765C522.862 120.357 527.764 114.655 534.024 110.658C540.402 106.66 547.784 104.661 556.17 104.661ZM555.993 117.359C548.552 117.359 542.646 119.77 538.276 124.59C534.024 129.293 531.485 135.877 530.658 144.343H579.025C579.025 138.934 578.198 134.231 576.544 130.234C574.891 126.236 572.351 123.12 568.926 120.887C565.619 118.535 561.308 117.359 555.993 117.359ZM634.737 59.8652L674.954 111.363L660.072 130.41L604.441 59.8652H634.737ZM604.441 200.955L660.072 130.41L674.954 149.457L634.737 200.955H604.441ZM745.29 59.8652L690.014 130.41L674.954 111.363L715.349 59.8652H745.29ZM674.954 149.457L690.014 130.41L745.29 200.955H715.349L674.954 149.457Z" fill="#A60505"/>
<path d="M0 200.911L25.3759 177.55H101.694V203H0V200.911ZM0 51.0576H101.694V76.508H25.3759L0 51.0576ZM0 114.494H25.3759H101.694V139.754H25.3759H0V114.494Z" fill="#A60505"/>
<path d="M560.762 29.988C560.762 31.6868 560.336 33.1078 559.488 34.251C558.64 35.3942 557.431 36.26 555.863 36.848C554.296 37.436 552.434 37.73 550.279 37.73C548.451 37.73 546.865 37.583 545.527 37.289C544.219 36.995 543.063 36.5868 542.049 36.064V32.144C543.093 32.6668 544.351 33.1568 545.821 33.614C547.324 34.0388 548.843 34.251 550.377 34.251C552.566 34.251 554.149 33.908 555.128 33.222C556.108 32.5032 556.598 31.556 556.598 30.38C556.598 29.7268 556.417 29.1388 556.059 28.616C555.701 28.0932 555.046 27.5708 554.1 27.048C553.184 26.5252 551.861 25.9372 550.132 25.284C548.432 24.6308 546.982 23.9772 545.772 23.324C544.562 22.6708 543.632 21.8867 542.98 20.972C542.328 20.0573 542 18.8813 542 17.444C542 15.2227 542.897 13.5077 544.694 12.299C546.522 11.0903 548.907 10.486 551.846 10.486C553.448 10.486 554.933 10.6493 556.304 10.976C557.71 11.27 559.013 11.6947 560.223 12.25L558.753 15.68C558.034 15.3533 557.269 15.0757 556.451 14.847C555.667 14.5857 554.868 14.3897 554.051 14.259C553.233 14.0957 552.4 14.014 551.552 14.014C549.789 14.014 548.432 14.308 547.487 14.896C546.571 15.4513 546.115 16.219 546.115 17.199C546.115 17.9177 546.326 18.5383 546.752 19.061C547.178 19.551 547.878 20.041 548.858 20.531C549.872 20.9883 551.21 21.5437 552.875 22.197C554.541 22.8178 555.961 23.4548 557.137 24.108C558.313 24.7612 559.209 25.5618 559.831 26.509C560.453 27.4238 560.762 28.5832 560.762 29.988ZM577.052 10.535C580.251 10.535 582.618 11.2373 584.155 12.642C585.689 14.0467 586.457 16.2843 586.457 19.355V37.24H583.322L582.489 33.516H582.294C581.54 34.4632 580.756 35.2638 579.942 35.917C579.158 36.5378 578.243 36.995 577.199 37.289C576.185 37.583 574.946 37.73 573.476 37.73C571.908 37.73 570.488 37.4522 569.214 36.897C567.971 36.3418 566.991 35.4922 566.275 34.349C565.555 33.173 565.197 31.703 565.197 29.939C565.197 27.3258 566.226 25.3168 568.283 23.912C570.341 22.4748 573.506 21.6907 577.787 21.56L582.245 21.413V19.845C582.245 17.6563 581.77 16.1373 580.824 15.288C579.874 14.4387 578.537 14.014 576.807 14.014C575.435 14.014 574.128 14.2263 572.888 14.651C571.645 15.043 570.488 15.5003 569.41 16.023L568.087 12.789C569.229 12.1683 570.586 11.6457 572.153 11.221C573.721 10.7637 575.352 10.535 577.052 10.535ZM578.326 24.549C575.059 24.6798 572.79 25.2022 571.516 26.117C570.273 27.0318 569.655 28.322 569.655 29.988C569.655 31.458 570.096 32.536 570.978 33.222C571.889 33.908 573.05 34.251 574.456 34.251C576.675 34.251 578.522 33.6468 579.991 32.438C581.461 31.1968 582.196 29.302 582.196 26.754V24.402L578.326 24.549ZM607.058 10.486C610.291 10.486 612.888 11.613 614.847 13.867C616.837 16.121 617.835 19.5183 617.835 24.059C617.835 27.0318 617.376 29.547 616.464 31.605C615.582 33.6302 614.323 35.1658 612.692 36.211C611.09 37.2238 609.195 37.73 607.009 37.73C605.668 37.73 604.477 37.5502 603.433 37.191C602.386 36.8318 601.489 36.3742 600.739 35.819C600.019 35.231 599.397 34.594 598.877 33.908H598.584C598.648 34.4632 598.712 35.1658 598.779 36.015C598.844 36.8642 598.877 37.5992 598.877 38.22V49H594.567V10.976H598.094L598.682 14.553H598.877C599.397 13.8017 600.019 13.1157 600.739 12.495C601.489 11.8743 602.371 11.3843 603.384 11.025C604.428 10.6657 605.653 10.486 607.058 10.486ZM606.274 14.112C604.511 14.112 603.09 14.455 602.013 15.141C600.935 15.7943 600.151 16.7907 599.661 18.13C599.171 19.4693 598.908 21.168 598.877 23.226V24.059C598.877 26.215 599.104 28.0442 599.563 29.547C600.019 31.0498 600.788 32.193 601.866 32.977C602.974 33.761 604.477 34.153 606.372 34.153C607.97 34.153 609.278 33.712 610.291 32.83C611.335 31.948 612.104 30.7558 612.594 29.253C613.114 27.7178 613.378 25.97 613.378 24.01C613.378 21.0047 612.79 18.6037 611.614 16.807C610.468 15.0103 608.69 14.112 606.274 14.112ZM637.196 10.486C640.43 10.486 643.026 11.613 644.985 13.867C646.979 16.121 647.974 19.5183 647.974 24.059C647.974 27.0318 647.518 29.547 646.602 31.605C645.72 33.6302 644.462 35.1658 642.83 36.211C641.228 37.2238 639.337 37.73 637.147 37.73C635.81 37.73 634.615 37.5502 633.571 37.191C632.528 36.8318 631.627 36.3742 630.877 35.819C630.157 35.231 629.539 34.594 629.016 33.908H628.722C628.786 34.4632 628.854 35.1658 628.918 36.015C628.982 36.8642 629.016 37.5992 629.016 38.22V49H624.705V10.976H628.232L628.82 14.553H629.016C629.539 13.8017 630.157 13.1157 630.877 12.495C631.627 11.8743 632.509 11.3843 633.522 11.025C634.566 10.6657 635.791 10.486 637.196 10.486ZM636.413 14.112C634.649 14.112 633.229 14.455 632.151 15.141C631.073 15.7943 630.289 16.7907 629.799 18.13C629.31 19.4693 629.05 21.168 629.016 23.226V24.059C629.016 26.215 629.245 28.0442 629.701 29.547C630.157 31.0498 630.926 32.193 632.004 32.977C633.115 33.761 634.615 34.153 636.511 34.153C638.112 34.153 639.416 33.712 640.43 32.83C641.473 31.948 642.242 30.7558 642.732 29.253C643.256 27.7178 643.516 25.97 643.516 24.01C643.516 21.0047 642.928 18.6037 641.752 16.807C640.61 15.0103 638.828 14.112 636.413 14.112ZM659.154 10.927C659.154 11.5477 659.12 12.1847 659.056 12.838C659.022 13.4913 658.973 14.0793 658.909 14.602H659.203C659.757 13.6873 660.461 12.936 661.309 12.348C662.157 11.76 663.107 11.319 664.15 11.025C665.194 10.6983 666.272 10.535 667.384 10.535C669.505 10.535 671.269 10.878 672.674 11.564C674.11 12.2173 675.188 13.2463 675.907 14.651C676.627 16.0557 676.985 17.885 676.985 20.139V37.24H672.723V20.433C672.723 18.3097 672.248 16.7253 671.303 15.68C670.357 14.6347 668.868 14.112 666.845 14.112C664.885 14.112 663.352 14.4877 662.24 15.239C661.128 15.9577 660.33 17.0357 659.84 18.473C659.384 19.8777 659.154 21.609 659.154 23.667V37.24H654.843V0H659.154V10.927ZM689.435 10.976V37.24H685.124V10.976H689.435ZM687.329 1.127C687.981 1.127 688.553 1.35568 689.043 1.813C689.567 2.23768 689.827 2.92368 689.827 3.871C689.827 4.78568 689.567 5.47168 689.043 5.929C688.553 6.38632 687.981 6.615 687.329 6.615C686.609 6.615 686.006 6.38632 685.516 5.929C685.026 5.47168 684.781 4.78568 684.781 3.871C684.781 2.92368 685.026 2.23768 685.516 1.813C686.006 1.35568 686.609 1.127 687.329 1.127ZM710.002 10.486C710.492 10.486 711.012 10.5187 711.57 10.584C712.158 10.6167 712.662 10.682 713.088 10.78L712.549 14.749C712.124 14.651 711.649 14.5693 711.129 14.504C710.639 14.4387 710.164 14.406 709.708 14.406C708.695 14.406 707.73 14.6183 706.818 15.043C705.902 15.4677 705.085 16.072 704.369 16.856C703.649 17.6073 703.076 18.522 702.654 19.6C702.262 20.678 702.066 21.8867 702.066 23.226V37.24H697.755V10.976H701.282L701.772 15.778H701.968C702.522 14.798 703.193 13.916 703.977 13.132C704.761 12.3153 705.657 11.6783 706.671 11.221C707.681 10.731 708.793 10.486 710.002 10.486ZM727.174 10.486C729.427 10.486 731.353 10.976 732.954 11.956C734.586 12.936 735.826 14.3243 736.677 16.121C737.559 17.885 738 19.9593 738 22.344V24.941H720.022C720.086 27.9138 720.836 30.184 722.275 31.752C723.745 33.2872 725.783 34.055 728.399 34.055C730.064 34.055 731.534 33.908 732.807 33.614C734.111 33.2872 735.453 32.83 736.824 32.242V36.015C735.483 36.603 734.16 37.0278 732.856 37.289C731.549 37.583 729.996 37.73 728.203 37.73C725.719 37.73 723.515 37.2238 721.589 36.211C719.694 35.1982 718.209 33.6958 717.132 31.703C716.084 29.6778 715.564 27.2112 715.564 24.304C715.564 21.4293 716.035 18.963 716.985 16.905C717.964 14.847 719.317 13.2627 721.051 12.152C722.814 11.0413 724.853 10.486 727.174 10.486ZM727.125 14.014C725.067 14.014 723.432 14.6837 722.226 16.023C721.051 17.3297 720.346 19.159 720.12 21.511H733.493C733.493 20.0083 733.263 18.7017 732.807 17.591C732.348 16.4803 731.647 15.6147 730.701 14.994C729.785 14.3407 728.595 14.014 727.125 14.014Z" fill="#A60505"/>
</svg>
