<svg width="42" height="36" viewBox="0 0 42 36" fill="none" xmlns="http://www.w3.org/2000/svg">
<path d="M40.6094 2.60938C41.2344 3.85938 41 5.34375 40.1406 6.35938L27.1719 22.2188V32.5312C27.1719 34.1719 25.8438 35.5 24.2031 35.5C23.5781 35.5 22.9531 35.3438 22.4062 34.9531L16 30.0312C15.2188 29.4062 14.75 28.5469 14.75 27.5312V22.2188L1.78125 6.35938C0.921875 5.34375 0.6875 3.85938 1.3125 2.60938C1.85938 1.35938 3.1875 0.5 4.59375 0.5H37.3281C38.7344 0.5 40.0625 1.35938 40.6094 2.60938ZM24.0469 20.1875L37.0156 4.32812H4.90625L17.875 20.1875C18.2656 20.6562 18.5 21.2031 18.5 21.8281V27.1406L23.5 31.0469V21.75C23.5 21.125 23.6562 20.5781 24.0469 20.1875Z" fill="black"/>
</svg>
