<svg width="957" height="471" viewBox="0 0 957 471" fill="none" xmlns="http://www.w3.org/2000/svg">
<path d="M378.661 152.402C387.35 152.402 394.781 154.296 400.951 158.082C407.249 161.869 412.033 167.234 415.308 174.177C418.708 180.993 420.408 189.009 420.408 198.224V208.259H351.081C351.333 219.746 354.228 228.519 359.77 234.579C365.438 240.511 373.308 243.478 383.383 243.478C389.806 243.478 395.473 242.91 400.385 241.774C405.421 240.511 410.585 238.744 415.875 236.472V251.052C410.711 253.324 405.61 254.965 400.574 255.975C395.537 257.111 389.553 257.679 382.628 257.679C373.057 257.679 364.557 255.722 357.126 251.81C349.822 247.895 344.091 242.089 339.936 234.389C335.905 226.563 333.891 217.032 333.891 205.798C333.891 194.689 335.716 185.159 339.369 177.206C343.147 169.254 348.372 163.132 355.048 158.84C361.848 154.548 369.719 152.402 378.661 152.402ZM378.472 166.035C370.538 166.035 364.24 168.623 359.582 173.798C355.048 178.847 352.339 185.916 351.459 195.005H403.029C403.029 189.198 402.149 184.149 400.385 179.857C398.621 175.565 395.915 172.22 392.262 169.822C388.736 167.297 384.139 166.035 378.472 166.035ZM482.076 257.679C469.483 257.679 459.408 253.324 451.851 244.614C444.295 235.778 440.517 222.65 440.517 205.23C440.517 187.81 444.295 174.682 451.851 165.846C459.535 156.883 469.672 152.402 482.265 152.402C487.554 152.402 492.152 153.096 496.055 154.485C499.96 155.747 503.361 157.514 506.256 159.787C509.153 162.059 511.609 164.583 513.623 167.36H514.756C514.631 165.719 514.378 163.321 514.001 160.165C513.75 156.883 513.623 154.296 513.623 152.402V111.882H530.246V255.786H516.834L514.378 242.153H513.623C511.609 245.055 509.153 247.705 506.256 250.105C503.361 252.378 499.897 254.207 495.866 255.596C491.963 256.983 487.365 257.679 482.076 257.679ZM484.721 243.857C495.427 243.857 502.919 240.953 507.2 235.147C511.609 229.214 513.812 220.314 513.812 208.449V205.419C513.812 192.796 511.734 183.139 507.578 176.449C503.422 169.633 495.741 166.224 484.532 166.224C475.592 166.224 468.853 169.822 464.319 177.017C459.913 184.086 457.707 193.616 457.707 205.608C457.707 217.727 459.913 227.131 464.319 233.821C468.853 240.511 475.653 243.857 484.721 243.857Z" fill="#C40C0C"/>
<path d="M333.035 320.469C345.377 320.469 354.506 323.182 360.426 328.611C366.346 334.038 369.304 342.684 369.304 354.552V423.663H357.215L354.003 409.273H353.248C350.35 412.932 347.328 416.026 344.18 418.551C341.158 420.949 337.632 422.717 333.602 423.853C329.698 424.989 324.912 425.557 319.245 425.557C313.2 425.557 307.722 424.482 302.81 422.338C298.024 420.191 294.246 416.908 291.476 412.492C288.706 407.948 287.32 402.267 287.32 395.451C287.32 385.351 291.287 377.588 299.221 372.161C307.155 366.606 319.37 363.576 335.869 363.072L353.059 362.504V356.445C353.059 347.986 351.233 342.116 347.581 338.836C343.928 335.553 338.766 333.913 332.09 333.913C326.801 333.913 321.765 334.732 316.978 336.374C312.192 337.889 307.722 339.655 303.566 341.676L298.466 329.179C302.874 326.779 308.1 324.76 314.145 323.12C320.19 321.352 326.487 320.469 333.035 320.469ZM337.946 374.622C325.354 375.127 316.6 377.146 311.689 380.682C306.903 384.215 304.511 389.202 304.511 395.64C304.511 401.32 306.211 405.486 309.611 408.137C313.136 410.788 317.609 412.113 323.023 412.113C331.587 412.113 338.702 409.777 344.369 405.107C350.036 400.31 352.87 392.989 352.87 383.143V374.054L337.946 374.622ZM448.748 320.28C461.215 320.28 471.227 324.635 478.783 333.345C486.465 342.055 490.307 355.181 490.307 372.729C490.307 384.215 488.543 393.936 485.017 401.888C481.617 409.713 476.767 415.647 470.472 419.687C464.299 423.599 456.996 425.557 448.559 425.557C443.395 425.557 438.797 424.861 434.769 423.474C430.738 422.085 427.274 420.317 424.379 418.172C421.607 415.9 419.215 413.439 417.201 410.788H416.067C416.318 412.932 416.57 415.647 416.823 418.93C417.073 422.21 417.201 425.05 417.201 427.45V469.107H400.577V322.173H414.178L416.445 335.996H417.201C419.215 333.092 421.607 330.441 424.379 328.043C427.274 325.643 430.674 323.75 434.58 322.363C438.608 320.973 443.331 320.28 448.748 320.28ZM445.725 334.292C438.925 334.292 433.447 335.617 429.291 338.268C425.135 340.791 422.112 344.642 420.223 349.818C418.334 354.992 417.326 361.558 417.201 369.51V372.729C417.201 381.06 418.082 388.128 419.846 393.936C421.607 399.742 424.568 404.161 428.724 407.19C433.005 410.22 438.797 411.734 446.103 411.734C452.273 411.734 457.31 410.03 461.215 406.622C465.244 403.214 468.205 398.606 470.094 392.8C472.108 386.866 473.116 380.114 473.116 372.54C473.116 360.926 470.849 351.648 466.316 344.706C461.907 337.761 455.043 334.292 445.725 334.292ZM564.968 320.28C577.436 320.28 587.448 324.635 595.004 333.345C602.685 342.055 606.527 355.181 606.527 372.729C606.527 384.215 604.763 393.936 601.238 401.888C597.835 409.713 592.987 415.647 586.692 419.687C580.52 423.599 573.216 425.557 564.779 425.557C559.615 425.557 555.018 424.861 550.989 423.474C546.959 422.085 543.495 420.317 540.6 418.172C537.828 415.9 535.436 413.439 533.421 410.788H532.288C532.538 412.932 532.791 415.647 533.044 418.93C533.294 422.21 533.421 425.05 533.421 427.45V469.107H516.798V322.173H530.399L532.666 335.996H533.421C535.436 333.092 537.828 330.441 540.6 328.043C543.495 325.643 546.895 323.75 550.801 322.363C554.829 320.973 559.551 320.28 564.968 320.28ZM561.946 334.292C555.145 334.292 549.667 335.617 545.511 338.268C541.355 340.791 538.333 344.642 536.444 349.818C534.555 354.992 533.547 361.558 533.421 369.51V372.729C533.421 381.06 534.302 388.128 536.066 393.936C537.828 399.742 540.789 404.161 544.945 407.19C549.226 410.22 555.018 411.734 562.324 411.734C568.494 411.734 573.53 410.03 577.436 406.622C581.464 403.214 584.425 398.606 586.314 392.8C588.329 386.866 589.337 380.114 589.337 372.54C589.337 360.926 587.07 351.648 582.536 344.706C578.128 337.761 571.264 334.292 561.946 334.292ZM649.64 321.984C649.64 324.382 649.514 326.843 649.262 329.369C649.137 331.892 648.948 334.164 648.695 336.185H649.828C651.97 332.649 654.679 329.747 657.951 327.475C661.226 325.203 664.879 323.499 668.908 322.363C672.938 321.099 677.094 320.469 681.375 320.469C689.562 320.469 696.362 321.795 701.777 324.446C707.319 326.969 711.475 330.945 714.245 336.374C717.017 341.802 718.4 348.871 718.4 357.581V423.663H701.966V358.717C701.966 350.512 700.141 344.389 696.488 340.351C692.837 336.311 687.106 334.292 679.297 334.292C671.741 334.292 665.824 335.743 661.541 338.647C657.259 341.423 654.173 345.589 652.284 351.143C650.523 356.571 649.64 363.262 649.64 371.214V423.663H633.016V279.76H649.64V321.984ZM766.413 322.173V423.663H749.789V322.173H766.413ZM758.29 284.115C760.809 284.115 763.012 284.998 764.901 286.766C766.918 288.406 767.924 291.057 767.924 294.718C767.924 298.252 766.918 300.903 764.901 302.671C763.012 304.436 760.809 305.322 758.29 305.322C755.52 305.322 753.189 304.436 751.3 302.671C749.411 300.903 748.467 298.252 748.467 294.718C748.467 291.057 749.411 288.406 751.3 286.766C753.189 284.998 755.52 284.115 758.29 284.115ZM845.717 320.28C847.606 320.28 849.622 320.405 851.762 320.659C854.028 320.784 855.981 321.037 857.618 321.416L855.54 336.753C853.903 336.374 852.078 336.057 850.061 335.806C848.172 335.553 846.347 335.428 844.583 335.428C840.68 335.428 836.966 336.247 833.438 337.889C829.913 339.529 826.765 341.866 823.993 344.895C821.223 347.797 819.02 351.333 817.381 355.498C815.87 359.664 815.114 364.334 815.114 369.51V423.663H798.491V322.173H812.092L813.981 340.729H814.737C816.878 336.943 819.459 333.534 822.482 330.505C825.504 327.347 828.968 324.886 832.871 323.12C836.777 321.227 841.058 320.28 845.717 320.28ZM911.939 320.28C920.629 320.28 928.057 322.173 934.23 325.96C940.525 329.747 945.311 335.111 948.586 342.055C951.987 348.871 953.687 356.885 953.687 366.102V376.137H884.359C884.609 387.624 887.507 396.397 893.049 402.456C898.716 408.388 906.586 411.356 916.662 411.356C923.084 411.356 928.752 410.788 933.663 409.652C938.7 408.388 943.864 406.622 949.153 404.35V418.93C943.989 421.202 938.889 422.842 933.852 423.853C928.813 424.989 922.832 425.557 915.906 425.557C906.333 425.557 897.833 423.599 890.404 419.687C883.098 415.772 877.37 409.966 873.214 402.267C869.183 394.44 867.169 384.909 867.169 373.676C867.169 362.566 868.994 353.037 872.647 345.084C876.425 337.132 881.651 331.009 888.326 326.718C895.127 322.424 902.997 320.28 911.939 320.28ZM911.75 333.913C903.816 333.913 897.519 336.5 892.86 341.676C888.326 346.725 885.618 353.794 884.737 362.883H936.308C936.308 357.075 935.425 352.026 933.663 347.735C931.899 343.442 929.191 340.097 925.54 337.7C922.012 335.174 917.417 333.913 911.75 333.913Z" fill="#A60505"/>
<path d="M290.675 135.412C281.159 149.258 269.187 159.104 254.76 164.95L305.102 253.257H258.136L186.92 129.873L223.449 130.181C234.5 130.181 244.016 126.181 251.997 118.181C260.285 110.181 264.276 100.335 264.276 88.9507C264.276 77.8737 260.285 68.3356 251.997 60.3357C244.016 52.3355 234.5 48.3358 223.449 48.3358H141.488L136.884 43.7203L115.703 7.10547H223.449C245.858 7.10547 265.197 15.1054 281.159 31.105C297.121 47.4128 305.102 66.4892 305.102 88.9507C305.102 106.181 300.498 121.566 290.675 135.412Z" fill="#C40C0C"/>
<path d="M290.673 137.941L288.267 136.226L288.255 136.244L288.243 136.262L290.673 137.941ZM254.758 167.479L253.653 164.736L250.519 166.005L252.196 168.946L254.758 167.479ZM305.101 255.786V258.744H310.187L307.663 254.318L305.101 255.786ZM258.135 255.786L255.58 257.267L256.432 258.744H258.135V255.786ZM186.918 132.402L186.943 129.444L181.775 129.4L184.363 133.884L186.918 132.402ZM223.447 132.71L223.422 135.668H223.447V132.71ZM251.995 120.71L249.948 118.579L249.927 118.598L249.908 118.618L251.995 120.71ZM251.995 62.8645L249.908 64.9563L249.927 64.9762L249.948 64.9956L251.995 62.8645ZM141.487 50.8647L139.4 52.9565L140.264 53.8232H141.487V50.8647ZM136.882 46.2491L134.329 47.7334L134.522 48.0678L134.795 48.3412L136.882 46.2491ZM115.701 9.63433V6.67578H110.578L113.148 11.1184L115.701 9.63433ZM281.157 33.6339L283.264 31.562L283.245 31.5421L281.157 33.6339ZM288.243 136.262C279.027 149.67 267.502 159.124 253.653 164.736L255.863 170.221C270.869 164.141 283.287 153.903 293.103 139.619L288.243 136.262ZM252.196 168.946L302.539 257.253L307.663 254.318L257.32 166.011L252.196 168.946ZM305.101 252.827H258.135V258.744H305.101V252.827ZM260.69 254.304L189.473 130.92L184.363 133.884L255.58 257.267L260.69 254.304ZM186.893 135.36L223.422 135.668L223.472 129.751L186.943 129.444L186.893 135.36ZM223.447 135.668C235.3 135.668 245.561 131.343 254.083 122.802L249.908 118.618C242.467 126.076 233.697 129.751 223.447 129.751V135.668ZM254.043 122.841C262.93 114.263 267.226 103.639 267.226 91.4796H261.322C261.322 102.089 257.636 111.156 249.948 118.579L254.043 122.841ZM267.226 91.4796C267.226 79.5909 262.902 69.2855 254.043 60.7334L249.948 64.9956C257.665 72.4431 261.322 81.2144 261.322 91.4796H267.226ZM254.083 60.7725C245.561 52.2311 235.3 47.9061 223.447 47.9061V53.8232C233.697 53.8232 242.467 57.498 249.908 64.9563L254.083 60.7725ZM223.447 47.9061H141.487V53.8232H223.447V47.9061ZM143.574 48.7726L138.969 44.1573L134.795 48.3412L139.4 52.9565L143.574 48.7726ZM139.436 44.7651L118.255 8.15028L113.148 11.1184L134.329 47.7334L139.436 44.7651ZM115.701 12.5929H223.447V6.67578H115.701V12.5929ZM223.447 12.5929C245.072 12.5929 263.66 20.2807 279.07 35.7259L283.245 31.5421C266.73 14.9877 246.64 6.67578 223.447 6.67578V12.5929ZM279.051 35.7061C294.489 51.4796 302.149 69.8197 302.149 91.4796H308.052C308.052 68.2166 299.75 48.4034 283.264 31.562L279.051 35.7061ZM302.149 91.4796C302.149 108.137 297.712 122.913 288.267 136.226L293.079 139.655C303.28 125.275 308.052 109.283 308.052 91.4796H302.149Z" fill="#DE0303"/>
<path d="M74.8332 229.908L74.8647 229.941L74.8968 229.973C84.4611 239.492 95.6364 244.349 109.594 244.433L135.119 244.587C163.365 244.756 187.088 254.691 206.49 274C226.351 293.767 236.128 317.187 235.965 344.443C235.802 371.696 225.746 394.997 205.65 414.524C186.843 432.797 164.177 442.419 137.474 443.047L137.785 390.987C143.098 390.732 148.206 389.786 153.055 387.838C159.295 385.516 164.667 382.213 169.105 377.899C173.47 373.66 176.934 368.869 179.417 362.652C181.846 356.998 183.34 350.815 183.38 344.127C183.458 331.109 178.091 320.083 169.123 310.687L169.091 310.654L169.059 310.623C159.508 301.117 148.338 296.245 134.811 296.164L109.285 296.01C81.0458 295.841 57.328 285.911 37.9275 266.609C18.5081 246.847 8.72533 223.42 8.89106 195.717C9.05374 168.521 19.0646 145.677 38.6768 126.151C54.0313 113.296 63.9911 108.653 78.6659 103.481L104.237 149.332C99.7772 149.732 95.4714 150.664 91.3521 152.317C84.997 154.684 80.0956 158.037 75.2993 162.697C70.862 167.009 67.4424 172.247 65.0071 177.9C62.5024 183.714 61.5126 189.937 61.4761 196.033C61.3968 209.292 65.7151 220.355 74.8332 229.908Z" fill="#A60505" stroke="#C60000" stroke-width="11"/>
</svg>
