<svg width="634" height="463" viewBox="0 0 634 463" fill="none" xmlns="http://www.w3.org/2000/svg">
<path d="M534.748 454.693C509.65 454.693 487.202 449.559 467.406 439.292C447.964 429.024 432.587 413.091 421.275 391.494C410.316 369.896 404.837 342.28 404.837 308.644C404.837 273.592 410.67 245.09 422.335 223.139C434.001 201.187 449.731 185.077 469.527 174.81C489.677 164.542 512.478 159.408 537.93 159.408C552.423 159.408 566.386 161.001 579.819 164.188C593.252 167.02 604.211 170.561 612.695 174.81L598.378 213.579C589.894 210.393 579.996 207.383 568.684 204.551C557.372 201.718 546.767 200.302 536.869 200.302C517.78 200.302 502.049 204.374 489.677 212.517C477.304 220.66 468.113 232.698 462.104 248.631C456.094 264.564 453.09 284.391 453.09 308.113C453.09 330.773 456.094 350.069 462.104 366.002C468.113 381.934 477.128 393.972 489.147 402.116C501.166 410.259 516.189 414.331 534.218 414.331C549.772 414.331 563.382 412.737 575.047 409.551C587.066 406.364 598.025 402.47 607.923 397.867V439.292C598.378 444.249 587.773 447.966 576.108 450.445C564.796 453.277 551.009 454.693 534.748 454.693Z" fill="#A60505" fill-opacity="0.42"/>
<path d="M155.415 5.44702C218.801 5.44702 271.907 28.3247 316.448 72.9361C361.56 117.548 384.402 171.31 384.402 234.224C384.402 297.709 361.56 351.471 316.448 395.511C271.907 440.122 218.801 463 155.415 463C92.0301 463 38.9235 440.122 -5.61746 395.511C-50.1585 350.9 -73 297.709 -73 234.224C-73 171.31 -50.1585 117.548 -5.61746 72.9361C38.3525 28.3247 92.0301 5.44702 155.415 5.44702ZM155.415 82.0872C113.73 82.0872 77.7542 96.3857 47.4891 126.699C17.7951 156.44 3.51915 192.472 3.51915 234.224C3.51915 275.975 17.7951 312.579 47.4891 342.32C77.1831 372.061 113.73 386.36 155.415 386.36C197.101 386.36 233.077 372.061 262.771 342.32C293.036 312.008 307.312 275.975 307.312 234.224C307.312 192.472 292.465 156.44 262.771 126.699C233.077 96.9576 197.101 82.0872 155.415 82.0872Z" fill="#A60505" fill-opacity="0.42"/>
</svg>
