<svg width="266" height="50" viewBox="0 0 266 50" fill="none" xmlns="http://www.w3.org/2000/svg">
<path d="M52.1873 24.6801C52.6107 24.6801 53.0624 24.7084 53.5422 24.7649C54.0504 24.7932 54.4879 24.8497 54.8549 24.9345L54.3891 28.3682C54.0221 28.2834 53.6128 28.2127 53.1612 28.1562C52.7377 28.0997 52.3284 28.0714 51.9332 28.0714C51.0581 28.0714 50.2254 28.2551 49.435 28.6225C48.6446 28.9899 47.9389 29.5127 47.3179 30.191C46.6968 30.841 46.2028 31.6323 45.8358 32.5649C45.4971 33.4975 45.3277 34.5432 45.3277 35.7019V47.8258H41.6016V25.1041H44.6503L45.0737 29.2584H45.243C45.7229 28.4106 46.3016 27.6475 46.9791 26.9693C47.6566 26.2627 48.4329 25.7117 49.308 25.316C50.183 24.8921 51.1428 24.6801 52.1873 24.6801ZM62.819 23.4508C62.819 24.4117 62.7908 25.316 62.7343 26.1638C62.7061 26.9834 62.6638 27.6334 62.6073 28.1138H62.819C63.4683 27.153 64.3575 26.3475 65.4866 25.6975C66.6158 25.0475 68.0695 24.7225 69.8479 24.7225C72.6708 24.7225 74.9291 25.7117 76.6228 27.6899C78.3447 29.6399 79.2057 32.5649 79.2057 36.4649C79.2057 39.0649 78.8105 41.241 78.0201 42.9932C77.2579 44.7454 76.1711 46.0595 74.7597 46.9356C73.3483 47.8117 71.711 48.2497 69.8479 48.2497C68.0695 48.2497 66.6158 47.9247 65.4866 47.2747C64.3575 46.6247 63.4683 45.8475 62.819 44.9432H62.5226L61.7605 47.8258H59.0929V15.6084H62.819V23.4508ZM69.2128 27.8171C67.6038 27.8171 66.3335 28.128 65.4019 28.7497C64.4704 29.3432 63.807 30.2758 63.4118 31.5475C63.0166 32.791 62.819 34.3877 62.819 36.3377V36.5073C62.819 39.3051 63.2707 41.453 64.174 42.9508C65.1055 44.4204 66.8134 45.1551 69.2975 45.1551C71.3299 45.1551 72.8402 44.4062 73.8282 42.9084C74.8444 41.4106 75.3525 39.2486 75.3525 36.4225C75.3525 33.5682 74.8444 31.4204 73.8282 29.9791C72.8402 28.5377 71.3017 27.8171 69.2128 27.8171ZM88.8698 25.1041V47.8258H85.1436V25.1041H88.8698ZM87.049 16.5834C87.6136 16.5834 88.1076 16.7812 88.531 17.1769C88.9827 17.5443 89.2085 18.1377 89.2085 18.9573C89.2085 19.7486 88.9827 20.3421 88.531 20.7377C88.1076 21.1334 87.6136 21.3312 87.049 21.3312C86.428 21.3312 85.9058 21.1334 85.4823 20.7377C85.0589 20.3421 84.8472 19.7486 84.8472 18.9573C84.8472 18.1377 85.0589 17.5443 85.4823 17.1769C85.9058 16.7812 86.428 16.5834 87.049 16.5834ZM103.639 45.1975C104.204 45.1975 104.783 45.1551 105.376 45.0704C105.968 44.9573 106.448 44.8443 106.815 44.7312V47.5714C106.42 47.7693 105.855 47.9247 105.121 48.0377C104.388 48.179 103.682 48.2497 103.004 48.2497C101.819 48.2497 100.718 48.0519 99.7016 47.6562C98.7136 47.2323 97.9091 46.5117 97.2881 45.4943C96.667 44.4769 96.3565 43.0497 96.3565 41.2127V27.9867H93.1385V26.2062L96.3989 24.7225L97.8809 19.8899H100.083V25.1041H106.646V27.9867H100.083V41.128C100.083 42.5127 100.407 43.5443 101.057 44.2225C101.734 44.8725 102.595 45.1975 103.639 45.1975ZM120.464 48.2497C118.459 48.2497 116.667 47.8399 115.086 47.0204C113.533 46.2008 112.305 44.929 111.402 43.2051C110.527 41.4812 110.09 39.2769 110.09 36.5921C110.09 33.7943 110.555 31.5193 111.487 29.7671C112.418 28.0149 113.675 26.7291 115.255 25.9095C116.864 25.0899 118.685 24.6801 120.718 24.6801C121.875 24.6801 122.99 24.8073 124.063 25.0617C125.135 25.2877 126.01 25.5704 126.688 25.9095L125.545 29.0041C124.867 28.7497 124.077 28.5095 123.173 28.2834C122.27 28.0573 121.423 27.9443 120.633 27.9443C119.109 27.9443 117.852 28.2693 116.864 28.9193C115.876 29.5693 115.142 30.5301 114.663 31.8019C114.183 33.0736 113.943 34.6562 113.943 36.5497C113.943 38.3584 114.183 39.8986 114.663 41.1704C115.142 42.4421 115.862 43.403 116.822 44.053C117.782 44.703 118.982 45.028 120.421 45.028C121.663 45.028 122.75 44.9008 123.682 44.6464C124.641 44.3921 125.516 44.0812 126.307 43.7138V47.0204C125.545 47.416 124.698 47.7127 123.766 47.9106C122.863 48.1367 121.762 48.2497 120.464 48.2497ZM151.436 36.4225C151.436 38.316 151.182 39.9975 150.673 41.4671C150.194 42.9084 149.488 44.1377 148.556 45.1551C147.653 46.1725 146.538 46.9497 145.211 47.4867C143.913 47.9954 142.459 48.2497 140.85 48.2497C139.354 48.2497 137.971 47.9954 136.7 47.4867C135.43 46.9497 134.329 46.1725 133.398 45.1551C132.466 44.1377 131.732 42.9084 131.196 41.4671C130.688 39.9975 130.434 38.316 130.434 36.4225C130.434 33.9073 130.857 31.7877 131.704 30.0638C132.551 28.3117 133.765 26.9834 135.345 26.0791C136.926 25.1464 138.803 24.6801 140.977 24.6801C143.038 24.6801 144.844 25.1464 146.397 26.0791C147.978 26.9834 149.206 28.3117 150.081 30.0638C150.984 31.7877 151.436 33.9073 151.436 36.4225ZM134.287 36.4225C134.287 38.203 134.513 39.7573 134.964 41.0856C135.444 42.3856 136.178 43.3888 137.166 44.0954C138.154 44.8019 139.41 45.1551 140.935 45.1551C142.459 45.1551 143.715 44.8019 144.703 44.0954C145.691 43.3888 146.411 42.3856 146.863 41.0856C147.343 39.7573 147.582 38.203 147.582 36.4225C147.582 34.6138 147.343 33.0736 146.863 31.8019C146.383 30.5301 145.649 29.5551 144.661 28.8769C143.701 28.1704 142.445 27.8171 140.892 27.8171C138.578 27.8171 136.898 28.5801 135.854 30.1062C134.809 31.6323 134.287 33.7377 134.287 36.4225ZM168.266 24.6801C170.976 24.6801 173.023 25.3443 174.406 26.6725C175.789 27.9725 176.481 30.0921 176.481 33.0312V47.8258H172.797V33.2856C172.797 31.4486 172.388 30.078 171.569 29.1736C170.751 28.2693 169.466 27.8171 167.716 27.8171C165.204 27.8171 163.468 28.5236 162.508 29.9367C161.548 31.3497 161.068 33.3845 161.068 36.041V47.8258H157.342V25.1041H160.348L160.899 28.1986H161.11C161.619 27.4073 162.24 26.7573 162.974 26.2486C163.736 25.7117 164.568 25.316 165.472 25.0617C166.375 24.8073 167.307 24.6801 168.266 24.6801ZM194.441 24.6801C197.151 24.6801 199.197 25.3443 200.581 26.6725C201.964 27.9725 202.655 30.0921 202.655 33.0312V47.8258H198.971V33.2856C198.971 31.4486 198.562 30.078 197.744 29.1736C196.925 28.2693 195.641 27.8171 193.89 27.8171C191.378 27.8171 189.642 28.5236 188.682 29.9367C187.722 31.3497 187.243 33.3845 187.243 36.041V47.8258H183.516V25.1041H186.523L187.073 28.1986H187.285C187.793 27.4073 188.414 26.7573 189.148 26.2486C189.91 25.7117 190.743 25.316 191.646 25.0617C192.55 24.8073 193.481 24.6801 194.441 24.6801ZM218.456 24.6801C220.403 24.6801 222.069 25.1041 223.452 25.9519C224.864 26.7997 225.936 28.0008 226.67 29.5551C227.432 31.0812 227.813 32.8758 227.813 34.9388V37.1856H212.274C212.33 39.7573 212.979 41.7214 214.221 43.078C215.492 44.4062 217.256 45.0704 219.514 45.0704C220.954 45.0704 222.224 44.9432 223.325 44.6888C224.454 44.4062 225.612 44.0106 226.797 43.5019V46.766C225.64 47.2747 224.497 47.6421 223.367 47.8682C222.238 48.1225 220.897 48.2497 219.345 48.2497C217.2 48.2497 215.294 47.8117 213.629 46.9356C211.991 46.0595 210.707 44.7595 209.775 43.0356C208.872 41.2834 208.42 39.1497 208.42 36.6345C208.42 34.1475 208.83 32.0138 209.648 30.2334C210.495 28.453 211.667 27.0823 213.163 26.1214C214.687 25.1606 216.451 24.6801 218.456 24.6801ZM218.413 27.7323C216.635 27.7323 215.224 28.3117 214.179 29.4704C213.163 30.6008 212.556 32.1834 212.358 34.2182H223.918C223.918 32.9182 223.72 31.7877 223.325 30.8269C222.93 29.866 222.323 29.1171 221.504 28.5801C220.714 28.0149 219.684 27.7323 218.413 27.7323ZM242.695 48.2497C240.691 48.2497 238.899 47.8399 237.318 47.0204C235.765 46.2008 234.537 44.929 233.634 43.2051C232.759 41.4812 232.321 39.2769 232.321 36.5921C232.321 33.7943 232.787 31.5193 233.719 29.7671C234.65 28.0149 235.906 26.7291 237.487 25.9095C239.096 25.0899 240.917 24.6801 242.949 24.6801C244.107 24.6801 245.222 24.8073 246.295 25.0617C247.367 25.2877 248.242 25.5704 248.92 25.9095L247.777 29.0041C247.099 28.7497 246.309 28.5095 245.405 28.2834C244.502 28.0573 243.655 27.9443 242.865 27.9443C241.34 27.9443 240.084 28.2693 239.096 28.9193C238.108 29.5693 237.374 30.5301 236.894 31.8019C236.415 33.0736 236.175 34.6562 236.175 36.5497C236.175 38.3584 236.415 39.8986 236.894 41.1704C237.374 42.4421 238.094 43.403 239.054 44.053C240.014 44.703 241.213 45.028 242.653 45.028C243.895 45.028 244.982 44.9008 245.913 44.6464C246.873 44.3921 247.748 44.0812 248.539 43.7138V47.0204C247.777 47.416 246.93 47.7127 245.998 47.9106C245.095 48.1367 243.994 48.2497 242.695 48.2497ZM261.515 45.1975C262.08 45.1975 262.658 45.1551 263.251 45.0704C263.844 44.9573 264.324 44.8443 264.691 44.7312V47.5714C264.296 47.7693 263.731 47.9247 262.997 48.0377C262.263 48.179 261.557 48.2497 260.88 48.2497C259.694 48.2497 258.593 48.0519 257.577 47.6562C256.589 47.2323 255.785 46.5117 255.164 45.4943C254.543 44.4769 254.232 43.0497 254.232 41.2127V27.9867H251.014V26.2062L254.275 24.7225L255.757 19.8899H257.958V25.1041H264.521V27.9867H257.958V41.128C257.958 42.5127 258.283 43.5443 258.932 44.2225C259.61 44.8725 260.471 45.1975 261.515 45.1975Z" fill="#A60505"/>
<path d="M18.24 13.4785C23.3016 13.4785 27.5424 15.3046 31.0992 18.8655C34.7016 22.4263 36.5256 26.7176 36.5256 31.7394C36.5256 36.8068 34.7016 41.0981 31.0992 44.6133C27.5424 48.1742 23.3016 50.0003 18.24 50.0003C13.1784 50.0003 8.9376 48.1742 5.3808 44.6133C1.824 41.0524 0 36.8068 0 31.7394C0 26.7176 1.824 22.4263 5.3808 18.8655C8.892 15.3046 13.1784 13.4785 18.24 13.4785ZM18.24 19.5959C14.9112 19.5959 12.0384 20.7372 9.6216 23.1568C7.2504 25.5307 6.1104 28.4068 6.1104 31.7394C6.1104 35.072 7.2504 37.9937 9.6216 40.3676C11.9928 42.7416 14.9112 43.8829 18.24 43.8829C21.5688 43.8829 24.4416 42.7416 26.8128 40.3676C29.2296 37.9481 30.3696 35.072 30.3696 31.7394C30.3696 28.4068 29.184 25.5307 26.8128 23.1568C24.4416 20.7829 21.5688 19.5959 18.24 19.5959Z" fill="#A60505"/>
<path d="M213.5 13.1263C213.5 13.6162 213.377 14.026 213.133 14.3557C212.888 14.6854 212.54 14.935 212.088 15.1046C211.636 15.2742 211.1 15.359 210.479 15.359C209.952 15.359 209.495 15.3166 209.11 15.2318C208.733 15.147 208.4 15.0293 208.108 14.8785V13.7481C208.409 13.8988 208.771 14.0401 209.195 14.172C209.628 14.2945 210.065 14.3557 210.507 14.3557C211.138 14.3557 211.594 14.2568 211.876 14.059C212.159 13.8517 212.3 13.5785 212.3 13.2394C212.3 13.051 212.248 12.8815 212.145 12.7307C212.041 12.5799 211.852 12.4293 211.58 12.2785C211.316 12.1278 210.935 11.9582 210.437 11.7698C209.947 11.5815 209.529 11.393 209.181 11.2046C208.832 11.0162 208.564 10.7901 208.376 10.5263C208.188 10.2626 208.094 9.92344 208.094 9.50895C208.094 8.86837 208.352 8.37381 208.87 8.02525C209.397 7.6767 210.084 7.50243 210.931 7.50243C211.392 7.50243 211.82 7.54953 212.215 7.64373C212.62 7.72852 212.996 7.85098 213.344 8.01112L212.921 9.00025C212.713 8.90605 212.493 8.82598 212.257 8.76004C212.032 8.68468 211.801 8.62816 211.566 8.59047C211.33 8.54337 211.09 8.51982 210.846 8.51982C210.338 8.51982 209.947 8.6046 209.675 8.77417C209.411 8.93431 209.279 9.15569 209.279 9.4383C209.279 9.64555 209.34 9.82453 209.463 9.97525C209.586 10.1166 209.787 10.2579 210.07 10.3992C210.362 10.531 210.747 10.6912 211.227 10.8796C211.707 11.0586 212.116 11.2423 212.455 11.4307C212.794 11.6191 213.052 11.8499 213.231 12.1231C213.411 12.3869 213.5 12.7212 213.5 13.1263ZM218.193 7.51656C219.115 7.51656 219.797 7.71909 220.24 8.12417C220.682 8.52924 220.903 9.17453 220.903 10.06V15.2176H220L219.76 14.1437H219.703C219.486 14.4169 219.26 14.6478 219.026 14.8361C218.8 15.0151 218.536 15.147 218.235 15.2318C217.943 15.3166 217.586 15.359 217.163 15.359C216.711 15.359 216.302 15.2788 215.935 15.1187C215.576 14.9586 215.294 14.7136 215.088 14.384C214.881 14.0448 214.777 13.6209 214.777 13.1122C214.777 12.3586 215.074 11.7793 215.667 11.3742C216.259 10.9597 217.171 10.7336 218.405 10.6959L219.689 10.6535V10.2013C219.689 9.57018 219.552 9.13213 219.28 8.88721C219.006 8.64229 218.621 8.51982 218.122 8.51982C217.727 8.51982 217.351 8.58105 216.993 8.70352C216.635 8.81656 216.302 8.94844 215.991 9.09917L215.61 8.16656C215.939 7.98757 216.33 7.83685 216.782 7.71439C217.233 7.5825 217.703 7.51656 218.193 7.51656ZM218.56 11.5579C217.619 11.5956 216.965 11.7462 216.598 12.01C216.24 12.2738 216.062 12.6459 216.062 13.1263C216.062 13.5503 216.189 13.8611 216.443 14.059C216.706 14.2568 217.04 14.3557 217.445 14.3557C218.085 14.3557 218.616 14.1815 219.04 13.8329C219.463 13.4749 219.675 12.9285 219.675 12.1937V11.5155L218.56 11.5579ZM226.839 7.50243C227.77 7.50243 228.518 7.82743 229.083 8.47743C229.656 9.12743 229.944 10.1071 229.944 11.4166C229.944 12.2738 229.811 12.9992 229.549 13.5926C229.294 14.1767 228.932 14.6195 228.462 14.9209C228 15.213 227.454 15.359 226.824 15.359C226.438 15.359 226.095 15.3071 225.794 15.2035C225.492 15.0999 225.234 14.968 225.018 14.8079C224.811 14.6383 224.631 14.4546 224.482 14.2568H224.397C224.415 14.4169 224.434 14.6195 224.453 14.8644C224.472 15.1093 224.482 15.3212 224.482 15.5003V18.609H223.239V7.64373H224.256L224.425 8.67525H224.482C224.631 8.45859 224.811 8.26077 225.018 8.08178C225.234 7.90279 225.488 7.76148 225.78 7.65786C226.081 7.55424 226.434 7.50243 226.839 7.50243ZM226.613 8.54808C226.105 8.54808 225.695 8.64699 225.385 8.84482C225.074 9.03322 224.848 9.32055 224.707 9.70678C224.566 10.093 224.49 10.5829 224.482 11.1763V11.4166C224.482 12.0383 224.547 12.5658 224.679 12.9992C224.81 13.4325 225.032 13.7622 225.343 13.9883C225.662 14.2144 226.095 14.3274 226.641 14.3274C227.101 14.3274 227.478 14.2003 227.77 13.9459C228.071 13.6916 228.292 13.3478 228.434 12.9144C228.583 12.4717 228.659 11.9676 228.659 11.4024C228.659 10.5358 228.49 9.84337 228.151 9.32526C227.821 8.80714 227.309 8.54808 226.613 8.54808ZM235.522 7.50243C236.454 7.50243 237.202 7.82743 237.766 8.47743C238.341 9.12743 238.627 10.1071 238.627 11.4166C238.627 12.2738 238.496 12.9992 238.232 13.5926C237.978 14.1767 237.615 14.6195 237.145 14.9209C236.684 15.213 236.139 15.359 235.508 15.359C235.123 15.359 234.778 15.3071 234.478 15.2035C234.177 15.0999 233.917 14.968 233.701 14.8079C233.494 14.6383 233.316 14.4546 233.165 14.2568H233.08C233.099 14.4169 233.118 14.6195 233.137 14.8644C233.155 15.1093 233.165 15.3212 233.165 15.5003V18.609H231.923V7.64373H232.939L233.109 8.67525H233.165C233.316 8.45859 233.494 8.26077 233.701 8.08178C233.917 7.90279 234.172 7.76148 234.464 7.65786C234.764 7.55424 235.117 7.50243 235.522 7.50243ZM235.296 8.54808C234.788 8.54808 234.379 8.64699 234.068 8.84482C233.758 9.03322 233.532 9.32055 233.391 9.70678C233.25 10.093 233.175 10.5829 233.165 11.1763V11.4166C233.165 12.0383 233.231 12.5658 233.363 12.9992C233.494 13.4325 233.716 13.7622 234.026 13.9883C234.346 14.2144 234.778 14.3274 235.325 14.3274C235.786 14.3274 236.162 14.2003 236.454 13.9459C236.754 13.6916 236.976 13.3478 237.117 12.9144C237.268 12.4717 237.343 11.9676 237.343 11.4024C237.343 10.5358 237.174 9.84337 236.835 9.32526C236.506 8.80714 235.992 8.54808 235.296 8.54808ZM241.849 7.6296C241.849 7.80859 241.839 7.99229 241.82 8.18069C241.811 8.36909 241.797 8.53866 241.778 8.68939H241.863C242.022 8.42561 242.225 8.20895 242.47 8.03939C242.714 7.86982 242.988 7.74265 243.288 7.65786C243.589 7.56366 243.9 7.51656 244.22 7.51656C244.831 7.51656 245.339 7.61547 245.744 7.8133C246.158 8.0017 246.468 8.29844 246.676 8.70352C246.883 9.10859 246.986 9.63612 246.986 10.2861V15.2176H245.758V10.3709C245.758 9.75859 245.621 9.3017 245.349 9.00025C245.076 8.69881 244.648 8.54808 244.065 8.54808C243.5 8.54808 243.058 8.65642 242.738 8.87308C242.418 9.08033 242.187 9.3912 242.046 9.80569C241.915 10.2108 241.849 10.71 241.849 11.3035V15.2176H240.607V4.47852H241.849V7.6296ZM250.573 7.64373V15.2176H249.331V7.64373H250.573ZM249.966 4.80352C250.154 4.80352 250.319 4.86946 250.46 5.00134C250.611 5.12381 250.686 5.32164 250.686 5.59482C250.686 5.85859 250.611 6.05642 250.46 6.1883C250.319 6.32018 250.154 6.38612 249.966 6.38612C249.759 6.38612 249.585 6.32018 249.444 6.1883C249.303 6.05642 249.233 5.85859 249.233 5.59482C249.233 5.32164 249.303 5.12381 249.444 5.00134C249.585 4.86946 249.759 4.80352 249.966 4.80352ZM256.499 7.50243C256.64 7.50243 256.79 7.51185 256.951 7.53069C257.12 7.54011 257.266 7.55895 257.388 7.58721L257.233 8.73178C257.111 8.70352 256.974 8.67996 256.824 8.66112C256.683 8.64229 256.546 8.63286 256.415 8.63286C256.123 8.63286 255.845 8.69409 255.582 8.81656C255.318 8.93903 255.082 9.1133 254.876 9.33939C254.669 9.55605 254.504 9.81982 254.382 10.1307C254.269 10.4416 254.213 10.7901 254.213 11.1763V15.2176H252.971V7.64373H253.987L254.128 9.02852H254.185C254.344 8.74591 254.537 8.49156 254.763 8.26547C254.989 8.02996 255.247 7.84627 255.539 7.71439C255.83 7.57308 256.151 7.50243 256.499 7.50243ZM261.447 7.50243C262.096 7.50243 262.651 7.64373 263.112 7.92634C263.582 8.20895 263.94 8.60931 264.185 9.12743C264.439 9.63612 264.566 10.2343 264.566 10.922V11.6709H259.386C259.405 12.5282 259.621 13.1829 260.035 13.635C260.459 14.0778 261.046 14.2992 261.8 14.2992C262.28 14.2992 262.703 14.2568 263.07 14.172C263.446 14.0778 263.832 13.9459 264.227 13.7763V14.8644C263.841 15.034 263.46 15.1564 263.084 15.2318C262.707 15.3166 262.26 15.359 261.743 15.359C261.028 15.359 260.393 15.213 259.838 14.9209C259.292 14.6288 258.864 14.1956 258.553 13.6209C258.252 13.0369 258.102 12.3256 258.102 11.4872C258.102 10.6582 258.237 9.94699 258.511 9.35352C258.793 8.76004 259.183 8.30316 259.683 7.98286C260.191 7.66257 260.778 7.50243 261.447 7.50243ZM261.433 8.51982C260.84 8.51982 260.369 8.71294 260.021 9.09917C259.683 9.47598 259.48 10.0035 259.414 10.6818H263.268C263.268 10.2484 263.201 9.87163 263.07 9.55134C262.938 9.23105 262.736 8.98142 262.463 8.80243C262.199 8.61403 261.856 8.51982 261.433 8.51982Z" fill="#A60505"/>
</svg>
