<svg width="104" height="50" viewBox="0 0 104 50" fill="none" xmlns="http://www.w3.org/2000/svg">
<path d="M49.9838 25.7357C50.3894 25.7357 50.822 25.7628 51.2817 25.817C51.7684 25.8441 52.1875 25.8982 52.539 25.9795L52.0929 29.2701C51.7414 29.1889 51.3493 29.1212 50.9166 29.067C50.511 29.0128 50.119 28.9857 49.7404 28.9857C48.9022 28.9857 48.1045 29.1618 47.3474 29.5139C46.5902 29.8659 45.9142 30.367 45.3194 31.017C44.7245 31.6399 44.2513 32.3982 43.8998 33.292C43.5753 34.1857 43.413 35.1878 43.413 36.2982V47.917H39.8438V26.142H42.7641L43.1697 30.1232H43.3319C43.7916 29.3107 44.3459 28.5795 44.9949 27.9295C45.6438 27.2524 46.3874 26.7243 47.2257 26.3451C48.0639 25.9389 48.9833 25.7357 49.9838 25.7357ZM60.1678 24.5576C60.1678 25.4785 60.1408 26.3451 60.0867 27.1576C60.0597 27.943 60.0191 28.5659 59.965 29.0264H60.1678C60.7898 28.1055 61.6415 27.3337 62.7231 26.7107C63.8047 26.0878 65.1973 25.7764 66.9008 25.7764C69.6048 25.7764 71.768 26.7243 73.3904 28.6201C75.0399 30.4889 75.8646 33.292 75.8646 37.0295C75.8646 39.5212 75.486 41.6066 74.7289 43.2857C73.9988 44.9649 72.9578 46.2243 71.6058 47.0639C70.2538 47.9034 68.6854 48.3232 66.9008 48.3232C65.1973 48.3232 63.8047 48.0118 62.7231 47.3889C61.6415 46.7659 60.7898 46.0212 60.1678 45.1545H59.8839L59.1538 47.917H56.5986V17.042H60.1678V24.5576ZM66.2924 28.742C64.7511 28.742 63.5343 29.0399 62.642 29.6357C61.7497 30.2045 61.1142 31.0982 60.7357 32.317C60.3571 33.5087 60.1678 35.0389 60.1678 36.9076V37.0701C60.1678 39.7514 60.6005 41.8097 61.4658 43.2451C62.3581 44.6534 63.994 45.3576 66.3735 45.3576C68.3204 45.3576 69.767 44.6399 70.7134 43.2045C71.6869 41.7691 72.1736 39.6972 72.1736 36.9889C72.1736 34.2534 71.6869 32.1951 70.7134 30.8139C69.767 29.4326 68.2934 28.742 66.2924 28.742ZM85.1217 26.142V47.917H81.5524V26.142H85.1217ZM83.3776 17.9764C83.9184 17.9764 84.3916 18.1659 84.7972 18.5451C85.2299 18.8972 85.4462 19.4659 85.4462 20.2514C85.4462 21.0097 85.2299 21.5785 84.7972 21.9576C84.3916 22.3368 83.9184 22.5264 83.3776 22.5264C82.7828 22.5264 82.2825 22.3368 81.8769 21.9576C81.4713 21.5785 81.2685 21.0097 81.2685 20.2514C81.2685 19.4659 81.4713 18.8972 81.8769 18.5451C82.2825 18.1659 82.7828 17.9764 83.3776 17.9764ZM99.2696 45.3982C99.8104 45.3982 100.365 45.3576 100.933 45.2764C101.5 45.168 101.96 45.0597 102.312 44.9514V47.6732C101.933 47.8628 101.392 48.0118 100.689 48.1201C99.9861 48.2555 99.3101 48.3232 98.6612 48.3232C97.5255 48.3232 96.4709 48.1337 95.4975 47.7545C94.5511 47.3482 93.7804 46.6576 93.1856 45.6826C92.5907 44.7076 92.2932 43.3399 92.2932 41.5795V28.9045H89.2107V27.1982L92.3338 25.7764L93.7534 21.1451H95.8625V26.142H102.149V28.9045H95.8625V41.4982C95.8625 42.8253 96.1735 43.8139 96.7954 44.4639C97.4444 45.0868 98.2691 45.3982 99.2696 45.3982Z" fill="#A60505"/>
<path d="M17.472 15C22.3205 15 26.3827 16.75 29.7898 20.1625C33.2405 23.575 34.9877 27.6875 34.9877 32.5C34.9877 37.3563 33.2405 41.4688 29.7898 44.8375C26.3827 48.25 22.3205 50 17.472 50C12.6235 50 8.56128 48.25 5.15424 44.8375C1.7472 41.425 0 37.3563 0 32.5C0 27.6875 1.7472 23.575 5.15424 20.1625C8.5176 16.75 12.6235 15 17.472 15ZM17.472 20.8625C14.2834 20.8625 11.5315 21.9563 9.21648 24.275C6.94512 26.55 5.85312 29.3063 5.85312 32.5C5.85312 35.6938 6.94512 38.4938 9.21648 40.7688C11.4878 43.0438 14.2834 44.1375 17.472 44.1375C20.6606 44.1375 23.4125 43.0438 25.6838 40.7688C27.9989 38.45 29.0909 35.6938 29.0909 32.5C29.0909 29.3063 27.9552 26.55 25.6838 24.275C23.4125 22 20.6606 20.8625 17.472 20.8625Z" fill="#A60505"/>
<path d="M53.7094 12.5795C53.7094 13.049 53.5922 13.4417 53.3579 13.7576C53.1236 14.0736 52.7901 14.3128 52.3574 14.4753C51.9248 14.6378 51.411 14.7191 50.8161 14.7191C50.3114 14.7191 49.8742 14.6785 49.5047 14.5972C49.1441 14.516 48.8242 14.4031 48.5448 14.2587V13.1753C48.8332 13.3198 49.1802 13.4552 49.5858 13.5816C50.0005 13.699 50.4196 13.7576 50.8432 13.7576C51.4471 13.7576 51.8842 13.6628 52.1546 13.4732C52.425 13.2746 52.5602 13.0128 52.5602 12.6878C52.5602 12.5073 52.5106 12.3448 52.4115 12.2003C52.3124 12.0558 52.132 11.9115 51.8707 11.767C51.6183 11.6225 51.2532 11.46 50.7756 11.2795C50.3068 11.099 49.9058 10.9183 49.5723 10.7378C49.2388 10.5573 48.9819 10.3406 48.8017 10.0878C48.6214 9.83504 48.5312 9.51004 48.5312 9.11283C48.5312 8.49894 48.7791 8.02498 49.2749 7.69095C49.7796 7.35692 50.4376 7.18991 51.2488 7.18991C51.6905 7.18991 52.1005 7.23504 52.4791 7.32533C52.8667 7.40658 53.2272 7.52394 53.5607 7.67741L53.1551 8.62533C52.9568 8.53504 52.745 8.45832 52.5197 8.39512C52.3033 8.3229 52.0825 8.26873 51.8572 8.23262C51.6318 8.18748 51.402 8.16491 51.1677 8.16491C50.6809 8.16491 50.3068 8.24616 50.0455 8.40866C49.7931 8.56213 49.6669 8.77428 49.6669 9.04512C49.6669 9.24373 49.7255 9.41525 49.8427 9.5597C49.9599 9.69512 50.1537 9.83053 50.4241 9.96595C50.7035 10.0923 51.073 10.2458 51.5327 10.4264C51.9924 10.5979 52.3845 10.774 52.7089 10.9545C53.0334 11.135 53.2812 11.3563 53.4525 11.618C53.6238 11.8708 53.7094 12.1913 53.7094 12.5795ZM58.205 7.20345C59.0883 7.20345 59.7418 7.39754 60.1654 7.78574C60.589 8.17394 60.8009 8.79234 60.8009 9.64095V14.5837H59.9356L59.7057 13.5545H59.6517C59.4444 13.8163 59.2281 14.0375 59.0027 14.218C58.7864 14.3896 58.534 14.516 58.2456 14.5972C57.9661 14.6785 57.6237 14.7191 57.2181 14.7191C56.7854 14.7191 56.3933 14.6423 56.0418 14.4889C55.6993 14.3354 55.4289 14.1006 55.2306 13.7847C55.0323 13.4597 54.9332 13.0535 54.9332 12.566C54.9332 11.8438 55.2171 11.2886 55.7849 10.9003C56.3528 10.5031 57.2271 10.2864 58.4078 10.2503L59.6381 10.2097V9.77637C59.6381 9.1715 59.5074 8.75171 59.2461 8.51699C58.9847 8.28227 58.6151 8.16491 58.1374 8.16491C57.7589 8.16491 57.3983 8.22359 57.0558 8.34095C56.7133 8.44928 56.3933 8.57567 56.0959 8.72012L55.7309 7.82637C56.0463 7.65484 56.4204 7.5104 56.853 7.39303C57.2857 7.26665 57.7363 7.20345 58.205 7.20345ZM58.5565 11.0764C57.6552 11.1125 57.0288 11.2569 56.6773 11.5097C56.3348 11.7625 56.1635 12.1191 56.1635 12.5795C56.1635 12.9857 56.2852 13.2837 56.5285 13.4732C56.7809 13.6628 57.1009 13.7576 57.4885 13.7576C58.1013 13.7576 58.6106 13.5906 59.0162 13.2566C59.4218 12.9136 59.6246 12.3899 59.6246 11.6857V11.0357L58.5565 11.0764ZM66.4866 7.18991C67.379 7.18991 68.0955 7.50137 68.6363 8.12428C69.1862 8.7472 69.461 9.68609 69.461 10.941C69.461 11.7625 69.3349 12.4576 69.0825 13.0264C68.8391 13.5861 68.4921 14.0104 68.0414 14.2993C67.5998 14.5792 67.077 14.7191 66.4731 14.7191C66.1036 14.7191 65.7746 14.6694 65.4862 14.5701C65.1978 14.4708 64.9498 14.3444 64.7426 14.191C64.5442 14.0285 64.3731 13.8524 64.2288 13.6628H64.1477C64.1657 13.8163 64.1838 14.0104 64.2018 14.2451C64.2198 14.4798 64.2288 14.6829 64.2288 14.8545V17.8337H63.039V7.32533H64.0125L64.1747 8.31387H64.2288C64.3731 8.10623 64.5442 7.91665 64.7426 7.74512C64.9498 7.57359 65.1932 7.43817 65.4726 7.33887C65.761 7.23957 66.099 7.18991 66.4866 7.18991ZM66.2703 8.19199C65.7836 8.19199 65.3915 8.28678 65.0941 8.47637C64.7966 8.65692 64.5803 8.93227 64.4451 9.30241C64.3099 9.67255 64.2379 10.142 64.2288 10.7107V10.941C64.2288 11.5368 64.2919 12.0423 64.4181 12.4576C64.5442 12.8729 64.7561 13.1889 65.0535 13.4055C65.36 13.6222 65.7746 13.7305 66.2974 13.7305C66.7391 13.7305 67.0995 13.6087 67.379 13.3649C67.6674 13.1212 67.8792 12.7917 68.0144 12.3764C68.1586 11.9521 68.2307 11.4691 68.2307 10.9274C68.2307 10.0969 68.0685 9.43332 67.744 8.93678C67.4286 8.44025 66.9373 8.19199 66.2703 8.19199ZM74.8047 7.18991C75.697 7.18991 76.4135 7.50137 76.9543 8.12428C77.5041 8.7472 77.7791 9.68609 77.7791 10.941C77.7791 11.7625 77.6528 12.4576 77.4005 13.0264C77.1571 13.5861 76.8101 14.0104 76.3595 14.2993C75.9178 14.5792 75.395 14.7191 74.7911 14.7191C74.4215 14.7191 74.0926 14.6694 73.8042 14.5701C73.5157 14.4708 73.2679 14.3444 73.0606 14.191C72.8623 14.0285 72.691 13.8524 72.5468 13.6628H72.4657C72.4837 13.8163 72.5017 14.0104 72.5198 14.2451C72.5378 14.4798 72.5468 14.6829 72.5468 14.8545V17.8337H71.3571V7.32533H72.3305L72.4928 8.31387H72.5468C72.691 8.10623 72.8623 7.91665 73.0606 7.74512C73.2679 7.57359 73.5112 7.43817 73.7907 7.33887C74.0791 7.23957 74.4171 7.18991 74.8047 7.18991ZM74.5884 8.19199C74.1016 8.19199 73.7095 8.28678 73.4121 8.47637C73.1147 8.65692 72.8983 8.93227 72.7631 9.30241C72.6279 9.67255 72.5558 10.142 72.5468 10.7107V10.941C72.5468 11.5368 72.6098 12.0423 72.7361 12.4576C72.8623 12.8729 73.0741 13.1889 73.3715 13.4055C73.6779 13.6222 74.0926 13.7305 74.6154 13.7305C75.057 13.7305 75.4175 13.6087 75.697 13.3649C75.9854 13.1212 76.1972 12.7917 76.3324 12.3764C76.4766 11.9521 76.5487 11.4691 76.5487 10.9274C76.5487 10.0969 76.3865 9.43332 76.062 8.93678C75.7465 8.44025 75.2553 8.19199 74.5884 8.19199ZM80.8647 7.31178C80.8647 7.48332 80.8557 7.65936 80.8377 7.83991C80.8287 8.02046 80.8151 8.18296 80.7971 8.32741H80.8783C81.0315 8.07463 81.2253 7.86699 81.4596 7.70449C81.6939 7.54199 81.9554 7.42012 82.2438 7.33887C82.5322 7.24859 82.8296 7.20345 83.1361 7.20345C83.7219 7.20345 84.2087 7.29824 84.5963 7.48783C84.9928 7.66838 85.2903 7.95275 85.4886 8.34095C85.6869 8.72915 85.786 9.2347 85.786 9.85762V14.5837H84.6098V9.93887C84.6098 9.35207 84.4791 8.91421 84.2177 8.62533C83.9564 8.33644 83.5462 8.19199 82.9874 8.19199C82.4466 8.19199 82.023 8.29582 81.7165 8.50345C81.41 8.70207 81.1892 8.99998 81.054 9.3972C80.9279 9.7854 80.8647 10.2639 80.8647 10.8326V14.5837H79.675V4.29199H80.8647V7.31178ZM89.2223 7.32533V14.5837H88.0325V7.32533H89.2223ZM88.6409 4.60345C88.8213 4.60345 88.9789 4.66665 89.1141 4.79303C89.2584 4.9104 89.3304 5.09998 89.3304 5.36178C89.3304 5.61457 89.2584 5.80415 89.1141 5.93053C88.9789 6.05692 88.8213 6.12012 88.6409 6.12012C88.4427 6.12012 88.2759 6.05692 88.1407 5.93053C88.0055 5.80415 87.9379 5.61457 87.9379 5.36178C87.9379 5.09998 88.0055 4.9104 88.1407 4.79303C88.2759 4.66665 88.4427 4.60345 88.6409 4.60345ZM94.8982 7.18991C95.0334 7.18991 95.1776 7.19894 95.3308 7.21699C95.4931 7.22602 95.6327 7.24408 95.75 7.27116L95.6012 8.36803C95.484 8.34095 95.3534 8.31838 95.2092 8.30033C95.074 8.28227 94.9432 8.27324 94.8171 8.27324C94.5376 8.27324 94.2718 8.33192 94.0194 8.44928C93.767 8.56665 93.5417 8.73366 93.3434 8.95033C93.1451 9.15796 92.9874 9.41074 92.8702 9.70866C92.762 10.0066 92.708 10.3406 92.708 10.7107V14.5837H91.5182V7.32533H92.4916L92.6268 8.65241H92.6809C92.8341 8.38158 93.0189 8.13783 93.2352 7.92116C93.4516 7.69546 93.6994 7.51942 93.9788 7.39303C94.2583 7.25762 94.5647 7.18991 94.8982 7.18991ZM99.6377 7.18991C100.26 7.18991 100.791 7.32533 101.233 7.59616C101.684 7.86699 102.026 8.25067 102.261 8.7472C102.504 9.2347 102.626 9.80796 102.626 10.467V11.1847H97.6638C97.6818 12.0063 97.8891 12.6337 98.2857 13.067C98.6913 13.4913 99.2546 13.7035 99.9757 13.7035C100.435 13.7035 100.841 13.6628 101.192 13.5816C101.553 13.4913 101.923 13.3649 102.301 13.2024V14.2451C101.932 14.4076 101.567 14.525 101.206 14.5972C100.845 14.6785 100.417 14.7191 99.9216 14.7191C99.2366 14.7191 98.6282 14.5792 98.0964 14.2993C97.5736 14.0194 97.1635 13.6042 96.8661 13.0535C96.5777 12.4938 96.4334 11.8121 96.4334 11.0087C96.4334 10.2142 96.5642 9.53262 96.8255 8.96387C97.0959 8.39512 97.47 7.95727 97.9477 7.65033C98.4344 7.34338 98.9978 7.18991 99.6377 7.18991ZM99.6242 8.16491C99.0563 8.16491 98.6057 8.34998 98.2722 8.72012C97.9477 9.08123 97.7539 9.58678 97.6908 10.2368H101.382C101.382 9.8215 101.319 9.4604 101.192 9.15345C101.066 8.8465 100.872 8.60727 100.611 8.43574C100.359 8.25519 100.03 8.16491 99.6242 8.16491Z" fill="#A60505"/>
</svg>
