<svg width="446" height="192" viewBox="0 0 446 192" fill="none" xmlns="http://www.w3.org/2000/svg">
<path d="M221.17 90.0635C222.907 90.0635 224.759 90.1773 226.728 90.4048C228.812 90.5186 230.606 90.7461 232.112 91.0873L230.201 104.908C228.696 104.567 227.017 104.282 225.164 104.055C223.428 103.827 221.749 103.714 220.128 103.714C216.538 103.714 213.123 104.453 209.881 105.932C206.639 107.41 203.744 109.515 201.197 112.245C198.649 114.861 196.623 118.046 195.118 121.8C193.729 125.554 193.034 129.762 193.034 134.426V183.225H177.75V91.7698H190.255L191.992 108.491H192.686C194.655 105.079 197.028 102.007 199.807 99.2773C202.586 96.4336 205.77 94.2154 209.36 92.6229C212.949 90.9167 216.886 90.0635 221.17 90.0635ZM264.778 85.1154C264.778 88.9829 264.663 92.6229 264.431 96.0354C264.315 99.3342 264.142 101.95 263.91 103.884H264.778C267.442 100.017 271.089 96.7748 275.72 94.1586C280.352 91.5423 286.315 90.2342 293.609 90.2342C305.188 90.2342 314.451 94.2154 321.398 102.178C328.461 110.027 331.992 121.8 331.992 137.497C331.992 147.962 330.371 156.721 327.129 163.774C324.003 170.826 319.545 176.115 313.756 179.642C307.967 183.168 301.251 184.931 293.609 184.931C286.315 184.931 280.352 183.623 275.72 181.007C271.089 178.39 267.442 175.262 264.778 171.622H263.563L260.436 183.225H249.495V53.5498H264.778V85.1154ZM291.004 102.69C284.404 102.69 279.194 103.941 275.373 106.444C271.552 108.832 268.831 112.586 267.21 117.705C265.589 122.71 264.778 129.137 264.778 136.985V137.668C264.778 148.929 266.631 157.574 270.336 163.603C274.157 169.518 281.162 172.475 291.351 172.475C299.688 172.475 305.883 169.461 309.935 163.432C314.103 157.404 316.188 148.702 316.188 137.327C316.188 125.838 314.103 117.193 309.935 111.392C305.883 105.59 299.572 102.69 291.004 102.69ZM371.632 91.7698V183.225H356.348V91.7698H371.632ZM364.164 57.4742C366.479 57.4742 368.506 58.2704 370.242 59.8629C372.095 61.3417 373.021 63.7304 373.021 67.0292C373.021 70.2142 372.095 72.6029 370.242 74.1954C368.506 75.7879 366.479 76.5842 364.164 76.5842C361.616 76.5842 359.474 75.7879 357.737 74.1954C356.001 72.6029 355.132 70.2142 355.132 67.0292C355.132 63.7304 356.001 61.3417 357.737 59.8629C359.474 58.2704 361.616 57.4742 364.164 57.4742ZM432.213 172.646C434.529 172.646 436.903 172.475 439.334 172.134C441.766 171.679 443.734 171.224 445.239 170.769V182.201C443.618 182.997 441.303 183.623 438.292 184.078C435.282 184.647 432.387 184.931 429.608 184.931C424.745 184.931 420.229 184.135 416.061 182.542C412.009 180.836 408.709 177.935 406.161 173.84C403.614 169.745 402.34 164.001 402.34 156.607V103.372H389.141V96.2061L402.514 90.2342L408.593 70.7829H417.624V91.7698H444.545V103.372H417.624V156.266C417.624 161.84 418.956 165.992 421.619 168.722C424.398 171.338 427.929 172.646 432.213 172.646Z" fill="white"/>
<path d="M78.1911 37.9746C99.8892 37.9746 118.069 45.6746 133.316 60.6896C148.759 75.7046 156.578 93.7996 156.578 114.975C156.578 136.342 148.759 154.437 133.316 169.26C118.069 184.275 99.8892 191.975 78.1911 191.975C56.4931 191.975 38.3137 184.275 23.0664 169.26C7.81911 154.245 0 136.342 0 114.975C0 93.7996 7.81911 75.7046 23.0664 60.6896C38.1182 45.6746 56.4931 37.9746 78.1911 37.9746ZM78.1911 63.7696C63.9212 63.7696 51.6061 68.5821 41.2458 78.7846C31.081 88.7946 26.194 100.922 26.194 114.975C26.194 129.027 31.081 141.347 41.2458 151.357C51.4107 161.367 63.9212 166.18 78.1911 166.18C92.461 166.18 104.776 161.367 114.941 151.357C125.301 141.155 130.188 129.027 130.188 114.975C130.188 100.922 125.106 88.7946 114.941 78.7846C104.776 68.7746 92.461 63.7696 78.1911 63.7696Z" fill="white"/>
<path d="M235.681 34.8075C235.681 36.7793 235.179 38.4287 234.176 39.7556C233.172 41.0826 231.744 42.0875 229.892 42.77C228.039 43.4525 225.839 43.7938 223.292 43.7938C221.131 43.7938 219.258 43.6231 217.676 43.2819C216.132 42.9406 214.762 42.4668 213.566 41.86V37.31C214.801 37.9168 216.287 38.4856 218.023 39.0163C219.799 39.5093 221.594 39.7556 223.408 39.7556C225.994 39.7556 227.865 39.3575 229.023 38.5613C230.181 37.7269 230.76 36.6275 230.76 35.2625C230.76 34.5043 230.548 33.8218 230.123 33.215C229.699 32.6082 228.927 32.0018 227.807 31.395C226.727 30.7882 225.163 30.1057 223.118 29.3475C221.111 28.5893 219.394 27.8307 217.966 27.0725C216.537 26.3143 215.437 25.4042 214.666 24.3425C213.894 23.2808 213.508 21.9158 213.508 20.2475C213.508 17.6692 214.569 15.6786 216.692 14.2756C218.853 12.8727 221.671 12.1713 225.144 12.1713C227.036 12.1713 228.792 12.3608 230.413 12.74C232.072 13.0813 233.616 13.5742 235.044 14.2188L233.307 18.2C232.458 17.8208 231.551 17.4986 230.586 17.2331C229.66 16.9298 228.715 16.7023 227.75 16.5506C226.784 16.3611 225.8 16.2662 224.797 16.2662C222.713 16.2662 221.111 16.6075 219.992 17.29C218.911 17.9346 218.371 18.8256 218.371 19.9631C218.371 20.7973 218.622 21.5177 219.123 22.1244C219.625 22.6931 220.455 23.2619 221.613 23.8306C222.809 24.3614 224.392 25.0061 226.36 25.7644C228.328 26.4849 230.007 27.2243 231.397 27.9825C232.786 28.7407 233.847 29.6699 234.581 30.7694C235.314 31.8312 235.681 33.1769 235.681 34.8075ZM254.931 12.2281C258.713 12.2281 261.512 13.0433 263.326 14.6738C265.14 16.3042 266.047 18.9014 266.047 22.4656V43.225H262.342L261.357 38.9025H261.126C260.238 40.0019 259.312 40.9312 258.347 41.6894C257.421 42.4099 256.34 42.9406 255.105 43.2819C253.908 43.6231 252.442 43.7938 250.705 43.7938C248.852 43.7938 247.174 43.4713 245.668 42.8269C244.202 42.1824 243.044 41.1963 242.195 39.8694C241.345 38.5044 240.921 36.7981 240.921 34.7506C240.921 31.7174 242.137 29.3856 244.568 27.755C247 26.0868 250.744 25.1767 255.8 25.025L261.068 24.8544V23.0344C261.068 20.4939 260.508 18.7308 259.389 17.745C258.27 16.7592 256.687 16.2662 254.642 16.2662C253.021 16.2662 251.477 16.5127 250.01 17.0056C248.544 17.4606 247.174 17.9914 245.9 18.5981L244.337 14.8444C245.687 14.1239 247.289 13.5173 249.142 13.0244C250.994 12.4936 252.924 12.2281 254.931 12.2281ZM256.436 28.4944C252.577 28.6462 249.895 29.2526 248.389 30.3144C246.923 31.3762 246.189 32.8738 246.189 34.8075C246.189 36.5138 246.71 37.765 247.752 38.5613C248.833 39.3575 250.203 39.7556 251.863 39.7556C254.487 39.7556 256.668 39.0543 258.405 37.6512C260.142 36.2106 261.01 34.0113 261.01 31.0538V28.3237L256.436 28.4944ZM290.393 12.1713C294.214 12.1713 297.283 13.4794 299.598 16.0956C301.953 18.7119 303.13 22.6552 303.13 27.9256C303.13 31.3762 302.59 34.2956 301.509 36.6844C300.467 39.0351 298.981 40.8174 297.051 42.0306C295.16 43.2062 292.922 43.7938 290.336 43.7938C288.753 43.7938 287.344 43.5851 286.109 43.1681C284.874 42.7512 283.813 42.2201 282.925 41.5756C282.076 40.8931 281.343 40.1538 280.725 39.3575H280.378C280.455 40.0019 280.532 40.8174 280.609 41.8031C280.687 42.7888 280.725 43.6419 280.725 44.3625V56.875H275.631V12.74H279.799L280.494 16.8919H280.725C281.343 16.0198 282.076 15.2236 282.925 14.5031C283.813 13.7827 284.855 13.2139 286.051 12.7969C287.286 12.3798 288.734 12.1713 290.393 12.1713ZM289.467 16.38C287.383 16.38 285.704 16.7781 284.43 17.5744C283.157 18.3327 282.23 19.4892 281.652 21.0438C281.073 22.5983 280.764 24.57 280.725 26.9587V27.9256C280.725 30.4281 280.996 32.5513 281.536 34.2956C282.076 36.0399 282.983 37.3669 284.257 38.2769C285.569 39.1869 287.344 39.6419 289.583 39.6419C291.474 39.6419 293.018 39.13 294.214 38.1063C295.449 37.0825 296.356 35.6987 296.935 33.9544C297.553 32.1724 297.862 30.1437 297.862 27.8687C297.862 24.3804 297.167 21.5936 295.777 19.5081C294.427 17.4227 292.323 16.38 289.467 16.38ZM326.011 12.1713C329.832 12.1713 332.901 13.4794 335.216 16.0956C337.57 18.7119 338.748 22.6552 338.748 27.9256C338.748 31.3762 338.207 34.2956 337.127 36.6844C336.085 39.0351 334.599 40.8174 332.669 42.0306C330.778 43.2062 328.539 43.7938 325.954 43.7938C324.371 43.7938 322.962 43.5851 321.727 43.1681C320.492 42.7512 319.431 42.2201 318.543 41.5756C317.694 40.8931 316.961 40.1538 316.343 39.3575H315.996C316.073 40.0019 316.15 40.8174 316.228 41.8031C316.305 42.7888 316.343 43.6419 316.343 44.3625V56.875H311.249V12.74H315.417L316.112 16.8919H316.343C316.961 16.0198 317.694 15.2236 318.543 14.5031C319.431 13.7827 320.473 13.2139 321.669 12.7969C322.904 12.3798 324.352 12.1713 326.011 12.1713ZM325.085 16.38C323.001 16.38 321.322 16.7781 320.048 17.5744C318.775 18.3327 317.849 19.4892 317.27 21.0438C316.691 22.5983 316.382 24.57 316.343 26.9587V27.9256C316.343 30.4281 316.613 32.5513 317.154 34.2956C317.694 36.0399 318.601 37.3669 319.875 38.2769C321.187 39.1869 322.962 39.6419 325.201 39.6419C327.092 39.6419 328.636 39.13 329.832 38.1063C331.067 37.0825 331.974 35.6987 332.553 33.9544C333.171 32.1724 333.48 30.1437 333.48 27.8687C333.48 24.3804 332.785 21.5936 331.396 19.5081C330.044 17.4227 327.941 16.38 325.085 16.38ZM351.961 12.6831C351.961 13.4036 351.922 14.1429 351.845 14.9013C351.806 15.6596 351.748 16.3421 351.671 16.9488H352.019C352.675 15.8871 353.505 15.015 354.508 14.3325C355.512 13.65 356.631 13.1381 357.866 12.7969C359.101 12.4177 360.375 12.2281 361.687 12.2281C364.195 12.2281 366.28 12.6263 367.939 13.4225C369.637 14.1808 370.911 15.3752 371.76 17.0056C372.61 18.6361 373.034 20.7594 373.034 23.3756V43.225H367.997V23.7169C367.997 21.2523 367.438 19.4133 366.318 18.2C365.199 16.9867 363.443 16.38 361.05 16.38C358.734 16.38 356.921 16.8161 355.608 17.6881C354.296 18.5223 353.35 19.7736 352.771 21.4419C352.231 23.0723 351.961 25.0819 351.961 27.4706V43.225H346.866V0H351.961V12.6831ZM387.748 12.74V43.225H382.654V12.74H387.748ZM385.259 1.30813C386.031 1.30813 386.706 1.57356 387.285 2.10437C387.903 2.59731 388.211 3.39356 388.211 4.49312C388.211 5.55481 387.903 6.35106 387.285 6.88187C386.706 7.41269 386.031 7.67813 385.259 7.67813C384.41 7.67813 383.696 7.41269 383.117 6.88187C382.538 6.35106 382.248 5.55481 382.248 4.49312C382.248 3.39356 382.538 2.59731 383.117 2.10437C383.696 1.57356 384.41 1.30813 385.259 1.30813ZM412.053 12.1713C412.632 12.1713 413.249 12.2092 413.905 12.285C414.6 12.3229 415.198 12.3988 415.7 12.5125L415.063 17.1194C414.561 17.0056 414.002 16.9108 413.384 16.835C412.805 16.7592 412.245 16.7213 411.705 16.7213C410.509 16.7213 409.37 16.9677 408.29 17.4606C407.209 17.9536 406.244 18.655 405.395 19.565C404.546 20.4371 403.871 21.4987 403.369 22.75C402.905 24.0012 402.674 25.4042 402.674 26.9587V43.225H397.579V12.74H401.748L402.327 18.3137H402.558C403.214 17.1762 404.005 16.1525 404.932 15.2425C405.858 14.2946 406.919 13.5552 408.116 13.0244C409.312 12.4556 410.624 12.1713 412.053 12.1713ZM432.347 12.1713C435.01 12.1713 437.287 12.74 439.179 13.8775C441.108 15.015 442.575 16.6264 443.578 18.7119C444.621 20.7594 445.142 23.1671 445.142 25.935V28.9494H423.895C423.972 32.3999 424.86 35.035 426.558 36.855C428.295 38.6369 430.707 39.5281 433.795 39.5281C435.763 39.5281 437.5 39.3575 439.005 39.0163C440.549 38.6369 442.131 38.1062 443.752 37.4237V41.8031C442.17 42.4856 440.607 42.9787 439.063 43.2819C437.519 43.6231 435.686 43.7938 433.563 43.7938C430.63 43.7938 428.024 43.2062 425.747 42.0306C423.509 40.8551 421.753 39.1112 420.479 36.7981C419.244 34.4474 418.627 31.5844 418.627 28.21C418.627 24.8733 419.186 22.0106 420.305 19.6219C421.463 17.2331 423.065 15.3942 425.111 14.105C427.195 12.8158 429.607 12.1713 432.347 12.1713ZM432.289 16.2662C429.858 16.2662 427.928 17.0436 426.5 18.5981C425.111 20.1148 424.281 22.2381 424.011 24.9681H439.815C439.815 23.2239 439.545 21.7073 439.005 20.4181C438.465 19.1289 437.635 18.1242 436.516 17.4037C435.435 16.6454 434.026 16.2662 432.289 16.2662Z" fill="white"/>
</svg>
