<svg width="79" height="80" viewBox="0 0 79 80" fill="none" xmlns="http://www.w3.org/2000/svg">
<path d="M72.3781 0.226922C69.6398 0.226922 66.1359 1.48862 60.5771 5.77772L60.5654 5.78553C56.7568 8.72303 51.8857 13.1527 46.7954 18.1915L7.7644 11.711C7.66674 11.6915 7.56517 11.6837 7.46361 11.6837H7.4558C6.97533 11.6837 6.50658 11.8751 6.1589 12.2228L6.155 12.2267L1.8386 16.5314C1.42844 16.9415 1.23313 17.5235 1.31126 18.0978C1.36985 18.5001 1.54954 18.8673 1.83079 19.1486H1.83469C1.95578 19.2696 2.0925 19.3712 2.24094 19.4571L30.8269 35.3091C29.8582 36.438 28.9207 37.5552 28.0222 38.6489L28.0105 38.6568C23.5417 44.0865 20.0261 48.9498 17.0185 53.5198L6.47152 51.7659C6.36996 51.7463 6.2684 51.7385 6.17074 51.7385C5.68246 51.7385 5.21371 51.9299 4.86214 52.2776V52.2815L0.541844 56.5862C0.131684 56.9963 -0.0636259 57.5784 0.0184041 58.1526C0.0730921 58.5549 0.260594 58.9221 0.541844 59.2034C0.662934 59.3245 0.799654 59.4299 0.952004 59.512V59.5159L10.2059 64.6487C9.96371 65.0666 9.72934 65.4768 9.48715 65.8909L9.48325 65.8987C9.077 66.6018 9.17466 67.5198 9.77622 68.1214L11.0145 69.3597C11.3739 69.7191 11.8426 69.8949 12.3153 69.8949C12.6356 69.8949 12.9559 69.8128 13.2411 69.6488L13.245 69.6449C13.6591 69.4066 14.0653 69.1644 14.4833 68.9261L19.6161 78.18C19.702 78.3323 19.8075 78.4691 19.9286 78.5902C20.2099 78.8714 20.577 79.0589 20.9794 79.1136C21.0653 79.1253 21.1513 79.1331 21.2333 79.1331C21.7216 79.1331 22.1943 78.9378 22.5458 78.5902L26.8505 74.2699H26.8544C27.2724 73.848 27.4638 73.2465 27.3661 72.6605L25.6122 62.1135C30.1825 59.1057 35.0575 55.5823 40.4832 51.1135V51.1096C41.577 50.2111 42.6941 49.2737 43.823 48.301L59.671 76.883C59.757 77.0353 59.8585 77.1759 59.9796 77.297H59.9835C60.2648 77.5783 60.632 77.7619 61.0343 77.8205C61.1203 77.8322 61.2023 77.84 61.2882 77.84H61.2922C61.7765 77.8361 62.2492 77.6447 62.6008 77.2931L66.9055 72.9767V72.9728C67.3273 72.5509 67.5187 71.9533 67.4211 71.3673L60.9563 32.3283C65.9954 27.2385 70.3977 22.3869 73.3393 18.5783L73.351 18.5627C80.2612 9.60178 79.3119 5.96068 77.9018 2.30468V2.30077C77.8041 2.05077 77.6635 1.83593 77.4877 1.66015L77.4721 1.64453C77.2963 1.46484 77.0776 1.32422 76.8276 1.23047L76.8237 1.22656C75.437 0.695312 74.062 0.226562 72.3901 0.226562L72.3781 0.226922Z" fill="#C00808"/>
</svg>
