<svg width="1133" height="192" viewBox="0 0 1133 192" fill="none" xmlns="http://www.w3.org/2000/svg">
<path d="M223.207 84.8494C225.018 84.8494 226.95 84.9681 229.002 85.2054C231.175 85.3241 233.047 85.5615 234.617 85.9176L232.624 100.339C231.055 99.9831 229.304 99.6863 227.372 99.4489C225.561 99.2115 223.81 99.0928 222.12 99.0928C218.377 99.0928 214.815 99.8644 211.435 101.407C208.054 102.95 205.036 105.146 202.379 107.995C199.723 110.725 197.61 114.048 196.041 117.965C194.592 121.882 193.867 126.274 193.867 131.141V182.061H177.93V86.6298H190.969L192.781 104.078H193.505C195.558 100.517 198.033 97.3124 200.93 94.4637C203.828 91.4963 207.148 89.1817 210.891 87.52C214.634 85.7396 218.739 84.8494 223.207 84.8494ZM268.681 79.6861C268.681 83.7217 268.56 87.52 268.318 91.0809C268.198 94.523 268.017 97.253 267.775 99.2709H268.681C271.458 95.2352 275.261 91.8524 280.09 89.1224C284.92 86.3924 291.138 85.0274 298.745 85.0274C310.818 85.0274 320.478 89.1817 327.722 97.4904C335.087 105.68 338.769 117.965 338.769 134.345C338.769 145.265 337.079 154.405 333.698 161.764C330.438 169.123 325.79 174.643 319.753 178.322C313.716 182.002 306.713 183.842 298.745 183.842C291.138 183.842 284.92 182.477 280.09 179.747C275.261 177.017 271.458 173.752 268.681 169.954H267.413L264.153 182.061H252.743V46.748H268.681V79.6861ZM296.028 98.0246C289.146 98.0246 283.713 99.3302 279.728 101.942C275.744 104.434 272.906 108.351 271.216 113.692C269.526 118.915 268.681 125.621 268.681 133.811V134.523C268.681 146.274 270.612 155.295 274.476 161.586C278.46 167.758 285.765 170.844 296.39 170.844C305.083 170.844 311.543 167.699 315.769 161.408C320.115 155.117 322.289 146.037 322.289 134.167C322.289 122.179 320.115 113.158 315.769 107.105C311.543 101.051 304.963 98.0246 296.028 98.0246ZM380.104 86.6298V182.061H364.167V86.6298H380.104ZM372.317 50.843C374.732 50.843 376.844 51.6739 378.656 53.3357C380.587 54.8787 381.553 57.3713 381.553 60.8135C381.553 64.137 380.587 66.6296 378.656 68.2913C376.844 69.9531 374.732 70.7839 372.317 70.7839C369.66 70.7839 367.427 69.9531 365.616 68.2913C363.805 66.6296 362.899 64.137 362.899 60.8135C362.899 57.3713 363.805 54.8787 365.616 53.3357C367.427 51.6739 369.66 50.843 372.317 50.843ZM443.277 171.022C445.692 171.022 448.167 170.844 450.703 170.488C453.238 170.013 455.291 169.539 456.86 169.064V180.993C455.17 181.824 452.755 182.477 449.616 182.951C446.477 183.545 443.458 183.842 440.561 183.842C435.49 183.842 430.781 183.011 426.434 181.349C422.208 179.568 418.767 176.542 416.111 172.269C413.455 167.996 412.127 162.002 412.127 154.286V98.7367H398.362V91.2589L412.308 85.0274L418.647 64.7304H428.064V86.6298H456.136V98.7367H428.064V153.93C428.064 159.746 429.453 164.079 432.23 166.927C435.127 169.657 438.81 171.022 443.277 171.022ZM515.237 183.842C506.664 183.842 498.997 182.12 492.236 178.678C485.595 175.236 480.343 169.895 476.479 162.654C472.737 155.414 470.865 146.156 470.865 134.88C470.865 123.129 472.857 113.574 476.842 106.215C480.826 98.8554 486.199 93.4548 492.96 90.0126C499.842 86.5704 507.63 84.8494 516.323 84.8494C521.273 84.8494 526.043 85.3835 530.631 86.4517C535.219 87.4013 538.962 88.5883 541.859 90.0126L536.97 103.01C534.072 101.942 530.691 100.933 526.827 99.983C522.964 99.0335 519.342 98.5587 515.961 98.5587C509.441 98.5587 504.068 99.9237 499.842 102.654C495.617 105.384 492.477 109.419 490.425 114.761C488.372 120.102 487.346 126.749 487.346 134.702C487.346 142.298 488.372 148.767 490.425 154.108C492.477 159.45 495.556 163.485 499.661 166.215C503.766 168.945 508.898 170.31 515.055 170.31C520.368 170.31 525.016 169.776 529.001 168.708C533.106 167.64 536.849 166.334 540.229 164.791V178.678C536.97 180.34 533.347 181.586 529.363 182.417C525.499 183.367 520.791 183.842 515.237 183.842ZM647.71 134.167C647.71 142.12 646.624 149.182 644.45 155.355C642.398 161.408 639.379 166.571 635.395 170.844C631.531 175.117 626.762 178.382 621.087 180.637C615.533 182.773 609.315 183.842 602.433 183.842C596.034 183.842 590.118 182.773 584.685 180.637C579.251 178.382 574.542 175.117 570.558 170.844C566.574 166.571 563.435 161.408 561.14 155.355C558.967 149.182 557.881 142.12 557.881 134.167C557.881 123.603 559.692 114.701 563.314 107.461C566.936 100.102 572.128 94.523 578.889 90.7248C585.65 86.8078 593.68 84.8494 602.976 84.8494C611.79 84.8494 619.518 86.8078 626.158 90.7248C632.92 94.523 638.172 100.102 641.915 107.461C645.778 114.701 647.71 123.603 647.71 134.167ZM574.361 134.167C574.361 141.645 575.327 148.173 577.259 153.752C579.312 159.212 582.451 163.426 586.677 166.393C590.903 169.361 596.275 170.844 602.795 170.844C609.315 170.844 614.688 169.361 618.914 166.393C623.14 163.426 626.219 159.212 628.151 153.752C630.203 148.173 631.229 141.645 631.229 134.167C631.229 126.571 630.203 120.102 628.151 114.761C626.098 109.419 622.959 105.324 618.733 102.476C614.628 99.5083 609.255 98.0246 602.614 98.0246C592.714 98.0246 585.53 101.229 581.062 107.639C576.595 114.048 574.361 122.891 574.361 134.167ZM719.698 84.8494C731.289 84.8494 740.043 87.6387 745.959 93.2174C751.875 98.6774 754.833 107.58 754.833 119.924V182.061H739.077V120.992C739.077 113.277 737.326 107.52 733.825 103.722C730.323 99.9237 724.83 98.0246 717.344 98.0246C706.598 98.0246 699.173 100.992 695.068 106.927C690.962 112.862 688.91 121.408 688.91 132.565V182.061H672.972V86.6298H685.831L688.185 99.627H689.091C691.264 96.3035 693.921 93.5735 697.06 91.437C700.32 89.1817 703.882 87.52 707.745 86.4517C711.609 85.3835 715.593 84.8494 719.698 84.8494ZM831.651 84.8494C843.242 84.8494 851.995 87.6387 857.912 93.2174C863.828 98.6774 866.786 107.58 866.786 119.924V182.061H851.03V120.992C851.03 113.277 849.279 107.52 845.777 103.722C842.276 99.9237 836.782 98.0246 829.297 98.0246C818.551 98.0246 811.125 100.992 807.02 106.927C802.915 112.862 800.863 121.408 800.863 132.565V182.061H784.925V86.6298H797.784L800.138 99.627H801.044C803.217 96.3035 805.873 93.5735 809.012 91.437C812.272 89.1817 815.834 87.52 819.698 86.4517C823.562 85.3835 827.546 84.8494 831.651 84.8494ZM934.367 84.8494C942.698 84.8494 949.822 86.6298 955.738 90.1907C961.775 93.7515 966.363 98.7961 969.502 105.324C972.762 111.734 974.392 119.271 974.392 127.936V137.372H907.925C908.167 148.173 910.944 156.423 916.256 162.12C921.69 167.699 929.236 170.488 938.895 170.488C945.053 170.488 950.486 169.954 955.195 168.886C960.024 167.699 964.974 166.037 970.045 163.901V177.61C965.095 179.747 960.205 181.29 955.376 182.239C950.546 183.307 944.811 183.842 938.17 183.842C928.994 183.842 920.844 182.002 913.721 178.322C906.718 174.643 901.224 169.183 897.24 161.942C893.376 154.583 891.445 145.622 891.445 135.058C891.445 124.612 893.195 115.651 896.697 108.173C900.319 100.695 905.329 94.9385 911.729 90.9028C918.249 86.8672 925.795 84.8494 934.367 84.8494ZM934.186 97.6685C926.579 97.6685 920.543 100.102 916.075 104.968C911.729 109.716 909.133 116.363 908.288 124.909H957.73C957.73 119.449 956.885 114.701 955.195 110.666C953.504 106.63 950.908 103.485 947.407 101.229C944.026 98.8554 939.619 97.6685 934.186 97.6685ZM1038.04 183.842C1029.47 183.842 1021.81 182.12 1015.04 178.678C1008.4 175.236 1003.15 169.895 999.287 162.654C995.544 155.414 993.673 146.156 993.673 134.88C993.673 123.129 995.665 113.574 999.65 106.215C1003.63 98.8554 1009.01 93.4548 1015.77 90.0126C1022.65 86.5704 1030.44 84.8494 1039.13 84.8494C1044.08 84.8494 1048.85 85.3835 1053.44 86.4517C1058.03 87.4013 1061.77 88.5883 1064.67 90.0126L1059.78 103.01C1056.88 101.942 1053.5 100.933 1049.64 99.983C1045.77 99.0335 1042.15 98.5587 1038.77 98.5587C1032.25 98.5587 1026.88 99.9237 1022.65 102.654C1018.42 105.384 1015.29 109.419 1013.23 114.761C1011.18 120.102 1010.15 126.749 1010.15 134.702C1010.15 142.298 1011.18 148.767 1013.23 154.108C1015.29 159.45 1018.36 163.485 1022.47 166.215C1026.57 168.945 1031.71 170.31 1037.86 170.31C1043.18 170.31 1047.82 169.776 1051.81 168.708C1055.91 167.64 1059.66 166.334 1063.04 164.791V178.678C1059.78 180.34 1056.16 181.586 1052.17 182.417C1048.31 183.367 1043.6 183.842 1038.04 183.842ZM1118.54 171.022C1120.95 171.022 1123.43 170.844 1125.97 170.488C1128.5 170.013 1130.55 169.539 1132.12 169.064V180.993C1130.43 181.824 1128.02 182.477 1124.88 182.951C1121.74 183.545 1118.72 183.842 1115.82 183.842C1110.75 183.842 1106.04 183.011 1101.7 181.349C1097.47 179.568 1094.03 176.542 1091.37 172.269C1088.72 167.996 1087.39 162.002 1087.39 154.286V98.7367H1073.63V91.2589L1087.57 85.0274L1093.91 64.7304H1103.33V86.6298H1131.4V98.7367H1103.33V153.93C1103.33 159.746 1104.72 164.079 1107.49 166.927C1110.39 169.657 1114.07 171.022 1118.54 171.022Z" fill="white"/>
<path d="M78.0158 37.7998C99.6652 37.7998 117.804 45.4694 133.017 60.425C148.425 75.3807 156.227 93.4042 156.227 114.495C156.227 135.779 148.425 153.802 133.017 168.566C117.804 183.522 99.6652 191.191 78.0158 191.191C56.3664 191.191 38.2277 183.522 23.0147 168.566C7.80158 153.61 0 135.779 0 114.495C0 93.4042 7.80158 75.3807 23.0147 60.425C38.0327 45.4694 56.3664 37.7998 78.0158 37.7998ZM78.0158 63.4928C63.7779 63.4928 51.4904 68.2863 41.1533 78.4485C31.0113 88.4189 26.1353 100.499 26.1353 114.495C26.1353 128.492 31.0113 140.764 41.1533 150.734C51.2954 160.705 63.7779 165.498 78.0158 165.498C92.2537 165.498 104.541 160.705 114.683 150.734C125.02 140.572 129.896 128.492 129.896 114.495C129.896 100.499 124.825 88.4189 114.683 78.4485C104.541 68.4781 92.2537 63.4928 78.0158 63.4928Z" fill="white"/>
<path d="M913.168 36.3209C913.168 38.3784 912.644 40.0995 911.599 41.4841C910.554 42.8688 909.063 43.9174 907.131 44.6296C905.2 45.3417 902.906 45.6978 900.249 45.6978C897.997 45.6978 896.042 45.5198 894.393 45.1637C892.782 44.8076 891.356 44.3132 890.107 43.68V38.9322C891.394 39.5654 892.945 40.1588 894.756 40.7126C896.609 41.2271 898.48 41.4841 900.37 41.4841C903.068 41.4841 905.019 41.0687 906.226 40.2378C907.433 39.3672 908.037 38.22 908.037 36.7957C908.037 36.0045 907.814 35.2923 907.373 34.6591C906.932 34.0259 906.124 33.3932 904.958 32.76C903.83 32.1268 902.2 31.4146 900.068 30.6235C897.974 29.8323 896.186 29.0407 894.695 28.2496C893.205 27.4584 892.058 26.5087 891.254 25.4009C890.451 24.293 890.047 22.8687 890.047 21.1278C890.047 18.4374 891.152 16.3602 893.367 14.8963C895.619 13.4324 898.559 12.7004 902.181 12.7004C904.155 12.7004 905.984 12.8982 907.675 13.2939C909.407 13.65 911.014 14.1644 912.504 14.837L910.693 18.9913C909.806 18.5956 908.864 18.2594 907.856 17.9824C906.89 17.6659 905.905 17.4285 904.898 17.2702C903.89 17.0724 902.864 16.9735 901.819 16.9735C899.646 16.9735 897.974 17.3296 896.808 18.0417C895.68 18.7143 895.118 19.6441 895.118 20.8311C895.118 21.7015 895.378 22.4532 895.903 23.0863C896.427 23.6798 897.291 24.2733 898.499 24.8667C899.748 25.4206 901.396 26.0933 903.449 26.8846C905.501 27.6365 907.252 28.408 908.701 29.1991C910.15 29.9903 911.255 30.9599 912.021 32.1072C912.788 33.2152 913.168 34.6194 913.168 36.3209ZM933.243 12.7598C937.186 12.7598 940.102 13.6104 941.997 15.3117C943.887 17.0131 944.834 19.7232 944.834 23.4424V45.1043H940.971L939.945 40.5939H939.703C938.774 41.7412 937.808 42.7108 936.805 43.502C935.839 44.2539 934.711 44.8076 933.425 45.1637C932.175 45.5198 930.648 45.6978 928.837 45.6978C926.905 45.6978 925.154 45.3614 923.584 44.6889C922.052 44.0165 920.845 42.9875 919.962 41.6028C919.075 40.1785 918.634 38.398 918.634 36.2615C918.634 33.0965 919.902 30.6632 922.437 28.9617C924.973 27.221 928.874 26.2713 934.149 26.113L939.643 25.935V24.0359C939.643 21.385 939.058 19.5452 937.892 18.5165C936.722 17.4878 935.073 16.9735 932.942 16.9735C931.251 16.9735 929.64 17.2306 928.112 17.745C926.58 18.2198 925.154 18.7737 923.826 19.4067L922.196 15.4898C923.603 14.738 925.275 14.105 927.207 13.5907C929.138 13.0368 931.149 12.7598 933.243 12.7598ZM934.813 29.7333C930.787 29.8917 927.991 30.5244 926.422 31.6324C924.889 32.7404 924.128 34.303 924.128 36.3209C924.128 38.1013 924.671 39.407 925.758 40.2378C926.881 41.0687 928.312 41.4841 930.044 41.4841C932.779 41.4841 935.055 40.7523 936.866 39.2883C938.677 37.7849 939.582 35.49 939.582 32.4039V29.5552L934.813 29.7333ZM970.222 12.7004C974.206 12.7004 977.406 14.0654 979.821 16.7954C982.273 19.5254 983.503 23.6402 983.503 29.1398C983.503 32.7404 982.937 35.7867 981.813 38.2793C980.726 40.7322 979.175 42.5921 977.165 43.858C975.191 45.0847 972.855 45.6978 970.162 45.6978C968.508 45.6978 967.041 45.4801 965.755 45.045C964.464 44.6099 963.359 44.0557 962.434 43.3833C961.547 42.6711 960.781 41.8996 960.14 41.0687H959.778C959.857 41.7412 959.936 42.5921 960.02 43.6207C960.099 44.6492 960.14 45.5394 960.14 46.2913V59.3478H954.828V13.2939H959.174L959.899 17.6263H960.14C960.781 16.7163 961.547 15.8855 962.434 15.1337C963.359 14.3819 964.445 13.7885 965.694 13.3533C966.981 12.9181 968.49 12.7004 970.222 12.7004ZM969.256 17.0922C967.083 17.0922 965.332 17.5076 964.004 18.3385C962.676 19.1298 961.71 20.3365 961.106 21.9587C960.503 23.5809 960.178 25.6383 960.14 28.1309V29.1398C960.14 31.7511 960.419 33.9666 960.986 35.7867C961.547 37.6069 962.495 38.9915 963.823 39.9411C965.188 40.8907 967.041 41.3654 969.377 41.3654C971.346 41.3654 972.957 40.8313 974.206 39.763C975.493 38.6948 976.44 37.2508 977.044 35.4307C977.685 33.5712 978.01 31.4543 978.01 29.0804C978.01 25.4404 977.285 22.5324 975.836 20.3563C974.425 18.1802 972.233 17.0922 969.256 17.0922ZM1007.36 12.7004C1011.35 12.7004 1014.55 14.0654 1016.96 16.7954C1019.42 19.5254 1020.64 23.6402 1020.64 29.1398C1020.64 32.7404 1020.08 35.7867 1018.95 38.2793C1017.87 40.7322 1016.32 42.5921 1014.31 43.858C1012.33 45.0847 1010 45.6978 1007.3 45.6978C1005.65 45.6978 1004.18 45.4801 1002.9 45.045C1001.61 44.6099 1000.5 44.0557 999.575 43.3833C998.689 42.6711 997.927 41.8996 997.282 41.0687H996.919C996.998 41.7412 997.082 42.5921 997.161 43.6207C997.24 44.6492 997.282 45.5394 997.282 46.2913V59.3478H991.969V13.2939H996.316L997.04 17.6263H997.282C997.927 16.7163 998.689 15.8855 999.575 15.1337C1000.5 14.3819 1001.59 13.7885 1002.84 13.3533C1004.12 12.9181 1005.63 12.7004 1007.36 12.7004ZM1006.4 17.0922C1004.22 17.0922 1002.47 17.5076 1001.15 18.3385C999.817 19.1298 998.851 20.3365 998.247 21.9587C997.644 23.5809 997.323 25.6383 997.282 28.1309V29.1398C997.282 31.7511 997.565 33.9666 998.127 35.7867C998.689 37.6069 999.636 38.9915 1000.96 39.9411C1002.33 40.8907 1004.18 41.3654 1006.52 41.3654C1008.49 41.3654 1010.1 40.8313 1011.35 39.763C1012.63 38.6948 1013.58 37.2508 1014.18 35.4307C1014.83 33.5712 1015.15 31.4543 1015.15 29.0804C1015.15 25.4404 1014.43 22.5324 1012.98 20.3563C1011.57 18.1802 1009.37 17.0922 1006.4 17.0922ZM1034.42 13.2346C1034.42 13.9863 1034.38 14.7578 1034.3 15.5491C1034.26 16.3404 1034.2 17.0526 1034.12 17.6857H1034.48C1035.17 16.5778 1036.03 15.6678 1037.08 14.9557C1038.12 14.2435 1039.29 13.7093 1040.58 13.3533C1041.87 12.9576 1043.19 12.7598 1044.56 12.7598C1047.18 12.7598 1049.35 13.1752 1051.08 14.0061C1052.85 14.7974 1054.18 16.0437 1055.07 17.745C1055.96 19.4463 1056.4 21.662 1056.4 24.392V45.1043H1051.14V24.748C1051.14 22.1763 1050.56 20.2574 1049.39 18.9913C1048.23 17.7252 1046.39 17.0922 1043.9 17.0922C1041.49 17.0922 1039.6 17.5472 1038.23 18.4572C1036.86 19.3276 1035.87 20.6333 1035.27 22.3741C1034.71 24.0755 1034.42 26.1724 1034.42 28.665V45.1043H1029.11V0H1034.42V13.2346ZM1071.74 13.2939V45.1043H1066.43V13.2939H1071.74ZM1069.14 1.365C1069.95 1.365 1070.65 1.64197 1071.26 2.19587C1071.9 2.71023 1072.22 3.5411 1072.22 4.68848C1072.22 5.79632 1071.9 6.62719 1071.26 7.18109C1070.65 7.73498 1069.95 8.01196 1069.14 8.01196C1068.26 8.01196 1067.51 7.73498 1066.91 7.18109C1066.31 6.62719 1066.01 5.79632 1066.01 4.68848C1066.01 3.5411 1066.31 2.71023 1066.91 2.19587C1067.51 1.64197 1068.26 1.365 1069.14 1.365ZM1097.09 12.7004C1097.69 12.7004 1098.33 12.74 1099.02 12.8191C1099.74 12.8587 1100.36 12.9378 1100.89 13.0565L1100.23 17.8637C1099.7 17.745 1099.12 17.6461 1098.47 17.567C1097.87 17.4878 1097.29 17.4483 1096.72 17.4483C1095.47 17.4483 1094.29 17.7054 1093.16 18.2198C1092.03 18.7341 1091.03 19.4661 1090.14 20.4157C1089.26 21.3256 1088.55 22.4335 1088.03 23.7391C1087.55 25.0448 1087.31 26.5087 1087.31 28.1309V45.1043H1081.99V13.2939H1086.34L1086.94 19.11H1087.19C1087.87 17.923 1088.69 16.8548 1089.66 15.9052C1090.63 14.9161 1091.73 14.1446 1092.98 13.5907C1094.23 12.9972 1095.6 12.7004 1097.09 12.7004ZM1118.25 12.7004C1121.02 12.7004 1123.4 13.2939 1125.37 14.4809C1127.38 15.6678 1128.91 17.3493 1129.96 19.5254C1131.05 21.662 1131.59 24.1743 1131.59 27.0626V30.208H1109.43C1109.51 33.8086 1110.44 36.5583 1112.21 38.4574C1114.02 40.3168 1116.53 41.2467 1119.76 41.2467C1121.81 41.2467 1123.62 41.0687 1125.19 40.7126C1126.8 40.3168 1128.45 39.763 1130.14 39.0509V43.6207C1128.49 44.3328 1126.86 44.8473 1125.25 45.1637C1123.64 45.5198 1121.73 45.6978 1119.52 45.6978C1116.46 45.6978 1113.74 45.0847 1111.37 43.858C1109.03 42.6314 1107.2 40.8117 1105.87 38.398C1104.58 35.9452 1103.94 32.9577 1103.94 29.4365C1103.94 25.9548 1104.52 22.9676 1105.69 20.475C1106.9 17.9824 1108.57 16.0635 1110.7 14.7183C1112.87 13.373 1115.39 12.7004 1118.25 12.7004ZM1118.19 16.9735C1115.65 16.9735 1113.64 17.7846 1112.15 19.4067C1110.7 20.9894 1109.83 23.205 1109.55 26.0537H1126.04C1126.04 24.2337 1125.75 22.6511 1125.19 21.3059C1124.62 19.9606 1123.76 18.9122 1122.59 18.1604C1121.47 17.3691 1120 16.9735 1118.19 16.9735Z" fill="white"/>
</svg>
