<svg width="94" height="95" viewBox="0 0 94 95" fill="none" xmlns="http://www.w3.org/2000/svg">
<path fill-rule="evenodd" clip-rule="evenodd" d="M46.8792 0.464844C49.7425 0.464844 52.0628 2.78514 52.0628 5.64844C52.0628 8.17184 50.258 10.2734 47.8713 10.7382L47.8753 15.7499L45.8792 15.7538L45.8831 10.7382C43.4964 10.2734 41.6917 8.17185 41.6917 5.64845C41.6956 2.78905 44.0159 0.464844 46.8792 0.464844ZM10.3671 48.3398C10.3359 48.3398 10.3046 48.3398 10.2734 48.3359C9.81246 50.7265 7.707 52.5312 5.1836 52.5312C2.3203 52.5312 0 50.2109 0 47.3476C0 44.4843 2.3203 42.164 5.1836 42.164C7.7109 42.164 9.8125 43.9687 10.2734 46.3593L15.2851 46.3554L15.289 48.3437L10.3671 48.3398ZM20.3554 22.2348C20.332 22.2114 20.3125 22.188 20.289 22.1645C18.2734 23.5278 15.5117 23.3129 13.7265 21.5317C11.7031 19.5083 11.7031 16.2231 13.7265 14.1997C15.7499 12.1763 19.0351 12.1763 21.0585 14.1997C22.8437 15.9849 23.0546 18.7466 21.6914 20.7622L25.2422 24.3052L23.832 25.7154L20.3554 22.2348ZM71.9924 20.8246C72.0159 20.8012 72.0393 20.7817 72.0628 20.7582C70.6995 18.7426 70.9144 15.9809 72.6956 14.1957C74.719 12.1723 78.0042 12.1723 80.0276 14.1957C82.051 16.2191 82.051 19.5043 80.0276 21.5277C78.2424 23.3129 75.4807 23.5238 73.4651 22.1605L69.9221 25.7074L68.5119 24.2972L71.9924 20.8246ZM83.3904 46.3556C83.4217 46.3556 83.4529 46.3556 83.4842 46.3596C83.9451 43.969 86.0506 42.1643 88.574 42.1643C91.4373 42.1643 93.7576 44.4846 93.7576 47.3479C93.7576 50.2112 91.4373 52.5315 88.574 52.5315C86.0506 52.5315 83.9451 50.7268 83.4842 48.3362L78.4725 48.3401V46.3518L83.3904 46.3556ZM73.4022 72.4606C73.4256 72.4841 73.4451 72.5075 73.4686 72.531C75.4842 71.1677 78.2459 71.3826 80.0311 73.1638C82.0545 75.1872 82.0545 78.4724 80.0311 80.4958C78.0077 82.5192 74.7225 82.5192 72.6991 80.4958C70.9139 78.7106 70.703 75.9489 72.0662 73.9333L68.5193 70.3903L69.9296 68.9801L73.4022 72.4606ZM47.8712 83.8586C47.8712 83.8899 47.8712 83.9211 47.8672 83.9524C50.2578 84.4133 52.0625 86.5188 52.0625 89.0422C52.0625 91.9055 49.7422 94.2258 46.8789 94.2258C44.0156 94.2258 41.6953 91.9055 41.6953 89.0422C41.6953 86.5188 43.5 84.4133 45.8906 83.9524L45.8867 78.9407L47.875 78.9368L47.8712 83.8586ZM21.7661 73.8703C21.7427 73.8938 21.7193 73.9133 21.6958 73.9367C23.0591 75.9523 22.8442 78.714 21.063 80.4992C19.0396 82.5226 15.7544 82.5226 13.731 80.4992C11.7076 78.4758 11.7076 75.1906 13.731 73.1672C15.5162 71.382 18.2779 71.1711 20.2935 72.5344L23.8365 68.9836L25.2467 70.3938L21.7661 73.8703ZM58.2501 67.4836L64.4259 71.1008L70.6487 64.8703L67.0275 58.6984C67.9416 57.0734 68.6564 55.3468 69.1564 53.55L76.0823 51.7375L76.0783 42.9328L69.1486 41.1281C68.6486 39.3312 67.9338 37.6047 67.0158 35.9797L70.633 29.8039L64.4025 23.5812L58.2267 27.2023C56.6017 26.2883 54.8712 25.5734 53.0705 25.0734L51.2541 18.1476L42.4494 18.1555L40.6486 25.0852C38.8556 25.5852 37.1252 26.304 35.5041 27.2219L29.3244 23.6086L23.1017 29.843L26.7267 36.0149C25.8127 37.6399 25.0978 39.3704 24.6017 41.1633L17.6759 42.9719L17.6838 51.7766L24.6135 53.5774C25.1135 55.3704 25.8323 57.1008 26.7502 58.7219L23.1369 64.9016L29.3674 71.1243L35.5393 67.4993C37.1643 68.4133 38.8948 69.1282 40.6877 69.6243L42.5041 76.5501L51.3088 76.5422L53.1096 69.6125C54.9026 69.1125 56.629 68.3977 58.2501 67.4836ZM58.7697 58.3117L58.758 58.3235C52.59 64.9797 42.031 65.3313 35.473 58.7844C29.1527 52.4758 29.141 42.2414 35.4495 35.9214C41.9026 29.4566 52.3365 29.6792 58.5275 36.1206C58.5978 36.1948 58.6681 36.273 58.7385 36.3511C64.4807 42.7027 64.4376 52.1827 58.7697 58.3117ZM49.3166 46.0147C48.4064 46.9601 46.9768 45.5772 47.883 44.6358C49.4846 42.9756 51.4025 41.4249 53.7541 41.4249C57.0236 41.4249 59.6799 44.0772 59.6799 47.3507C59.6799 50.6202 57.0276 53.2765 53.7541 53.2765C48.0588 53.2765 44.7111 43.4249 40.0001 43.4249C36.5118 43.4249 34.754 47.6632 37.2228 50.1319C37.9337 50.8429 38.9142 51.2842 40.0001 51.2842C41.6876 51.2842 43.2657 49.7608 44.4337 48.5069C44.8087 48.1046 45.4376 48.0812 45.8399 48.4562C46.2422 48.8312 46.2657 49.4601 45.8907 49.8624C44.2969 51.5733 42.379 53.2804 39.9962 53.2804C36.7267 53.2804 34.0704 50.6281 34.0704 47.3546C34.0704 44.0851 36.7227 41.4288 39.9962 41.4288C45.9142 41.4288 49.3087 51.2804 53.7502 51.2804C57.2385 51.2804 58.9963 47.0421 56.5275 44.5734C55.8165 43.8624 54.8361 43.425 53.7502 43.425C52.0471 43.4172 50.5158 44.7726 49.3166 46.0147Z" fill="#C00808"/>
</svg>
