<svg width="35" height="36" viewBox="0 0 35 36" fill="none" xmlns="http://www.w3.org/2000/svg">
<path d="M6.25 9.25C6.25 7.92188 7.34375 6.75 8.75 6.75C10.0781 6.75 11.25 7.92188 11.25 9.25C11.25 10.6562 10.0781 11.75 8.75 11.75C7.34375 11.75 6.25 10.6562 6.25 9.25ZM15.3906 0.5C16.7188 0.5 17.9688 1.04688 18.9062 1.98438L32.6562 15.7344C34.6094 17.6875 34.6094 20.8906 32.6562 22.8438L22.2656 33.2344C20.3125 35.1875 17.1094 35.1875 15.1562 33.2344L1.40625 19.4844C0.46875 18.5469 0 17.2969 0 15.9688V4.25C0 2.21875 1.64062 0.5 3.75 0.5H15.3906ZM4.0625 16.8281L17.8125 30.5781C18.2812 31.125 19.1406 31.125 19.6094 30.5781L30 20.1875C30.5469 19.7188 30.5469 18.8594 30 18.3906L16.25 4.64062C16.0156 4.40625 15.7031 4.25 15.3906 4.25H3.75V15.9688C3.75 16.2812 3.82812 16.5938 4.0625 16.8281Z" fill="white"/>
</svg>
