<svg width="634" height="192" viewBox="0 0 634 192" fill="none" xmlns="http://www.w3.org/2000/svg">
<path d="M205.593 81.7855V157.898H195.239L193.37 147.816H192.794C191.165 150.466 189.055 152.644 186.467 154.348C183.878 156.052 181.05 157.282 177.982 158.04C174.914 158.892 171.703 159.318 168.347 159.318C162.211 159.318 157.034 158.371 152.816 156.478C148.693 154.49 145.578 151.46 143.468 147.39C141.359 143.319 140.305 138.065 140.305 131.628V81.7855H153.104V130.776C153.104 136.834 154.494 141.378 157.274 144.408C160.054 147.437 164.369 148.952 170.217 148.952C175.969 148.952 180.475 147.91 183.735 145.828C187.09 143.65 189.439 140.526 190.781 136.456C192.219 132.29 192.938 127.273 192.938 121.404V81.7855H205.593ZM242.719 157.898H230.064V49.9775H242.719V157.898ZM296.908 80.3655C303.523 80.3655 309.179 81.7855 313.877 84.6255C318.671 87.4655 322.314 91.4889 324.807 96.6955C327.395 101.808 328.689 107.819 328.689 114.73V122.256H275.912C276.104 130.87 278.309 137.45 282.527 141.994C286.841 146.443 292.833 148.668 300.503 148.668C305.393 148.668 309.707 148.242 313.446 147.39C317.281 146.443 321.211 145.118 325.238 143.414V154.348C321.307 156.052 317.424 157.282 313.59 158.04C309.755 158.892 305.201 159.318 299.928 159.318C292.642 159.318 286.17 157.85 280.514 154.916C274.953 151.981 270.591 147.626 267.427 141.852C264.359 135.982 262.825 128.835 262.825 120.41C262.825 112.079 264.216 104.932 266.996 98.9675C269.872 93.0035 273.851 88.4122 278.932 85.1935C284.109 81.9749 290.101 80.3655 296.908 80.3655ZM296.764 90.5895C290.724 90.5895 285.931 92.5302 282.383 96.4115C278.932 100.198 276.871 105.5 276.2 112.316H315.459C315.459 107.961 314.788 104.174 313.446 100.956C312.104 97.7369 310.042 95.2282 307.262 93.4295C304.578 91.5362 301.078 90.5895 296.764 90.5895ZM398.502 136.882C398.502 141.804 397.256 145.922 394.763 149.236C392.27 152.549 388.723 155.058 384.121 156.762C379.519 158.466 374.054 159.318 367.727 159.318C362.358 159.318 357.708 158.892 353.777 158.04C349.942 157.188 346.539 156.004 343.567 154.49V143.13C346.635 144.644 350.326 146.064 354.64 147.39C359.05 148.62 363.508 149.236 368.014 149.236C374.438 149.236 379.087 148.242 381.964 146.254C384.84 144.171 386.278 141.426 386.278 138.018C386.278 136.124 385.751 134.42 384.697 132.906C383.642 131.391 381.725 129.876 378.944 128.362C376.259 126.847 372.376 125.143 367.295 123.25C362.31 121.356 358.044 119.463 354.496 117.57C350.949 115.676 348.217 113.404 346.299 110.754C344.382 108.103 343.423 104.695 343.423 100.53C343.423 94.0922 346.06 89.1222 351.332 85.6195C356.701 82.1169 363.7 80.3655 372.328 80.3655C377.026 80.3655 381.389 80.8389 385.416 81.7855C389.538 82.6375 393.373 83.8682 396.92 85.4775L392.606 95.4175C390.497 94.4709 388.244 93.6662 385.847 93.0035C383.546 92.2462 381.197 91.6782 378.8 91.2995C376.403 90.8262 373.958 90.5895 371.466 90.5895C366.288 90.5895 362.31 91.4415 359.53 93.1455C356.845 94.7549 355.503 96.9795 355.503 99.8195C355.503 101.902 356.126 103.701 357.372 105.216C358.619 106.636 360.68 108.056 363.556 109.476C366.528 110.801 370.459 112.41 375.348 114.304C380.239 116.102 384.409 117.948 387.86 119.842C391.312 121.735 393.948 124.054 395.77 126.8C397.591 129.45 398.502 132.811 398.502 136.882ZM405.047 81.7855H418.565L435.247 125.096C436.206 127.652 437.068 130.113 437.835 132.48C438.698 134.846 439.465 137.166 440.136 139.438C440.807 141.615 441.335 143.745 441.718 145.828H442.293C442.869 143.461 443.779 140.384 445.026 136.598C446.272 132.716 447.566 128.835 448.909 124.954L464.584 81.7855H478.245L445.026 168.406C443.204 173.139 441.047 177.257 438.554 180.76C436.158 184.357 433.186 187.102 429.638 188.996C426.187 190.984 421.969 191.978 416.983 191.978C414.682 191.978 412.669 191.836 410.943 191.552C409.218 191.362 407.732 191.126 406.485 190.842V180.902C407.54 181.091 408.786 181.28 410.224 181.47C411.758 181.659 413.34 181.754 414.97 181.754C417.942 181.754 420.483 181.186 422.592 180.05C424.797 179.008 426.666 177.446 428.2 175.364C429.734 173.376 431.028 171.009 432.083 168.264L436.11 158.182L405.047 81.7855ZM527.538 80.3655C536.742 80.3655 543.693 82.5902 548.39 87.0395C553.088 91.3942 555.437 98.4942 555.437 108.34V157.898H542.926V109.192C542.926 103.038 541.535 98.4469 538.755 95.4175C535.975 92.3882 531.613 90.8735 525.669 90.8735C517.136 90.8735 511.24 93.2402 507.98 97.9735C504.721 102.707 503.091 109.523 503.091 118.422V157.898H490.436V81.7855H500.646L502.516 92.1515H503.235C504.96 89.5009 507.07 87.3235 509.562 85.6195C512.151 83.8209 514.979 82.4955 518.047 81.6435C521.115 80.7915 524.279 80.3655 527.538 80.3655ZM610.25 159.318C603.443 159.318 597.355 157.945 591.986 155.2C586.713 152.454 582.543 148.194 579.475 142.42C576.503 136.645 575.017 129.261 575.017 120.268C575.017 110.896 576.599 103.275 579.762 97.4055C582.926 91.5362 587.193 87.2289 592.561 84.4835C598.026 81.7382 604.21 80.3655 611.113 80.3655C615.043 80.3655 618.83 80.7915 622.473 81.6435C626.116 82.4009 629.088 83.3475 631.389 84.4835L627.507 94.8495C625.206 93.9975 622.521 93.1929 619.453 92.4355C616.385 91.6782 613.509 91.2995 610.825 91.2995C605.648 91.2995 601.382 92.3882 598.026 94.5655C594.671 96.7429 592.178 99.9615 590.548 104.222C588.918 108.482 588.103 113.783 588.103 120.126C588.103 126.184 588.918 131.344 590.548 135.604C592.178 139.864 594.623 143.082 597.882 145.26C601.142 147.437 605.216 148.526 610.106 148.526C614.324 148.526 618.015 148.1 621.179 147.248C624.439 146.396 627.411 145.354 630.095 144.124V155.2C627.507 156.525 624.631 157.519 621.467 158.182C618.399 158.939 614.66 159.318 610.25 159.318Z" fill="white"/>
<path d="M108.957 120.188C103.032 128.625 95.5767 134.625 86.5925 138.188L117.942 192H88.6952L44.3476 116.813L67.0949 117C73.9764 117 79.9021 114.563 84.8721 109.688C90.0333 104.813 92.5183 98.8125 92.5183 91.875C92.5183 85.125 90.0333 79.3125 84.8721 74.4375C79.9021 69.5625 73.9764 67.125 67.0949 67.125H16.0569L13.1896 64.3125L0 42H67.0949C81.0491 42 93.0917 46.875 103.032 56.625C112.972 66.5625 117.942 78.1875 117.942 91.875C117.942 102.375 115.074 111.75 108.957 120.188Z" fill="white"/>
<path d="M447.041 30.94C447.041 32.6927 446.594 34.1588 445.703 35.3383C444.812 36.5178 443.541 37.4111 441.894 38.0178C440.247 38.6244 438.291 38.9278 436.027 38.9278C434.106 38.9278 432.44 38.7761 431.034 38.4728C429.66 38.1694 428.445 37.7483 427.38 37.2089V33.1644C428.476 33.7038 429.799 34.2094 431.343 34.6811C432.923 35.1194 434.518 35.3383 436.13 35.3383C438.43 35.3383 440.093 34.9844 441.122 34.2767C442.152 33.5351 442.666 32.5578 442.666 31.3444C442.666 30.6705 442.476 30.0638 442.1 29.5244C441.724 28.9851 441.035 28.4461 440.041 27.9067C439.079 27.3673 437.69 26.7606 435.872 26.0867C434.087 25.4127 432.562 24.7384 431.291 24.0644C430.02 23.3905 429.042 22.5815 428.358 21.6378C427.673 20.6941 427.328 19.4807 427.328 17.9978C427.328 15.7059 428.27 13.9365 430.159 12.6894C432.079 11.4424 434.586 10.8189 437.674 10.8189C439.356 10.8189 440.916 10.9874 442.358 11.3244C443.834 11.6278 445.204 12.0659 446.475 12.6389L444.931 16.1778C444.175 15.8407 443.371 15.5543 442.512 15.3183C441.689 15.0487 440.849 14.8465 439.99 14.7117C439.131 14.5432 438.256 14.4589 437.365 14.4589C435.512 14.4589 434.087 14.7622 433.093 15.3689C432.131 15.9418 431.652 16.7339 431.652 17.745C431.652 18.4865 431.873 19.1268 432.321 19.6661C432.768 20.1717 433.505 20.6772 434.534 21.1828C435.599 21.6546 437.005 22.2276 438.755 22.9017C440.505 23.5422 441.997 24.1994 443.233 24.8733C444.468 25.5473 445.41 26.3733 446.064 27.3506C446.717 28.2944 447.041 29.4906 447.041 30.94ZM464.158 10.8694C467.519 10.8694 470.005 11.5941 471.621 13.0433C473.232 14.4926 474.04 16.8013 474.04 19.9694V38.4222H470.746L469.871 34.58H469.665C468.873 35.5573 468.05 36.3833 467.194 37.0572C466.371 37.6977 465.409 38.1694 464.312 38.4728C463.247 38.7761 461.944 38.9278 460.4 38.9278C458.753 38.9278 457.26 38.6412 455.922 38.0683C454.616 37.4955 453.586 36.6189 452.834 35.4394C452.078 34.2261 451.702 32.7094 451.702 30.8894C451.702 28.1933 452.782 26.1205 454.944 24.6711C457.106 23.1883 460.432 22.3793 464.93 22.2444L469.613 22.0928V20.475C469.613 18.2168 469.115 16.6496 468.121 15.7733C467.123 14.8971 465.717 14.4589 463.9 14.4589C462.459 14.4589 461.085 14.678 459.782 15.1161C458.476 15.5206 457.26 15.9924 456.128 16.5317L454.738 13.195C455.938 12.5546 457.363 12.0154 459.01 11.5772C460.658 11.1054 462.372 10.8694 464.158 10.8694ZM465.496 25.3283C462.063 25.4633 459.68 26.0023 458.341 26.9461C457.035 27.8899 456.385 29.2211 456.385 30.94C456.385 32.4567 456.849 33.5689 457.775 34.2767C458.733 34.9844 459.953 35.3383 461.43 35.3383C463.762 35.3383 465.702 34.7149 467.246 33.4678C468.79 32.1872 469.562 30.2322 469.562 27.6033V25.1767L465.496 25.3283ZM495.685 10.8189C499.082 10.8189 501.81 11.9817 503.869 14.3072C505.96 16.6328 507.009 20.138 507.009 24.8228C507.009 27.8899 506.526 30.485 505.568 32.6083C504.641 34.6978 503.319 36.2822 501.605 37.3606C499.922 38.4055 497.93 38.9278 495.634 38.9278C494.224 38.9278 492.973 38.7423 491.877 38.3717C490.776 38.0011 489.834 37.5289 489.046 36.9561C488.289 36.3494 487.636 35.6922 487.09 34.9844H486.781C486.848 35.5573 486.916 36.2822 486.987 37.1583C487.054 38.0345 487.09 38.7928 487.09 39.4333V50.5556H482.56V11.3244H486.266L486.884 15.015H487.09C487.636 14.2398 488.289 13.5321 489.046 12.8917C489.834 12.2513 490.76 11.7457 491.825 11.375C492.922 11.0043 494.209 10.8189 495.685 10.8189ZM494.862 14.56C493.009 14.56 491.516 14.9139 490.384 15.6217C489.252 16.2957 488.428 17.3237 487.913 18.7056C487.399 20.0874 487.121 21.84 487.09 23.9633V24.8228C487.09 27.0472 487.327 28.9345 487.81 30.485C488.289 32.0355 489.097 33.215 490.23 34.0239C491.394 34.8328 492.973 35.2372 494.965 35.2372C496.644 35.2372 498.017 34.7822 499.082 33.8722C500.179 32.9622 500.987 31.7322 501.502 30.1817C502.048 28.5977 502.325 26.7944 502.325 24.7722C502.325 21.6715 501.707 19.1943 500.472 17.3406C499.269 15.4868 497.4 14.56 494.862 14.56ZM527.352 10.8189C530.749 10.8189 533.477 11.9817 535.536 14.3072C537.63 16.6328 538.675 20.138 538.675 24.8228C538.675 27.8899 538.196 30.485 537.234 32.6083C536.308 34.6978 534.985 36.2822 533.271 37.3606C531.588 38.4055 529.601 38.9278 527.3 38.9278C525.895 38.9278 524.64 38.7423 523.543 38.3717C522.446 38.0011 521.5 37.5289 520.712 36.9561C519.956 36.3494 519.307 35.6922 518.756 34.9844H518.447C518.515 35.5573 518.586 36.2822 518.653 37.1583C518.721 38.0345 518.756 38.7928 518.756 39.4333V50.5556H514.227V11.3244H517.933L518.55 15.015H518.756C519.307 14.2398 519.956 13.5321 520.712 12.8917C521.5 12.2513 522.427 11.7457 523.492 11.375C524.588 11.0043 525.875 10.8189 527.352 10.8189ZM526.528 14.56C524.675 14.56 523.183 14.9139 522.05 15.6217C520.918 16.2957 520.094 17.3237 519.58 18.7056C519.065 20.0874 518.792 21.84 518.756 23.9633V24.8228C518.756 27.0472 518.998 28.9345 519.477 30.485C519.956 32.0355 520.764 33.215 521.896 34.0239C523.064 34.8328 524.64 35.2372 526.631 35.2372C528.314 35.2372 529.684 34.7822 530.749 33.8722C531.846 32.9622 532.653 31.7322 533.168 30.1817C533.718 28.5977 533.992 26.7944 533.992 24.7722C533.992 21.6715 533.374 19.1943 532.139 17.3406C530.939 15.4868 529.066 14.56 526.528 14.56ZM550.423 11.2739C550.423 11.9143 550.387 12.5715 550.32 13.2456C550.284 13.9196 550.233 14.5263 550.165 15.0656H550.474C551.056 14.1218 551.797 13.3467 552.687 12.74C553.578 12.1333 554.576 11.6783 555.673 11.375C556.769 11.038 557.902 10.8694 559.07 10.8694C561.299 10.8694 563.152 11.2233 564.629 11.9311C566.137 12.6052 567.27 13.6668 568.026 15.1161C568.782 16.5654 569.158 18.4528 569.158 20.7783V38.4222H564.68V21.0817C564.68 18.8909 564.181 17.2563 563.188 16.1778C562.194 15.0993 560.63 14.56 558.504 14.56C556.445 14.56 554.833 14.9476 553.665 15.7228C552.497 16.4643 551.658 17.5765 551.143 19.0594C550.664 20.5087 550.423 22.295 550.423 24.4183V38.4222H545.893V0H550.423V11.2739ZM582.24 11.3244V38.4222H577.71V11.3244H582.24ZM580.026 1.16278C580.711 1.16278 581.313 1.39872 581.828 1.87056C582.378 2.30872 582.651 3.01649 582.651 3.99389C582.651 4.93761 582.378 5.64538 581.828 6.11722C581.313 6.58906 580.711 6.825 580.026 6.825C579.27 6.825 578.637 6.58906 578.122 6.11722C577.607 5.64538 577.35 4.93761 577.35 3.99389C577.35 3.01649 577.607 2.30872 578.122 1.87056C578.637 1.39872 579.27 1.16278 580.026 1.16278ZM603.85 10.8189C604.364 10.8189 604.911 10.8526 605.497 10.92C606.114 10.9537 606.645 11.0211 607.092 11.1222L606.526 15.2172C606.079 15.1161 605.58 15.0318 605.033 14.9644C604.519 14.8971 604.02 14.8633 603.541 14.8633C602.476 14.8633 601.462 15.0824 600.504 15.5206C599.542 15.9587 598.683 16.5822 597.93 17.3911C597.174 18.1663 596.572 19.11 596.129 20.2222C595.717 21.3344 595.511 22.5815 595.511 23.9633V38.4222H590.982V11.3244H594.688L595.202 16.2789H595.408C595.99 15.2678 596.695 14.3578 597.519 13.5489C598.342 12.7063 599.284 12.0491 600.35 11.5772C601.411 11.0717 602.579 10.8189 603.85 10.8189ZM621.892 10.8189C624.26 10.8189 626.283 11.3244 627.966 12.3356C629.68 13.3467 630.983 14.7791 631.877 16.6328C632.804 18.4528 633.267 20.593 633.267 23.0533V25.7328H614.377C614.445 28.7999 615.232 31.1422 616.745 32.76C618.289 34.3439 620.431 35.1361 623.179 35.1361C624.929 35.1361 626.473 34.9844 627.811 34.6811C629.181 34.3439 630.591 33.8722 632.032 33.2656V37.1583C630.622 37.765 629.233 38.2033 627.863 38.4728C626.489 38.7761 624.858 38.9278 622.973 38.9278C620.364 38.9278 618.048 38.4055 616.024 37.3606C614.033 36.3156 612.473 34.7655 611.341 32.7094C610.24 30.6199 609.693 28.0751 609.693 25.0756C609.693 22.1096 610.188 19.565 611.186 17.4417C612.216 15.3183 613.637 13.6837 615.458 12.5378C617.311 11.3918 619.453 10.8189 621.892 10.8189ZM621.841 14.4589C619.679 14.4589 617.96 15.1498 616.693 16.5317C615.458 17.8798 614.718 19.7672 614.48 22.1939H628.532C628.532 20.6435 628.29 19.2954 627.811 18.1494C627.328 17.0035 626.592 16.1104 625.598 15.47C624.636 14.7959 623.385 14.4589 621.841 14.4589Z" fill="white"/>
</svg>
