<svg width="158" height="50" viewBox="0 0 158 50" fill="none" xmlns="http://www.w3.org/2000/svg">
<path d="M49.0577 21.3848V40.7403H46.4479L45.9767 38.1765H45.8317C45.4209 38.8505 44.8893 39.4042 44.2369 39.8376C43.5844 40.2709 42.8716 40.5839 42.0983 40.7765C41.325 40.9931 40.5155 41.1015 39.6697 41.1015C38.1232 41.1015 36.8183 40.8607 35.7551 40.3792C34.716 39.8737 33.9306 39.1033 33.399 38.0681C32.8674 37.0329 32.6016 35.6968 32.6016 34.0598V21.3848H35.8275V33.8431C35.8275 35.3839 36.1779 36.5394 36.8787 37.3098C37.5795 38.0802 38.6669 38.4653 40.1409 38.4653C41.5908 38.4653 42.7266 38.2005 43.5482 37.6709C44.3939 37.1172 44.986 36.3227 45.3243 35.2876C45.6867 34.2283 45.868 32.9524 45.868 31.4598V21.3848H49.0577ZM58.4154 40.7403H55.2257V13.2959H58.4154V40.7403ZM72.0738 21.0237C73.7411 21.0237 75.1669 21.3848 76.3509 22.107C77.5592 22.8292 78.4774 23.8524 79.1057 25.1765C79.7581 26.4765 80.0844 28.0052 80.0844 29.7626V31.6765H66.7817C66.83 33.8672 67.3858 35.5403 68.4491 36.6959C69.5365 37.8274 71.0468 38.3931 72.9799 38.3931C74.2123 38.3931 75.2998 38.2848 76.2422 38.0681C77.2088 37.8274 78.1995 37.4903 79.2144 37.057V39.8376C78.2237 40.2709 77.245 40.5839 76.2784 40.7765C75.3118 40.9931 74.164 41.1015 72.835 41.1015C70.9984 41.1015 69.3673 40.7283 67.9416 39.982C66.5401 39.2357 65.4406 38.1283 64.6431 36.6598C63.8699 35.1672 63.4832 33.3496 63.4832 31.207C63.4832 29.0885 63.8336 27.2709 64.5344 25.7542C65.2593 24.2376 66.2622 23.07 67.5429 22.2515C68.8478 21.4329 70.3581 21.0237 72.0738 21.0237ZM72.0375 23.6237C70.5151 23.6237 69.3069 24.1172 68.4128 25.1042C67.5429 26.0672 67.0233 27.4153 66.8542 29.1487H76.7496C76.7496 28.0413 76.5805 27.0783 76.2422 26.2598C75.9039 25.4413 75.3843 24.8033 74.6836 24.3459C74.0069 23.8644 73.1249 23.6237 72.0375 23.6237ZM97.6808 35.3959C97.6808 36.6477 97.3667 37.695 96.7384 38.5376C96.1101 39.3802 95.216 40.0181 94.0561 40.4515C92.896 40.8848 91.5186 41.1015 89.9238 41.1015C88.5705 41.1015 87.3986 40.9931 86.4078 40.7765C85.4412 40.5598 84.5834 40.2589 83.8343 39.8737V36.9848C84.6075 37.37 85.5379 37.7311 86.6253 38.0681C87.7369 38.3811 88.8605 38.5376 89.9963 38.5376C91.6153 38.5376 92.7873 38.2848 93.5124 37.7792C94.2374 37.2496 94.5998 36.5515 94.5998 35.6848C94.5998 35.2033 94.4669 34.77 94.2011 34.3848C93.9353 33.9996 93.452 33.6144 92.751 33.2292C92.0744 32.844 91.0958 32.4107 89.815 31.9292C88.5585 31.4478 87.4831 30.9663 86.589 30.4848C85.6949 30.0033 85.0063 29.4255 84.523 28.7515C84.0397 28.0774 83.798 27.2107 83.798 26.1515C83.798 24.5144 84.4625 23.2505 85.7916 22.3598C87.1448 21.469 88.9089 21.0237 91.0837 21.0237C92.2677 21.0237 93.3674 21.144 94.3823 21.3848C95.4214 21.6015 96.388 21.9144 97.2821 22.3237L96.1947 24.8515C95.6631 24.6107 95.0952 24.4061 94.4911 24.2376C93.9111 24.045 93.3191 23.9005 92.7148 23.8042C92.1107 23.6839 91.4945 23.6237 90.8662 23.6237C89.5613 23.6237 88.5585 23.8403 87.8577 24.2737C87.1811 24.6829 86.8428 25.2487 86.8428 25.9709C86.8428 26.5005 86.9998 26.9579 87.314 27.3431C87.6281 27.7042 88.1477 28.0653 88.8726 28.4265C89.6217 28.7635 90.6125 29.1727 91.8449 29.6542C93.0775 30.1116 94.1286 30.5811 94.9985 31.0626C95.8685 31.544 96.533 32.1339 96.9921 32.832C97.4513 33.5061 97.6808 34.3607 97.6808 35.3959ZM99.3305 21.3848H102.738L106.942 32.3987C107.184 33.0487 107.402 33.6746 107.595 34.2765C107.812 34.8783 108.006 35.4681 108.175 36.0459C108.344 36.5996 108.477 37.1413 108.574 37.6709H108.719C108.864 37.069 109.093 36.2866 109.407 35.3237C109.721 34.3366 110.048 33.3496 110.386 32.3626L114.337 21.3848H117.78L109.407 43.4126C108.948 44.6163 108.404 45.6635 107.776 46.5542C107.172 47.469 106.423 48.1672 105.529 48.6487C104.659 49.1542 103.596 49.407 102.339 49.407C101.759 49.407 101.252 49.3709 100.817 49.2987C100.382 49.2505 100.007 49.1903 99.693 49.1181V46.5903C99.9588 46.6385 100.273 46.6866 100.635 46.7348C101.022 46.7829 101.421 46.807 101.832 46.807C102.581 46.807 103.221 46.6626 103.753 46.3737C104.308 46.1089 104.78 45.7116 105.166 45.182C105.553 44.6765 105.879 44.0746 106.145 43.3765L107.16 40.8126L99.3305 21.3848ZM130.205 21.0237C132.524 21.0237 134.276 21.5894 135.46 22.7209C136.645 23.8283 137.237 25.6339 137.237 28.1376V40.7403H134.083V28.3542C134.083 26.7894 133.733 25.6218 133.032 24.8515C132.331 24.0811 131.232 23.6959 129.733 23.6959C127.583 23.6959 126.097 24.2978 125.275 25.5015C124.453 26.7052 124.043 28.4385 124.043 30.7015V40.7403H120.853V21.3848H123.426L123.898 24.0209H124.079C124.514 23.3468 125.045 22.7931 125.674 22.3598C126.326 21.9024 127.039 21.5653 127.812 21.3487C128.586 21.132 129.383 21.0237 130.205 21.0237ZM151.052 41.1015C149.337 41.1015 147.802 40.7524 146.449 40.0542C145.12 39.3561 144.069 38.2727 143.295 36.8042C142.546 35.3357 142.172 33.4579 142.172 31.1709C142.172 28.7876 142.57 26.8496 143.368 25.357C144.165 23.8644 145.241 22.769 146.594 22.0709C147.971 21.3728 149.53 21.0237 151.27 21.0237C152.261 21.0237 153.215 21.132 154.133 21.3487C155.052 21.5413 155.801 21.782 156.381 22.0709L155.402 24.707C154.822 24.4903 154.145 24.2857 153.372 24.0931C152.599 23.9005 151.874 23.8042 151.197 23.8042C149.892 23.8042 148.817 24.0811 147.971 24.6348C147.126 25.1885 146.497 26.007 146.086 27.0903C145.676 28.1737 145.47 29.5218 145.47 31.1348C145.47 32.6755 145.676 33.9876 146.086 35.0709C146.497 36.1542 147.113 36.9727 147.935 37.5265C148.757 38.0802 149.784 38.357 151.016 38.357C152.079 38.357 153.01 38.2487 153.807 38.032C154.629 37.8153 155.378 37.5505 156.054 37.2376V40.0542C155.402 40.3913 154.677 40.644 153.88 40.8126C153.106 41.0052 152.164 41.1015 151.052 41.1015Z" fill="#A60505"/>
<path d="M22.2501 27.6981C21.04 29.4481 19.5176 30.6926 17.683 31.4314L24.0848 42.5926H18.1124L9.05619 26.9981L13.7014 27.037C15.1067 27.037 16.3168 26.5314 17.3317 25.5203C18.3856 24.5092 18.8931 23.2648 18.8931 21.8259C18.8931 20.4259 18.3856 19.2203 17.3317 18.2092C16.3168 17.1981 15.1067 16.6926 13.7014 16.6926H3.27896L2.69344 16.1092L0 11.4814H13.7014C16.551 11.4814 19.0102 12.4926 21.04 14.5148C23.0699 16.5759 24.0848 18.987 24.0848 21.8259C24.0848 24.0037 23.4992 25.9481 22.2501 27.6981Z" fill="#A60505"/>
<path d="M113.057 11.1811C113.057 11.5984 112.952 11.9475 112.743 12.2283C112.534 12.5092 112.236 12.7219 111.849 12.8663C111.462 13.0107 111.003 13.083 110.472 13.083C110.021 13.083 109.63 13.0469 109.3 12.9746C108.977 12.9024 108.692 12.8021 108.442 12.6737V11.7107C108.699 11.8392 109.01 11.9595 109.372 12.0719C109.743 12.1762 110.117 12.2283 110.496 12.2283C111.036 12.2283 111.426 12.1441 111.668 11.9756C111.909 11.799 112.03 11.5663 112.03 11.2774C112.03 11.117 111.986 10.9725 111.897 10.8441C111.809 10.7157 111.647 10.5873 111.414 10.4589C111.188 10.3305 110.862 10.186 110.435 10.0256C110.016 9.8651 109.658 9.70455 109.36 9.54408C109.062 9.38362 108.832 9.191 108.671 8.96631C108.511 8.74161 108.43 8.45272 108.43 8.09964C108.43 7.55396 108.651 7.13267 109.094 6.83575C109.545 6.53883 110.133 6.39038 110.858 6.39038C111.253 6.39038 111.619 6.4305 111.958 6.51075C112.304 6.58297 112.626 6.6873 112.924 6.82371L112.562 7.66631C112.384 7.58606 112.196 7.51785 111.994 7.46168C111.801 7.39748 111.604 7.34933 111.402 7.31723C111.2 7.27711 110.995 7.25705 110.786 7.25705C110.351 7.25705 110.016 7.32927 109.783 7.47371C109.557 7.61013 109.445 7.79871 109.445 8.03945C109.445 8.216 109.497 8.36846 109.602 8.49686C109.707 8.61723 109.88 8.7376 110.121 8.85797C110.371 8.97031 110.701 9.10674 111.112 9.26723C111.523 9.41973 111.873 9.57621 112.163 9.73668C112.453 9.89714 112.674 10.0938 112.828 10.3265C112.981 10.5512 113.057 10.836 113.057 11.1811ZM117.075 6.40242C117.864 6.40242 118.448 6.57494 118.827 6.92001C119.205 7.26507 119.395 7.81476 119.395 8.56908V12.9626H118.622L118.416 12.0478H118.368C118.182 12.2805 117.989 12.4771 117.788 12.6376C117.595 12.7901 117.369 12.9024 117.111 12.9746C116.861 13.0469 116.556 13.083 116.193 13.083C115.806 13.083 115.456 13.0147 115.142 12.8783C114.835 12.742 114.594 12.5332 114.417 12.2524C114.239 11.9635 114.151 11.6024 114.151 11.1691C114.151 10.5271 114.405 10.0336 114.912 9.68853C115.42 9.33547 116.201 9.14285 117.256 9.11075L118.356 9.07464V8.68945C118.356 8.1518 118.239 7.77865 118.005 7.57001C117.771 7.36137 117.441 7.25705 117.015 7.25705C116.676 7.25705 116.354 7.3092 116.048 7.41353C115.741 7.50982 115.456 7.62217 115.19 7.75056L114.864 6.95612C115.146 6.80365 115.48 6.67526 115.867 6.57093C116.253 6.45859 116.656 6.40242 117.075 6.40242ZM117.389 9.84501C116.583 9.87714 116.024 10.0055 115.71 10.2302C115.403 10.4549 115.251 10.7719 115.251 11.1811C115.251 11.5422 115.359 11.807 115.577 11.9756C115.802 12.1441 116.088 12.2283 116.435 12.2283C116.982 12.2283 117.438 12.0799 117.8 11.783C118.162 11.4781 118.344 11.0126 118.344 10.3867V9.8089L117.389 9.84501ZM124.476 6.39038C125.273 6.39038 125.914 6.66723 126.397 7.22093C126.888 7.77464 127.134 8.6092 127.134 9.72464C127.134 10.4549 127.021 11.0728 126.796 11.5783C126.578 12.0758 126.268 12.4531 125.865 12.7098C125.47 12.9586 125.003 13.083 124.464 13.083C124.133 13.083 123.839 13.0388 123.582 12.9506C123.324 12.8623 123.102 12.7499 122.917 12.6135C122.74 12.4691 122.586 12.3126 122.458 12.1441H122.386C122.402 12.2805 122.417 12.4531 122.434 12.6617C122.45 12.8703 122.458 13.0508 122.458 13.2033V15.8515H121.395V6.51075H122.265L122.41 7.38945H122.458C122.586 7.20489 122.74 7.03637 122.917 6.8839C123.102 6.73143 123.32 6.61106 123.57 6.52279C123.827 6.43452 124.129 6.39038 124.476 6.39038ZM124.283 7.28112C123.848 7.28112 123.497 7.36538 123.232 7.5339C122.966 7.69439 122.772 7.93915 122.652 8.26816C122.531 8.59717 122.466 9.01445 122.458 9.52001V9.72464C122.458 10.2543 122.514 10.7036 122.627 11.0728C122.74 11.442 122.929 11.7228 123.195 11.9154C123.469 12.108 123.839 12.2043 124.307 12.2043C124.701 12.2043 125.023 12.0959 125.273 11.8793C125.531 11.6626 125.72 11.3697 125.841 11.0006C125.97 10.6234 126.035 10.1941 126.035 9.7126C126.035 8.97433 125.89 8.38452 125.6 7.94316C125.317 7.5018 124.878 7.28112 124.283 7.28112ZM131.909 6.39038C132.707 6.39038 133.347 6.66723 133.831 7.22093C134.322 7.77464 134.568 8.6092 134.568 9.72464C134.568 10.4549 134.455 11.0728 134.229 11.5783C134.012 12.0758 133.701 12.4531 133.299 12.7098C132.904 12.9586 132.437 13.083 131.897 13.083C131.567 13.083 131.273 13.0388 131.015 12.9506C130.758 12.8623 130.536 12.7499 130.351 12.6135C130.173 12.4691 130.021 12.3126 129.892 12.1441H129.819C129.835 12.2805 129.852 12.4531 129.868 12.6617C129.883 12.8703 129.892 13.0508 129.892 13.2033V15.8515H128.828V6.51075H129.698L129.843 7.38945H129.892C130.021 7.20489 130.173 7.03637 130.351 6.8839C130.536 6.73143 130.753 6.61106 131.003 6.52279C131.261 6.43452 131.563 6.39038 131.909 6.39038ZM131.716 7.28112C131.281 7.28112 130.931 7.36538 130.665 7.5339C130.399 7.69439 130.206 7.93915 130.085 8.26816C129.964 8.59717 129.9 9.01445 129.892 9.52001V9.72464C129.892 10.2543 129.948 10.7036 130.061 11.0728C130.173 11.442 130.363 11.7228 130.629 11.9154C130.903 12.108 131.273 12.2043 131.74 12.2043C132.135 12.2043 132.457 12.0959 132.707 11.8793C132.964 11.6626 133.154 11.3697 133.275 11.0006C133.404 10.6234 133.468 10.1941 133.468 9.7126C133.468 8.97433 133.323 8.38452 133.033 7.94316C132.751 7.5018 132.312 7.28112 131.716 7.28112ZM137.325 6.49871C137.325 6.65118 137.317 6.80767 137.301 6.96816C137.293 7.12865 137.28 7.27309 137.265 7.40149H137.337C137.474 7.1768 137.648 6.99223 137.857 6.84779C138.066 6.70334 138.3 6.59501 138.557 6.52279C138.815 6.44254 139.081 6.40242 139.355 6.40242C139.878 6.40242 140.313 6.48668 140.66 6.65519C141.014 6.81569 141.28 7.06846 141.457 7.41353C141.635 7.75859 141.723 8.20797 141.723 8.76168V12.9626H140.672V8.8339C140.672 8.3123 140.555 7.92309 140.322 7.66631C140.088 7.40952 139.721 7.28112 139.222 7.28112C138.739 7.28112 138.36 7.37341 138.086 7.55797C137.812 7.73452 137.615 7.99933 137.494 8.35242C137.382 8.69748 137.325 9.12279 137.325 9.62834V12.9626H136.262V3.81445H137.325V6.49871ZM144.794 6.51075V12.9626H143.731V6.51075H144.794ZM144.274 4.09131C144.435 4.09131 144.576 4.14748 144.697 4.25982C144.826 4.36415 144.891 4.53267 144.891 4.76538C144.891 4.99007 144.826 5.15859 144.697 5.27093C144.576 5.38328 144.435 5.43945 144.274 5.43945C144.097 5.43945 143.948 5.38328 143.827 5.27093C143.706 5.15859 143.646 4.99007 143.646 4.76538C143.646 4.53267 143.706 4.36415 143.827 4.25982C143.948 4.14748 144.097 4.09131 144.274 4.09131ZM149.867 6.39038C149.987 6.39038 150.116 6.39841 150.253 6.41445C150.398 6.42248 150.523 6.43853 150.628 6.4626L150.495 7.4376C150.39 7.41353 150.273 7.39346 150.144 7.37742C150.024 7.36137 149.907 7.35334 149.794 7.35334C149.544 7.35334 149.306 7.4055 149.081 7.50982C148.855 7.61415 148.654 7.7626 148.477 7.95519C148.3 8.13976 148.158 8.36445 148.054 8.62927C147.958 8.89408 147.909 9.191 147.909 9.52001V12.9626H146.846V6.51075H147.716L147.837 7.69038H147.885C148.022 7.44964 148.187 7.23297 148.38 7.04038C148.574 6.83976 148.795 6.68328 149.045 6.57093C149.294 6.45056 149.568 6.39038 149.867 6.39038ZM154.102 6.39038C154.658 6.39038 155.133 6.51075 155.528 6.75149C155.93 6.99223 156.236 7.33328 156.446 7.77464C156.663 8.20797 156.772 8.71754 156.772 9.30334V9.94131H152.338C152.354 10.6716 152.539 11.2293 152.894 11.6145C153.256 11.9916 153.759 12.1802 154.404 12.1802C154.815 12.1802 155.177 12.1441 155.491 12.0719C155.813 11.9916 156.144 11.8793 156.482 11.7348V12.6617C156.151 12.8061 155.825 12.9105 155.503 12.9746C155.181 13.0469 154.798 13.083 154.356 13.083C153.743 13.083 153.199 12.9586 152.725 12.7098C152.257 12.461 151.891 12.092 151.625 11.6024C151.367 11.1049 151.238 10.499 151.238 9.78482C151.238 9.07865 151.355 8.47279 151.589 7.96723C151.83 7.46168 152.164 7.07248 152.592 6.79964C153.027 6.5268 153.529 6.39038 154.102 6.39038ZM154.09 7.25705C153.582 7.25705 153.179 7.42156 152.882 7.75056C152.592 8.07156 152.418 8.52093 152.362 9.09871H155.661C155.661 8.72957 155.604 8.40859 155.491 8.13575C155.378 7.86291 155.205 7.65026 154.972 7.49779C154.746 7.3373 154.452 7.25705 154.09 7.25705Z" fill="#A60505"/>
</svg>
