<svg width="81" height="94" viewBox="0 0 81 94" fill="none" xmlns="http://www.w3.org/2000/svg">
<path fill-rule="evenodd" clip-rule="evenodd" d="M69.338 28.09V13.043H74.0958L64.838 0L55.5841 13.043H60.3419V19.8946C64.1583 21.5626 67.3185 24.4455 69.338 28.09ZM58.842 67.438L73.686 58.8677C78.7954 55.9185 83.3735 62.3325 77.7798 65.9615L49.7408 84.1645C47.5767 85.4145 45.7369 85.52 43.1549 84.8286L30.6279 81.4731C29.3467 81.1137 27.9756 81.2934 26.831 81.9652L23.7177 83.8325L12.5457 64.4805L27.0417 56.1133C28.1901 55.4492 29.5534 55.2656 30.8347 55.6093L54.2917 61.8945C56.5261 62.5 58.0534 64.5507 57.9987 66.8672C57.4128 66.7813 56.8542 67.1485 56.6979 67.7227C56.1472 69.7618 54.0495 70.9727 52.0026 70.4297L40.2756 67.2891C39.6506 67.1211 39.01 67.4922 38.842 68.1172C38.674 68.7422 39.0452 69.3828 39.6702 69.5508L51.3972 72.6914C54.6902 73.5625 58.0691 71.6133 58.9597 68.3242C59.0417 68.0274 58.9983 67.7075 58.842 67.438ZM6.18204 66.4732C6.86563 66.4732 7.47894 66.8833 7.74064 67.5123C7.99845 68.1412 7.85392 68.8678 7.37345 69.3482C6.89298 69.8325 6.16645 69.9771 5.53755 69.7153C4.90864 69.4536 4.49845 68.8404 4.49845 68.1568C4.49845 67.7114 4.67423 67.2817 4.99064 66.9653C5.30705 66.6489 5.73673 66.4732 6.18204 66.4732ZM0.939838 65.3248C0.0413985 65.8443 -0.267162 66.9928 0.252338 67.8912L14.6393 92.8092V92.8131C15.1589 93.7076 16.3073 94.0162 17.2057 93.5006L22.6159 90.3756C23.5144 89.856 23.8229 88.7076 23.3034 87.8092L8.92044 62.8872C8.397 61.9926 7.24854 61.6841 6.35014 62.1997L0.939838 65.3248ZM6.18204 64.1295C4.55314 64.1295 3.08434 65.1099 2.45934 66.6178C1.83825 68.1217 2.182 69.8561 3.33434 71.0045C4.48664 72.1568 6.21714 72.5045 7.72494 71.8795C9.22884 71.2545 10.2093 69.7857 10.2093 68.1568C10.2093 65.9341 8.40854 64.1295 6.18204 64.1295ZM38.58 4.69946C37.3027 4.70337 36.2714 5.73466 36.2636 7.01196V18.235C36.2754 19.5045 37.3105 20.5241 38.58 20.5241C39.8456 20.5241 40.8808 19.5046 40.8925 18.235V7.01196C40.8886 5.73466 39.8534 4.70336 38.58 4.69946ZM47.83 0.000260115C46.5527 0.00416611 45.5214 1.03546 45.5175 2.31276V7.92216C45.5097 8.53935 45.7519 9.13306 46.1855 9.57446C46.6191 10.012 47.2128 10.258 47.83 10.258C48.4472 10.258 49.037 10.012 49.4706 9.57446C49.9042 9.13305 50.1464 8.53926 50.1425 7.92216V2.31276C50.1386 1.03546 49.1034 0.00416011 47.83 0.000260115ZM52.8027 20.6723C57.1855 20.6723 61.3925 22.4106 64.4937 25.5121C67.5953 28.6137 69.3375 32.8207 69.3375 37.2071C69.3375 41.5899 67.5953 45.7969 64.4937 48.8981C61.3921 51.9997 57.1851 53.7419 52.8027 53.7419C48.416 53.7419 44.2089 51.9997 41.1077 48.8981C38.0061 45.7965 36.2639 41.5895 36.2639 37.2071C36.2639 32.8204 38.0061 28.6133 41.1077 25.5121C44.2093 22.4105 48.4163 20.6683 52.8027 20.6683V20.6723ZM56.6816 35.0513C56.6816 33.4771 55.4589 32.2818 53.9746 31.8794V30.7349C53.9746 30.0864 53.4473 29.563 52.8027 29.563C52.1543 29.563 51.6308 30.0864 51.6308 30.7349V31.8755C50.1464 32.2778 48.9238 33.4771 48.9238 35.0474C48.9238 37.6451 50.7519 38.0005 52.584 38.3521C53.463 38.52 54.3379 38.6919 54.3379 39.3599L54.334 39.3638C54.3184 39.6099 54.1895 39.8325 53.9864 39.9731C53.0059 40.7544 51.2637 40.2075 51.2637 39.3638H51.2676C51.2676 38.7153 50.7402 38.1919 50.0957 38.1919C49.4472 38.1919 48.9238 38.7153 48.9238 39.3638C48.9238 40.938 50.1465 42.1333 51.6308 42.5357V43.6763C51.6308 44.3247 52.1542 44.8482 52.8027 44.8482C53.4472 44.8482 53.9746 44.3247 53.9746 43.6763V42.5357C55.459 42.1333 56.6816 40.9341 56.6816 39.3638C56.6816 36.7661 54.8535 36.4107 53.0214 36.0591C52.1425 35.8911 51.2675 35.7192 51.2675 35.0513V35.0474C51.2831 34.8052 51.412 34.5786 51.6151 34.438C52.5956 33.6567 54.3378 34.2036 54.3378 35.0474H54.3339C54.3339 35.6958 54.8613 36.2193 55.5058 36.2193C56.1543 36.2193 56.6777 35.6958 56.6777 35.0474L56.6816 35.0513ZM52.8027 24.3013C58.0215 24.3013 62.7285 27.4458 64.7247 32.2661C66.7208 37.0903 65.6193 42.6411 61.9278 46.3321C58.2364 50.0235 52.6856 51.1251 47.8618 49.129C43.0415 47.1329 39.897 42.4259 39.897 37.207C39.897 30.0781 45.674 24.3013 52.8027 24.3013ZM60.2715 29.7388C63.291 32.7583 64.1934 37.3013 62.5606 41.2468C60.9239 45.196 57.0723 47.7702 52.8028 47.7702C48.5294 47.7702 44.6778 45.196 43.0411 41.2468C41.4083 37.3015 42.3107 32.7585 45.3341 29.7388C49.4591 25.6138 56.1455 25.6138 60.2715 29.7388Z" fill="#C00808"/>
</svg>
