<svg width="41" height="40" viewBox="0 0 41 40" fill="none" xmlns="http://www.w3.org/2000/svg">
<path d="M39.375 36.7969C40.1562 37.5781 40.1562 38.75 39.375 39.4531C39.0625 39.8438 38.5938 40 38.125 40C37.5781 40 37.1094 39.8438 36.7188 39.4531L26.25 28.9844C23.4375 31.25 19.9219 32.5 16.1719 32.5C7.26562 32.5 0 25.2344 0 16.25C0 7.34375 7.1875 0 16.1719 0C25.0781 0 32.4219 7.34375 32.4219 16.25C32.4219 20.0781 31.1719 23.5938 28.9062 26.3281L39.375 36.7969ZM3.75 16.25C3.75 23.2031 9.29688 28.75 16.25 28.75C23.125 28.75 28.75 23.2031 28.75 16.25C28.75 9.375 23.125 3.75 16.25 3.75C9.29688 3.75 3.75 9.375 3.75 16.25Z" fill="white"/>
</svg>
