<svg width="945" height="192" viewBox="0 0 945 192" fill="none" xmlns="http://www.w3.org/2000/svg">
<path d="M153.242 84.8494C155.049 84.8494 156.977 84.9681 159.025 85.2054C161.194 85.3241 163.062 85.5615 164.629 85.9176L162.64 100.339C161.074 99.9831 159.327 99.6863 157.399 99.4489C155.591 99.2115 153.844 99.0928 152.157 99.0928C148.422 99.0928 144.867 99.8644 141.493 101.407C138.119 102.95 135.107 105.146 132.456 107.995C129.805 110.725 127.696 114.048 126.129 117.965C124.683 121.882 123.96 126.274 123.96 131.141V182.061H108.055V86.6298H121.068L122.876 104.078H123.599C125.647 100.517 128.118 97.3124 131.01 94.4637C133.902 91.4963 137.215 89.1817 140.951 87.52C144.686 85.7396 148.783 84.8494 153.242 84.8494ZM215.88 85.0274C227.689 85.0274 236.425 87.5794 242.089 92.6833C247.752 97.7872 250.584 105.918 250.584 117.075V182.061H239.016L235.943 168.53H235.22C232.449 171.972 229.557 174.88 226.544 177.254C223.652 179.509 220.278 181.171 216.423 182.239C212.687 183.307 208.108 183.842 202.686 183.842C196.902 183.842 191.66 182.833 186.961 180.815C182.382 178.797 178.767 175.711 176.116 171.557C173.465 167.283 172.139 161.942 172.139 155.533C172.139 146.037 175.935 138.737 183.526 133.633C191.118 128.411 202.806 125.562 218.591 125.087L235.04 124.553V118.856C235.04 110.903 233.292 105.384 229.798 102.298C226.303 99.2115 221.363 97.6685 214.977 97.6685C209.916 97.6685 205.096 98.44 200.517 99.983C195.938 101.407 191.66 103.069 187.684 104.968L182.803 93.2174C187.021 90.9622 192.022 89.0631 197.806 87.52C203.589 85.8583 209.614 85.0274 215.88 85.0274ZM220.58 135.948C208.53 136.423 200.155 138.322 195.456 141.645C190.877 144.969 188.587 149.657 188.587 155.711C188.587 161.052 190.214 164.969 193.468 167.462C196.842 169.954 201.119 171.2 206.301 171.2C214.495 171.2 221.303 169.005 226.725 164.613C232.148 160.102 234.859 153.218 234.859 143.96V135.414L220.58 135.948ZM319.367 183.842C310.812 183.842 303.16 182.12 296.412 178.678C289.785 175.236 284.543 169.895 280.687 162.654C276.952 155.414 275.084 146.156 275.084 134.88C275.084 123.129 277.072 113.574 281.049 106.215C285.025 98.8554 290.387 93.4548 297.135 90.0126C304.003 86.5704 311.776 84.8494 320.451 84.8494C325.392 84.8494 330.152 85.3835 334.731 86.4517C339.309 87.4013 343.045 88.5883 345.937 90.0126L341.057 103.01C338.165 101.942 334.791 100.933 330.935 99.983C327.079 99.0335 323.464 98.5587 320.09 98.5587C313.583 98.5587 308.221 99.9237 304.003 102.654C299.786 105.384 296.653 109.419 294.605 114.761C292.556 120.102 291.532 126.749 291.532 134.702C291.532 142.298 292.556 148.767 294.605 154.108C296.653 159.45 299.726 163.485 303.823 166.215C307.92 168.945 313.041 170.31 319.186 170.31C324.488 170.31 329.127 169.776 333.104 168.708C337.201 167.64 340.936 166.334 344.31 164.791V178.678C341.057 180.34 337.442 181.586 333.465 182.417C329.609 183.367 324.91 183.842 319.367 183.842ZM383.074 117.431C383.074 119.33 382.954 121.823 382.713 124.909C382.592 127.995 382.472 130.666 382.351 132.921H383.074C383.797 131.972 384.882 130.607 386.328 128.826C387.774 127.046 389.22 125.265 390.666 123.485C392.232 121.586 393.558 120.043 394.642 118.856L425.55 86.6298H444.167L404.945 127.402L446.878 182.061H427.719L394.1 137.55L383.074 146.987V182.061H367.349V46.748H383.074V117.431ZM510.533 84.8494C522.101 84.8494 530.837 87.6387 536.741 93.2174C542.646 98.6774 545.598 107.58 545.598 119.924V182.061H529.873V120.992C529.873 113.277 528.126 107.52 524.631 103.722C521.137 99.9237 515.654 98.0246 508.183 98.0246C497.459 98.0246 490.048 100.992 485.951 106.927C481.854 112.862 479.806 121.408 479.806 132.565V182.061H463.9V86.6298H476.733L479.083 99.627H479.987C482.156 96.3035 484.807 93.5735 487.94 91.437C491.193 89.1817 494.748 87.52 498.604 86.4517C502.46 85.3835 506.436 84.8494 510.533 84.8494ZM613.049 84.8494C621.364 84.8494 628.473 86.6298 634.377 90.1907C640.402 93.7515 644.981 98.7961 648.114 105.324C651.368 111.734 652.994 119.271 652.994 127.936V137.372H586.66C586.901 148.173 589.673 156.423 594.974 162.12C600.397 167.699 607.928 170.488 617.568 170.488C623.713 170.488 629.136 169.954 633.835 168.886C638.655 167.699 643.596 166.037 648.656 163.901V177.61C643.716 179.747 638.836 181.29 634.016 182.239C629.196 183.307 623.472 183.842 616.845 183.842C607.687 183.842 599.553 182.002 592.444 178.322C585.455 174.643 579.972 169.183 575.996 161.942C572.14 154.583 570.212 145.622 570.212 135.058C570.212 124.612 571.959 115.651 575.454 108.173C579.069 100.695 584.069 94.9385 590.456 90.9028C596.963 86.8672 604.494 84.8494 613.049 84.8494ZM612.868 97.6685C605.277 97.6685 599.252 100.102 594.794 104.968C590.456 109.716 587.865 116.363 587.022 124.909H636.366C636.366 119.449 635.522 114.701 633.835 110.666C632.148 106.63 629.557 103.485 626.063 101.229C622.689 98.8554 618.291 97.6685 612.868 97.6685ZM697.083 133.277L663.645 86.6298H681.719L706.663 122.595L731.425 86.6298H749.319L715.881 133.277L751.126 182.061H733.052L706.663 143.96L679.912 182.061H662.018L697.083 133.277ZM850.769 86.6298V182.061H837.755L835.406 169.42H834.683C832.634 172.743 829.983 175.473 826.73 177.61C823.476 179.747 819.922 181.29 816.066 182.239C812.21 183.307 808.173 183.842 803.956 183.842C796.244 183.842 789.737 182.655 784.435 180.281C779.253 177.788 775.337 173.99 772.686 168.886C770.035 163.782 768.71 157.194 768.71 149.123V86.6298H784.796V148.055C784.796 155.651 786.544 161.349 790.038 165.147C793.532 168.945 798.955 170.844 806.305 170.844C813.535 170.844 819.199 169.539 823.296 166.927C827.513 164.197 830.465 160.28 832.152 155.177C833.96 149.954 834.863 143.663 834.863 136.304V86.6298H850.769ZM944.61 155.711C944.61 161.883 943.043 167.046 939.91 171.2C936.777 175.355 932.319 178.5 926.535 180.637C920.751 182.773 913.883 183.842 905.93 183.842C899.182 183.842 893.338 183.307 888.397 182.239C883.577 181.171 879.3 179.687 875.564 177.788V163.545C879.42 165.444 884.059 167.224 889.482 168.886C895.025 170.429 900.628 171.2 906.291 171.2C914.364 171.2 920.209 169.954 923.824 167.462C927.439 164.85 929.246 161.408 929.246 157.135C929.246 154.761 928.583 152.625 927.258 150.725C925.932 148.826 923.522 146.927 920.028 145.028C916.654 143.129 911.774 140.992 905.387 138.618C899.121 136.245 893.759 133.871 889.301 131.497C884.842 129.123 881.408 126.274 878.998 122.951C876.588 119.627 875.383 115.354 875.383 110.132C875.383 102.06 878.697 95.8287 885.324 91.437C892.072 87.0452 900.869 84.8494 911.714 84.8494C917.618 84.8494 923.101 85.4428 928.162 86.6298C933.343 87.6981 938.163 89.2411 942.621 91.2589L937.199 103.722C934.548 102.535 931.716 101.526 928.704 100.695C925.812 99.7457 922.86 99.0335 919.847 98.5587C916.835 97.9652 913.762 97.6685 910.629 97.6685C904.122 97.6685 899.121 98.7367 895.627 100.873C892.253 102.891 890.566 105.68 890.566 109.241C890.566 111.853 891.349 114.108 892.916 116.007C894.482 117.787 897.073 119.568 900.688 121.348C904.423 123.01 909.364 125.028 915.509 127.402C921.655 129.657 926.896 131.972 931.234 134.345C935.572 136.719 938.886 139.627 941.175 143.07C943.465 146.393 944.61 150.607 944.61 155.711Z" fill="white"/>
<path d="M0 37.7998H77.8605V63.4928H26.0833V191.191H0V63.4928V37.7998Z" fill="white"/>
<path d="M726.661 36.3209C726.661 38.3784 726.138 40.0995 725.095 41.4841C724.052 42.8688 722.564 43.9174 720.636 44.6296C718.708 45.3417 716.419 45.6978 713.768 45.6978C711.52 45.6978 709.569 45.5198 707.924 45.1637C706.316 44.8076 704.893 44.3132 703.646 43.68V38.9322C704.93 39.5654 706.478 40.1588 708.285 40.7126C710.135 41.2271 712.002 41.4841 713.889 41.4841C716.581 41.4841 718.528 41.0687 719.733 40.2378C720.938 39.3672 721.54 38.22 721.54 36.7957C721.54 36.0045 721.318 35.2923 720.877 34.6591C720.437 34.0259 719.631 33.3932 718.467 32.76C717.341 32.1268 715.715 31.4146 713.587 30.6235C711.497 29.8323 709.713 29.0407 708.225 28.2496C706.737 27.4584 705.593 26.5087 704.791 25.4009C703.989 24.293 703.586 22.8687 703.586 21.1278C703.586 18.4374 704.689 16.3602 706.9 14.8963C709.147 13.4324 712.081 12.7004 715.696 12.7004C717.666 12.7004 719.492 12.8982 721.179 13.2939C722.907 13.65 724.511 14.1644 725.999 14.837L724.191 18.9913C723.306 18.5956 722.365 18.2594 721.359 17.9824C720.395 17.6659 719.413 17.4285 718.407 17.2702C717.402 17.0724 716.377 16.9735 715.335 16.9735C713.166 16.9735 711.497 17.3296 710.334 18.0417C709.208 18.7143 708.647 19.6441 708.647 20.8311C708.647 21.7015 708.906 22.4532 709.43 23.0863C709.954 23.6798 710.816 24.2733 712.021 24.8667C713.268 25.4206 714.913 26.0933 716.961 26.8846C719.01 27.6365 720.757 28.408 722.203 29.1991C723.649 29.9903 724.752 30.9599 725.517 32.1072C726.281 33.2152 726.661 34.6194 726.661 36.3209ZM746.697 12.7598C750.631 12.7598 753.542 13.6104 755.433 15.3117C757.319 17.0131 758.264 19.7232 758.264 23.4424V45.1043H754.408L753.384 40.5939H753.143C752.216 41.7412 751.252 42.7108 750.251 43.502C749.287 44.2539 748.161 44.8076 746.877 45.1637C745.631 45.5198 744.106 45.6978 742.298 45.6978C740.37 45.6978 738.623 45.3614 737.057 44.6889C735.527 44.0165 734.322 42.9875 733.442 41.6028C732.557 40.1785 732.116 38.398 732.116 36.2615C732.116 33.0965 733.381 30.6632 735.912 28.9617C738.442 27.221 742.335 26.2713 747.6 26.113L753.083 25.935V24.0359C753.083 21.385 752.499 19.5452 751.336 18.5165C750.168 17.4878 748.523 16.9735 746.395 16.9735C744.708 16.9735 743.1 17.2306 741.575 17.745C740.046 18.2198 738.623 18.7737 737.298 19.4067L735.671 15.4898C737.075 14.738 738.744 14.105 740.672 13.5907C742.6 13.0368 744.606 12.7598 746.697 12.7598ZM748.263 29.7333C744.245 29.8917 741.455 30.5244 739.888 31.6324C738.359 32.7404 737.599 34.303 737.599 36.3209C737.599 38.1013 738.141 39.407 739.226 40.2378C740.347 41.0687 741.775 41.4841 743.503 41.4841C746.233 41.4841 748.504 40.7523 750.311 39.2883C752.119 37.7849 753.023 35.49 753.023 32.4039V29.5552L748.263 29.7333ZM783.601 12.7004C787.578 12.7004 790.771 14.0654 793.181 16.7954C795.628 19.5254 796.856 23.6402 796.856 29.1398C796.856 32.7404 796.291 35.7867 795.169 38.2793C794.085 40.7322 792.537 42.5921 790.53 43.858C788.56 45.0847 786.229 45.6978 783.541 45.6978C781.891 45.6978 780.427 45.4801 779.143 45.045C777.855 44.6099 776.752 44.0557 775.829 43.3833C774.944 42.6711 774.179 41.8996 773.54 41.0687H773.178C773.257 41.7412 773.336 42.5921 773.419 43.6207C773.498 44.6492 773.54 45.5394 773.54 46.2913V59.3478H768.238V13.2939H772.576L773.299 17.6263H773.54C774.179 16.7163 774.944 15.8855 775.829 15.1337C776.752 14.3819 777.836 13.7885 779.083 13.3533C780.367 12.9181 781.873 12.7004 783.601 12.7004ZM782.637 17.0922C780.469 17.0922 778.721 17.5076 777.396 18.3385C776.07 19.1298 775.106 20.3365 774.504 21.9587C773.901 23.5809 773.577 25.6383 773.54 28.1309V29.1398C773.54 31.7511 773.818 33.9666 774.383 35.7867C774.944 37.6069 775.89 38.9915 777.215 39.9411C778.578 40.8907 780.427 41.3654 782.758 41.3654C784.723 41.3654 786.331 40.8313 787.578 39.763C788.862 38.6948 789.807 37.2508 790.41 35.4307C791.049 33.5712 791.374 31.4543 791.374 29.0804C791.374 25.4404 790.651 22.5324 789.205 20.3563C787.796 18.1802 785.608 17.0922 782.637 17.0922ZM820.669 12.7004C824.645 12.7004 827.838 14.0654 830.248 16.7954C832.7 19.5254 833.923 23.6402 833.923 29.1398C833.923 32.7404 833.363 35.7867 832.236 38.2793C831.152 40.7322 829.604 42.5921 827.597 43.858C825.628 45.0847 823.301 45.6978 820.608 45.6978C818.963 45.6978 817.494 45.4801 816.21 45.045C814.926 44.6099 813.819 44.0557 812.896 43.3833C812.011 42.6711 811.251 41.8996 810.607 41.0687H810.246C810.324 41.7412 810.408 42.5921 810.487 43.6207C810.565 44.6492 810.607 45.5394 810.607 46.2913V59.3478H805.305V13.2939H809.643L810.366 17.6263H810.607C811.251 16.7163 812.011 15.8855 812.896 15.1337C813.819 14.3819 814.903 13.7885 816.15 13.3533C817.434 12.9181 818.94 12.7004 820.669 12.7004ZM819.705 17.0922C817.536 17.0922 815.788 17.5076 814.463 18.3385C813.137 19.1298 812.173 20.3365 811.571 21.9587C810.968 23.5809 810.649 25.6383 810.607 28.1309V29.1398C810.607 31.7511 810.89 33.9666 811.45 35.7867C812.011 37.6069 812.957 38.9915 814.282 39.9411C815.649 40.8907 817.494 41.3654 819.825 41.3654C821.795 41.3654 823.398 40.8313 824.645 39.763C825.929 38.6948 826.874 37.2508 827.477 35.4307C828.121 33.5712 828.441 31.4543 828.441 29.0804C828.441 25.4404 827.718 22.5324 826.272 20.3563C824.867 18.1802 822.675 17.0922 819.705 17.0922ZM847.674 13.2346C847.674 13.9863 847.632 14.7578 847.554 15.5491C847.512 16.3404 847.452 17.0526 847.373 17.6857H847.734C848.416 16.5778 849.282 15.6678 850.325 14.9557C851.368 14.2435 852.536 13.7093 853.82 13.3533C855.103 12.9576 856.429 12.7598 857.796 12.7598C860.405 12.7598 862.574 13.1752 864.303 14.0061C866.069 14.7974 867.394 16.0437 868.279 17.745C869.165 19.4463 869.605 21.662 869.605 24.392V45.1043H864.363V24.748C864.363 22.1763 863.779 20.2574 862.616 18.9913C861.453 17.7252 859.622 17.0922 857.133 17.0922C854.723 17.0922 852.837 17.5472 851.47 18.4572C850.103 19.3276 849.12 20.6333 848.518 22.3741C847.957 24.0755 847.674 26.1724 847.674 28.665V45.1043H842.372V0H847.674V13.2346ZM884.917 13.2939V45.1043H879.615V13.2939H884.917ZM882.327 1.365C883.128 1.365 883.833 1.64197 884.435 2.19587C885.08 2.71023 885.399 3.5411 885.399 4.68848C885.399 5.79632 885.08 6.62719 884.435 7.18109C883.833 7.73498 883.128 8.01196 882.327 8.01196C881.441 8.01196 880.7 7.73498 880.097 7.18109C879.495 6.62719 879.194 5.79632 879.194 4.68848C879.194 3.5411 879.495 2.71023 880.097 2.19587C880.7 1.64197 881.441 1.365 882.327 1.365ZM910.213 12.7004C910.815 12.7004 911.455 12.74 912.141 12.8191C912.864 12.8587 913.485 12.9378 914.008 13.0565L913.346 17.8637C912.822 17.745 912.238 17.6461 911.599 17.567C910.996 17.4878 910.412 17.4483 909.851 17.4483C908.605 17.4483 907.418 17.7054 906.297 18.2198C905.17 18.7341 904.165 19.4661 903.284 20.4157C902.399 21.3256 901.694 22.4335 901.175 23.7391C900.693 25.0448 900.452 26.5087 900.452 28.1309V45.1043H895.15V13.2939H899.488L900.091 19.11H900.332C901.013 17.923 901.838 16.8548 902.802 15.9052C903.766 14.9161 904.869 14.1446 906.116 13.5907C907.358 12.9972 908.725 12.7004 910.213 12.7004ZM931.332 12.7004C934.104 12.7004 936.472 13.2939 938.442 14.4809C940.449 15.6678 941.973 17.3493 943.021 19.5254C944.105 21.662 944.647 24.1743 944.647 27.0626V30.208H922.536C922.615 33.8086 923.537 36.5583 925.307 38.4574C927.115 40.3168 929.622 41.2467 932.839 41.2467C934.887 41.2467 936.695 41.0687 938.261 40.7126C939.865 40.3168 941.515 39.763 943.202 39.0509V43.6207C941.552 44.3328 939.925 44.8473 938.321 45.1637C936.713 45.5198 934.804 45.6978 932.598 45.6978C929.543 45.6978 926.832 45.0847 924.464 43.858C922.133 42.6314 920.307 40.8117 918.981 38.398C917.693 35.9452 917.053 32.9577 917.053 29.4365C917.053 25.9548 917.633 22.9676 918.801 20.475C920.006 17.9824 921.669 16.0635 923.801 14.7183C925.97 13.373 928.478 12.7004 931.332 12.7004ZM931.272 16.9735C928.742 16.9735 926.73 17.7846 925.247 19.4067C923.801 20.9894 922.935 23.205 922.657 26.0537H939.105C939.105 24.2337 938.822 22.6511 938.261 21.3059C937.696 19.9606 936.834 18.9122 935.67 18.1604C934.544 17.3691 933.08 16.9735 931.272 16.9735Z" fill="white"/>
</svg>
