<svg width="40" height="36" viewBox="0 0 40 36" fill="none" xmlns="http://www.w3.org/2000/svg">
<path d="M7.5 13C8.82812 13 10 14.1719 10 15.5V32.8438C10 34.1719 8.82812 35.2656 7.5 35.2656H2.5C1.09375 35.2656 0 34.1719 0 32.8438V15.4219C0 14.0938 1.09375 13 2.5 13H7.5ZM40 15.7344C40 17.6094 38.9844 19.1719 37.5781 20.1094C37.6562 20.5781 37.7344 20.9688 37.7344 21.3594C37.7344 23.1562 36.7969 24.7188 35.4688 25.6562C35.4688 25.8906 35.4688 26.125 35.4688 26.3594C35.4688 28.1562 34.6094 29.7188 33.2031 30.6562C33.0469 33.3906 30.7812 35.5 28.0469 35.5H23.9062C21.0938 35.5 18.3594 34.6406 16.0938 32.9219L13.2031 30.8125C12.7344 30.4219 12.4219 29.875 12.4219 29.25C12.4219 28.3125 13.2812 27.375 14.375 27.375C14.7656 27.375 15.1562 27.5312 15.4688 27.7656L18.3594 29.9531C19.9219 31.125 21.875 31.8281 23.9062 31.8281H28.0469C28.8281 31.8281 29.5312 31.125 29.5312 30.3438C29.5312 30.0312 29.375 29.9531 29.375 29.5625C29.375 27.4531 31.7188 28.1562 31.7188 26.3594C31.7188 25.6562 31.25 25.5 31.25 24.6406C31.25 22.2969 33.9844 23.3125 33.9844 21.3594C33.9844 20.3438 33.0469 20.3438 33.0469 19.0938C33.0469 18.1562 33.8281 17.2969 34.8438 17.2188C35.625 17.2188 36.25 16.5156 36.25 15.7344C36.25 14.9531 35.5469 14.3281 34.6875 14.25H23.9844C22.9688 14.25 22.1094 13.5469 22.1094 12.4531C22.1094 12.1406 22.1875 11.8281 22.3438 11.5156C23.75 9.01562 24.375 6.51562 24.375 5.89062C24.375 5.26562 23.9062 4.32812 22.5781 4.32812C20 4.32812 21.4844 9.09375 15.4688 13.8594C15.1562 14.1719 14.7656 14.25 14.375 14.25C13.2812 14.25 12.5 13.3906 12.5 12.375C12.5 10.2656 14.6875 11.4375 17.1875 5.10938C17.9688 3.07812 18.9844 0.578125 22.5781 0.578125C26.0156 0.578125 28.125 3.23438 28.125 5.89062C28.125 6.90625 27.6562 8.625 26.9531 10.5781H34.7656C37.5781 10.5781 40 12.9219 40 15.7344Z" fill="white"/>
</svg>
