<svg width="80" height="93" viewBox="0 0 80 93" fill="none" xmlns="http://www.w3.org/2000/svg">
<path fill-rule="evenodd" clip-rule="evenodd" d="M0 11.694C11.092 10.811 20.754 5.962 28.057 0.75H51.307C58.61 5.962 68.271 10.811 79.364 11.693V46.363C79.364 68.734 56.653 87.532 39.682 92.079C22.711 87.532 0 68.734 0 46.364V11.694ZM25.07 42.611L33.287 53.013C34.078 54.014 35.531 54.185 36.532 53.394C36.603 53.338 36.671 53.278 36.734 53.215L36.741 53.222L54.122 35.84C55.028 34.934 55.028 33.465 54.122 32.559C53.216 31.653 51.747 31.653 50.841 32.559L35.297 48.103L28.696 39.747C27.905 38.746 26.452 38.575 25.451 39.366C24.449 40.157 24.279 41.609 25.07 42.611ZM39.682 19.356C26.685 19.356 16.148 29.892 16.148 42.889C16.148 55.886 26.684 66.423 39.682 66.423C52.68 66.423 63.216 55.887 63.216 42.889C63.216 29.893 52.679 19.356 39.682 19.356Z" fill="#C00808"/>
</svg>
