<svg width="224" height="50" viewBox="0 0 224 50" fill="none" xmlns="http://www.w3.org/2000/svg">
<path d="M35.9535 24.6806C36.3776 24.6806 36.8299 24.7089 37.3106 24.7654C37.8194 24.7937 38.2577 24.8502 38.6252 24.935L38.1587 28.3687C37.7912 28.2839 37.3812 28.2132 36.9289 28.1567C36.5048 28.1002 36.0949 28.0719 35.6991 28.0719C34.8226 28.0719 33.9886 28.2556 33.197 28.623C32.4054 28.9904 31.6986 29.5132 31.0766 30.1915C30.4546 30.8415 29.9599 31.6328 29.5923 32.5654C29.2531 33.498 29.0834 34.5437 29.0834 35.7024V47.8263H25.3516V25.1045H28.4049L28.829 29.2589H28.9986C29.4793 28.4111 30.0588 27.648 30.7373 26.9698C31.4159 26.2632 32.1933 25.7121 33.0698 25.3165C33.9462 24.8926 34.9074 24.6806 35.9535 24.6806ZM50.6501 24.723C53.4207 24.723 55.4704 25.3306 56.7992 26.5458C58.128 27.7611 58.7924 29.6969 58.7924 32.3535V47.8263H56.0783L55.3573 44.6045H55.1877C54.5375 45.4241 53.8589 46.1165 53.1521 46.6817C52.4736 47.2187 51.682 47.6143 50.7773 47.8687C49.9009 48.123 48.8265 48.2502 47.5543 48.2502C46.1973 48.2502 44.9674 48.01 43.8648 47.5295C42.7905 47.0491 41.9423 46.3143 41.3204 45.3252C40.6984 44.3078 40.3874 43.0361 40.3874 41.51C40.3874 39.2491 41.278 37.5111 43.0591 36.2958C44.8402 35.0524 47.5826 34.3741 51.2862 34.2611L55.1453 34.1339V32.7774C55.1453 30.8839 54.7354 29.5698 53.9155 28.835C53.0956 28.1002 51.9364 27.7328 50.438 27.7328C49.2506 27.7328 48.1197 27.9165 47.0454 28.2839C45.9711 28.623 44.9674 29.0187 44.0345 29.4708L42.8895 26.673C43.879 26.1361 45.0523 25.6839 46.4093 25.3165C47.7663 24.9208 49.1799 24.723 50.6501 24.723ZM51.7527 36.8469C48.9255 36.96 46.9606 37.4121 45.858 38.2035C44.7837 38.9948 44.2465 40.1111 44.2465 41.5524C44.2465 42.8241 44.6282 43.7567 45.3915 44.3502C46.1831 44.9437 47.1868 45.2404 48.4025 45.2404C50.325 45.2404 51.9223 44.7176 53.1945 43.6719C54.4668 42.598 55.1029 40.9589 55.1029 38.7545V36.7198L51.7527 36.8469ZM74.9306 48.2502C72.9233 48.2502 71.128 47.8404 69.5448 47.0208C67.9899 46.2013 66.76 44.9295 65.8553 43.2056C64.9789 41.4817 64.5407 39.2774 64.5407 36.5926C64.5407 33.7948 65.0072 31.5198 65.9401 29.7676C66.8731 28.0154 68.1312 26.7295 69.7144 25.91C71.3259 25.0904 73.1495 24.6806 75.185 24.6806C76.3442 24.6806 77.4609 24.8078 78.5352 25.0621C79.6096 25.2882 80.486 25.5708 81.1645 25.91L80.0195 29.0045C79.341 28.7502 78.5494 28.51 77.6447 28.2839C76.74 28.0578 75.8918 27.9448 75.1002 27.9448C73.5735 27.9448 72.3154 28.2698 71.3259 28.9198C70.3364 29.5698 69.6013 30.5306 69.1207 31.8024C68.6401 33.0741 68.3998 34.6567 68.3998 36.5502C68.3998 38.3589 68.6401 39.8991 69.1207 41.1708C69.6013 42.4426 70.3223 43.4035 71.2835 44.0535C72.2448 44.7034 73.4463 45.0284 74.8882 45.0284C76.1321 45.0284 77.2206 44.9013 78.1536 44.6469C79.1148 44.3926 79.9912 44.0817 80.7829 43.7143V47.0208C80.0195 47.4165 79.1714 47.7132 78.2384 47.9111C77.3337 48.1371 76.2311 48.2502 74.9306 48.2502ZM89.8779 32.4382C89.8779 32.8904 89.8496 33.4839 89.7931 34.2187C89.7648 34.9535 89.7366 35.5893 89.7083 36.1263H89.8779C90.0475 35.9002 90.302 35.5752 90.6413 35.1513C90.9805 34.7274 91.3198 34.3035 91.659 33.8795C92.0266 33.4274 92.3376 33.06 92.592 32.7774L99.8437 25.1045H104.212L95.0093 34.8121L104.848 47.8263H100.353L92.4648 37.2285L89.8779 39.4752V47.8263H86.1884V15.6089H89.8779V32.4382ZM119.783 24.6806C122.497 24.6806 124.547 25.3448 125.932 26.673C127.317 27.973 128.01 30.0926 128.01 33.0317V47.8263H124.32V33.2861C124.32 31.4491 123.91 30.0785 123.091 29.1741C122.271 28.2698 120.984 27.8176 119.231 27.8176C116.715 27.8176 114.977 28.5241 114.015 29.9371C113.054 31.3502 112.573 33.385 112.573 36.0415V47.8263H108.842V25.1045H111.853L112.404 28.1991H112.616C113.125 27.4078 113.747 26.7578 114.482 26.2491C115.245 25.7121 116.079 25.3165 116.984 25.0621C117.889 24.8078 118.822 24.6806 119.783 24.6806ZM143.836 24.6806C145.786 24.6806 147.454 25.1045 148.84 25.9524C150.253 26.8002 151.328 28.0013 152.063 29.5556C152.826 31.0817 153.208 32.8763 153.208 34.9393V37.1861H137.644C137.701 39.7578 138.351 41.7219 139.595 43.0785C140.867 44.4067 142.634 45.0708 144.896 45.0708C146.338 45.0708 147.61 44.9437 148.712 44.6893C149.843 44.4067 151.003 44.0111 152.19 43.5024V46.7665C151.031 47.2752 149.886 47.6426 148.755 47.8687C147.624 48.123 146.281 48.2502 144.726 48.2502C142.577 48.2502 140.669 47.8121 139.001 46.9361C137.361 46.06 136.075 44.76 135.142 43.0361C134.237 41.2839 133.785 39.1502 133.785 36.635C133.785 34.148 134.195 32.0143 135.015 30.2339C135.863 28.4535 137.036 27.0828 138.535 26.1219C140.061 25.1611 141.828 24.6806 143.836 24.6806ZM143.793 27.7328C142.012 27.7328 140.598 28.3121 139.552 29.4708C138.535 30.6013 137.927 32.1839 137.729 34.2187H149.306C149.306 32.9187 149.108 31.7882 148.712 30.8274C148.317 29.8665 147.709 29.1176 146.889 28.5806C146.097 28.0154 145.065 27.7328 143.793 27.7328ZM163.552 36.2111L155.707 25.1045H159.947L165.8 33.6676L171.609 25.1045H175.808L167.962 36.2111L176.232 47.8263H171.991L165.8 38.7545L159.523 47.8263H155.325L163.552 36.2111ZM199.611 25.1045V47.8263H196.557L196.006 44.8165H195.836C195.356 45.6078 194.734 46.2578 193.97 46.7665C193.207 47.2752 192.373 47.6426 191.468 47.8687C190.564 48.123 189.616 48.2502 188.627 48.2502C186.817 48.2502 185.291 47.9676 184.047 47.4024C182.831 46.8089 181.912 45.9045 181.29 44.6893C180.668 43.4741 180.357 41.9056 180.357 39.9839V25.1045H184.132V39.7295C184.132 41.5382 184.542 42.8948 185.361 43.7991C186.181 44.7034 187.454 45.1556 189.178 45.1556C190.875 45.1556 192.203 44.8448 193.165 44.223C194.154 43.573 194.847 42.6404 195.243 41.4252C195.667 40.1817 195.879 38.6839 195.879 36.9317V25.1045H199.611ZM221.628 41.5524C221.628 43.0219 221.26 44.2513 220.525 45.2404C219.79 46.2295 218.744 46.9785 217.387 47.4871C216.03 47.9958 214.418 48.2502 212.552 48.2502C210.969 48.2502 209.598 48.123 208.439 47.8687C207.308 47.6143 206.304 47.2611 205.428 46.8089V43.4176C206.333 43.8698 207.421 44.2937 208.693 44.6893C209.994 45.0567 211.309 45.2404 212.637 45.2404C214.532 45.2404 215.903 44.9437 216.751 44.3502C217.599 43.7284 218.023 42.9089 218.023 41.8915C218.023 41.3263 217.868 40.8176 217.557 40.3654C217.246 39.9132 216.68 39.4611 215.86 39.0089C215.069 38.5567 213.924 38.048 212.425 37.4828C210.955 36.9176 209.697 36.3524 208.651 35.7871C207.605 35.2219 206.799 34.5437 206.234 33.7524C205.668 32.9611 205.386 31.9437 205.386 30.7002C205.386 28.7785 206.163 27.2948 207.718 26.2491C209.301 25.2035 211.365 24.6806 213.91 24.6806C215.295 24.6806 216.581 24.8219 217.769 25.1045C218.984 25.3589 220.115 25.7263 221.161 26.2067L219.889 29.1741C219.267 28.8915 218.603 28.6513 217.896 28.4535C217.217 28.2274 216.525 28.0578 215.818 27.9448C215.111 27.8035 214.39 27.7328 213.655 27.7328C212.128 27.7328 210.955 27.9871 210.135 28.4958C209.344 28.9763 208.948 29.6404 208.948 30.4882C208.948 31.11 209.132 31.6469 209.499 32.0991C209.867 32.523 210.475 32.9469 211.323 33.3708C212.199 33.7665 213.358 34.2469 214.8 34.8121C216.242 35.3491 217.472 35.9002 218.49 36.4654C219.507 37.0306 220.285 37.723 220.822 38.5426C221.359 39.3339 221.628 40.3371 221.628 41.5524Z" fill="#A60505"/>
<path d="M0 13.478H18.268V19.5954H6.11977V49.9998H0V19.5954V13.478Z" fill="#A60505"/>
<path d="M165.977 13.1259C165.977 13.6157 165.854 14.0255 165.609 14.3552C165.364 14.6849 165.015 14.9345 164.563 15.1041C164.111 15.2737 163.573 15.3585 162.951 15.3585C162.424 15.3585 161.966 15.3161 161.58 15.2313C161.203 15.1465 160.869 15.0288 160.577 14.878V13.7476C160.878 13.8984 161.241 14.0397 161.665 14.1715C162.099 14.294 162.537 14.3552 162.98 14.3552C163.612 14.3552 164.068 14.2563 164.351 14.0585C164.634 13.8512 164.775 13.578 164.775 13.2389C164.775 13.0505 164.723 12.881 164.62 12.7302C164.516 12.5794 164.327 12.4288 164.054 12.278C163.79 12.1273 163.408 11.9577 162.909 11.7693C162.419 11.581 162 11.3925 161.651 11.2041C161.302 11.0157 161.033 10.7896 160.845 10.5259C160.657 10.2621 160.562 9.92295 160.562 9.50846C160.562 8.86789 160.821 8.37332 161.34 8.02477C161.867 7.67621 162.556 7.50194 163.404 7.50194C163.866 7.50194 164.294 7.54904 164.69 7.64324C165.096 7.72803 165.472 7.85049 165.821 8.01064L165.397 8.99977C165.189 8.90556 164.969 8.82549 164.733 8.75955C164.506 8.68419 164.276 8.62767 164.04 8.58998C163.804 8.54289 163.564 8.51933 163.319 8.51933C162.81 8.51933 162.419 8.60411 162.146 8.77368C161.881 8.93382 161.75 9.1552 161.75 9.43781C161.75 9.64506 161.811 9.82404 161.934 9.97477C162.057 10.1161 162.259 10.2574 162.542 10.3987C162.834 10.5306 163.22 10.6907 163.701 10.8791C164.181 11.0581 164.591 11.2418 164.93 11.4302C165.27 11.6186 165.529 11.8494 165.708 12.1226C165.887 12.3864 165.977 12.7207 165.977 13.1259ZM170.677 7.51607C171.6 7.51607 172.283 7.7186 172.727 8.12368C173.17 8.52876 173.391 9.17404 173.391 10.0595V15.2172H172.487L172.246 14.1432H172.19C171.972 14.4164 171.746 14.6473 171.511 14.8356C171.285 15.0147 171.021 15.1465 170.72 15.2313C170.427 15.3161 170.069 15.3585 169.645 15.3585C169.193 15.3585 168.783 15.2784 168.416 15.1182C168.057 14.9581 167.774 14.7131 167.567 14.3835C167.36 14.0443 167.256 13.6204 167.256 13.1117C167.256 12.3581 167.553 11.7788 168.147 11.3737C168.741 10.9592 169.654 10.7331 170.889 10.6954L172.176 10.653V10.2009C172.176 9.56969 172.039 9.13165 171.766 8.88672C171.492 8.6418 171.106 8.51933 170.607 8.51933C170.211 8.51933 169.833 8.58056 169.476 8.70303C169.117 8.81607 168.783 8.94795 168.472 9.09868L168.09 8.16607C168.42 7.98708 168.811 7.83636 169.264 7.7139C169.716 7.58202 170.187 7.51607 170.677 7.51607ZM171.045 11.5574C170.102 11.5951 169.447 11.7457 169.08 12.0095C168.721 12.2734 168.543 12.6454 168.543 13.1259C168.543 13.5498 168.67 13.8606 168.924 14.0585C169.188 14.2563 169.523 14.3552 169.928 14.3552C170.569 14.3552 171.101 14.181 171.525 13.8324C171.95 13.4744 172.162 12.928 172.162 12.1932V11.515L171.045 11.5574ZM179.336 7.50194C180.269 7.50194 181.018 7.82694 181.584 8.47694C182.158 9.12694 182.446 10.1066 182.446 11.4161C182.446 12.2734 182.313 12.9987 182.05 13.5922C181.796 14.1762 181.433 14.619 180.962 14.9204C180.5 15.2125 179.953 15.3585 179.322 15.3585C178.935 15.3585 178.591 15.3066 178.29 15.203C177.988 15.0994 177.729 14.9675 177.513 14.8074C177.305 14.6378 177.125 14.4541 176.975 14.2563H176.891C176.909 14.4164 176.928 14.619 176.947 14.8639C176.966 15.1088 176.975 15.3207 176.975 15.4998V18.6085H175.731V7.64324H176.749L176.919 8.67477H176.975C177.125 8.4581 177.305 8.26028 177.513 8.08129C177.729 7.9023 177.983 7.76099 178.276 7.65738C178.577 7.55376 178.93 7.50194 179.336 7.50194ZM179.11 8.54759C178.601 8.54759 178.191 8.64651 177.88 8.84433C177.569 9.03273 177.343 9.32006 177.202 9.70629C177.06 10.0925 176.984 10.5824 176.975 11.1759V11.4161C176.975 12.0378 177.041 12.5653 177.173 12.9987C177.305 13.432 177.527 13.7617 177.838 13.9878C178.157 14.2139 178.591 14.3269 179.138 14.3269C179.599 14.3269 179.977 14.1998 180.269 13.9454C180.57 13.6911 180.792 13.3473 180.933 12.9139C181.084 12.4712 181.16 11.9672 181.16 11.4019C181.16 10.5353 180.99 9.84289 180.651 9.32477C180.32 8.80665 179.807 8.54759 179.11 8.54759ZM188.033 7.50194C188.966 7.50194 189.715 7.82694 190.281 8.47694C190.856 9.12694 191.143 10.1066 191.143 11.4161C191.143 12.2734 191.011 12.9987 190.747 13.5922C190.493 14.1762 190.129 14.619 189.659 14.9204C189.196 15.2125 188.651 15.3585 188.019 15.3585C187.633 15.3585 187.288 15.3066 186.987 15.203C186.686 15.0994 186.426 14.9675 186.209 14.8074C186.002 14.6378 185.823 14.4541 185.672 14.2563H185.587C185.606 14.4164 185.626 14.619 185.644 14.8639C185.662 15.1088 185.672 15.3207 185.672 15.4998V18.6085H184.428V7.64324H185.446L185.616 8.67477H185.672C185.823 8.4581 186.002 8.26028 186.209 8.08129C186.426 7.9023 186.68 7.76099 186.973 7.65738C187.274 7.55376 187.627 7.50194 188.033 7.50194ZM187.807 8.54759C187.298 8.54759 186.888 8.64651 186.577 8.84433C186.266 9.03273 186.04 9.32006 185.898 9.70629C185.757 10.0925 185.682 10.5824 185.672 11.1759V11.4161C185.672 12.0378 185.739 12.5653 185.87 12.9987C186.002 13.432 186.224 13.7617 186.535 13.9878C186.855 14.2139 187.288 14.3269 187.835 14.3269C188.297 14.3269 188.673 14.1998 188.966 13.9454C189.267 13.6911 189.489 13.3473 189.63 12.9139C189.781 12.4712 189.856 11.9672 189.856 11.4019C189.856 10.5353 189.687 9.84289 189.348 9.32477C189.018 8.80665 188.504 8.54759 187.807 8.54759ZM194.369 7.62911C194.369 7.8081 194.359 7.9918 194.341 8.1802C194.331 8.3686 194.317 8.53817 194.298 8.6889H194.383C194.543 8.42513 194.746 8.20846 194.991 8.0389C195.236 7.86933 195.51 7.74216 195.811 7.65738C196.112 7.56317 196.423 7.51607 196.744 7.51607C197.356 7.51607 197.865 7.61498 198.271 7.81281C198.685 8.00121 198.996 8.29795 199.204 8.70303C199.411 9.1081 199.515 9.63564 199.515 10.2856V15.2172H198.285V10.3704C198.285 9.7581 198.148 9.30121 197.875 8.99977C197.602 8.69832 197.172 8.54759 196.588 8.54759C196.023 8.54759 195.58 8.65593 195.26 8.87259C194.939 9.07984 194.708 9.39071 194.567 9.8052C194.435 10.2103 194.369 10.7095 194.369 11.303V15.2172H193.125V4.47803H194.369V7.62911ZM203.107 7.64324V15.2172H201.863V7.64324H203.107ZM202.499 4.80303C202.688 4.80303 202.853 4.86897 202.994 5.00085C203.145 5.12332 203.22 5.32115 203.22 5.59433C203.22 5.8581 203.145 6.05593 202.994 6.18781C202.853 6.31969 202.688 6.38564 202.499 6.38564C202.292 6.38564 202.118 6.31969 201.976 6.18781C201.835 6.05593 201.764 5.8581 201.764 5.59433C201.764 5.32115 201.835 5.12332 201.976 5.00085C202.118 4.86897 202.292 4.80303 202.499 4.80303ZM209.042 7.50194C209.184 7.50194 209.334 7.51136 209.495 7.5302C209.664 7.53963 209.81 7.55846 209.933 7.58672L209.777 8.73129C209.654 8.70303 209.517 8.67947 209.367 8.66064C209.226 8.6418 209.089 8.63238 208.957 8.63238C208.665 8.63238 208.386 8.6936 208.123 8.81607C207.859 8.93854 207.623 9.11281 207.417 9.3389C207.209 9.55556 207.044 9.81933 206.922 10.1302C206.809 10.4411 206.752 10.7896 206.752 11.1759V15.2172H205.508V7.64324H206.526L206.667 9.02803H206.724C206.884 8.74542 207.077 8.49107 207.303 8.26498C207.53 8.02947 207.788 7.84578 208.081 7.7139C208.372 7.57259 208.693 7.50194 209.042 7.50194ZM213.997 7.50194C214.648 7.50194 215.203 7.64324 215.665 7.92585C216.136 8.20846 216.494 8.60882 216.74 9.12694C216.994 9.63564 217.121 10.2338 217.121 10.9215V11.6704H211.934C211.952 12.5277 212.168 13.1824 212.584 13.6345C213.008 14.0773 213.596 14.2987 214.351 14.2987C214.831 14.2987 215.255 14.2563 215.623 14.1715C215.999 14.0773 216.386 13.9454 216.782 13.7759V14.8639C216.395 15.0335 216.013 15.156 215.637 15.2313C215.26 15.3161 214.812 15.3585 214.294 15.3585C213.578 15.3585 212.942 15.2125 212.386 14.9204C211.839 14.6284 211.411 14.1951 211.1 13.6204C210.797 13.0364 210.647 12.3251 210.647 11.4867C210.647 10.6577 210.783 9.94651 211.057 9.35303C211.34 8.75955 211.73 8.30267 212.23 7.98238C212.739 7.66208 213.328 7.50194 213.997 7.50194ZM213.983 8.51933C213.39 8.51933 212.918 8.71245 212.57 9.09868C212.23 9.4755 212.027 10.003 211.962 10.6813H215.821C215.821 10.248 215.755 9.87115 215.623 9.55085C215.49 9.23056 215.288 8.98093 215.015 8.80194C214.751 8.61354 214.407 8.51933 213.983 8.51933Z" fill="#A60505"/>
</svg>
