<svg width="585" height="191" viewBox="0 0 585 191" fill="none" xmlns="http://www.w3.org/2000/svg">
<path d="M165.901 84.8491C174.223 84.8491 181.339 86.6295 187.249 90.1904C193.279 93.7513 197.862 98.7958 200.998 105.324C204.255 111.734 205.883 119.271 205.883 127.936V137.372H139.487C139.728 148.173 142.502 156.423 147.809 162.12C153.236 167.699 160.775 170.488 170.423 170.488C176.575 170.488 182.002 169.954 186.706 168.886C191.53 167.699 196.475 166.037 201.541 163.9V177.61C196.596 179.746 191.711 181.289 186.887 182.239C182.062 183.307 176.333 183.841 169.7 183.841C160.533 183.841 152.392 182.001 145.276 178.322C138.281 174.642 132.793 169.182 128.813 161.942C124.953 154.583 123.023 145.621 123.023 135.057C123.023 124.612 124.772 115.651 128.27 108.173C131.888 100.695 136.894 94.9382 143.286 90.9026C149.799 86.8669 157.337 84.8491 165.901 84.8491ZM165.72 97.6682C158.121 97.6682 152.091 100.101 147.628 104.968C143.286 109.716 140.693 116.363 139.849 124.909H189.239C189.239 119.449 188.394 114.701 186.706 110.665C185.017 106.63 182.424 103.484 178.926 101.229C175.549 98.8552 171.147 97.6682 165.72 97.6682ZM275.799 84.8491C277.608 84.8491 279.537 84.9678 281.588 85.2052C283.759 85.3239 285.628 85.5613 287.196 85.9173L285.206 100.339C283.638 99.9828 281.889 99.686 279.96 99.4486C278.15 99.2112 276.402 99.0926 274.713 99.0926C270.974 99.0926 267.416 99.8641 264.039 101.407C260.662 102.95 257.647 105.146 254.993 107.995C252.34 110.725 250.229 114.048 248.661 117.965C247.214 121.882 246.49 126.274 246.49 131.14V182.061H230.57V86.6295H243.596L245.405 104.078H246.128C248.179 100.517 250.651 97.3121 253.546 94.4634C256.441 91.496 259.757 89.1815 263.496 87.5197C267.235 85.7393 271.336 84.8491 275.799 84.8491ZM321.224 86.6295V182.061H305.303V86.6295H321.224ZM313.444 50.8428C315.857 50.8428 317.967 51.6736 319.776 53.3354C321.706 54.8784 322.671 57.371 322.671 60.8132C322.671 64.1367 321.706 66.6293 319.776 68.291C317.967 69.9528 315.857 70.7836 313.444 70.7836C310.791 70.7836 308.56 69.9528 306.75 68.291C304.941 66.6293 304.037 64.1367 304.037 60.8132C304.037 57.371 304.941 54.8784 306.75 53.3354C308.56 51.6736 310.791 50.8428 313.444 50.8428ZM384.33 171.022C386.742 171.022 389.214 170.844 391.747 170.488C394.28 170.013 396.33 169.538 397.898 169.064V180.993C396.21 181.823 393.797 182.476 390.662 182.951C387.526 183.545 384.51 183.841 381.616 183.841C376.55 183.841 371.846 183.01 367.504 181.349C363.283 179.568 359.846 176.541 357.192 172.268C354.539 167.995 353.212 162.001 353.212 154.286V98.7365H339.462V91.2586L353.393 85.0271L359.725 64.7302H369.133V86.6295H397.175V98.7365H369.133V153.93C369.133 159.746 370.52 164.078 373.294 166.927C376.188 169.657 379.867 171.022 384.33 171.022ZM454.042 85.0271C465.864 85.0271 474.608 87.5791 480.277 92.683C485.945 97.7869 488.78 105.918 488.78 117.075V182.061H477.201L474.126 168.53H473.402C470.628 171.972 467.733 174.88 464.718 177.254C461.823 179.509 458.444 181.171 454.584 182.239C450.845 183.307 446.262 183.841 440.835 183.841C435.045 183.841 429.799 182.832 425.095 180.815C420.512 178.797 416.893 175.711 414.24 171.556C411.587 167.283 410.26 161.942 410.26 155.532C410.26 146.037 414.059 138.737 421.658 133.633C429.256 128.41 440.955 125.562 456.755 125.087L473.221 124.553V118.855C473.221 110.903 471.472 105.383 467.974 102.297C464.477 99.2113 459.529 97.6682 453.137 97.6682C448.071 97.6682 443.247 98.4397 438.664 99.9828C434.08 101.407 429.799 103.069 425.819 104.968L420.934 93.2171C425.155 90.9619 430.161 89.0628 435.95 87.5197C441.739 85.858 447.77 85.0271 454.042 85.0271ZM458.745 135.948C446.684 136.422 438.302 138.321 433.598 141.645C429.015 144.968 426.723 149.657 426.723 155.71C426.723 161.052 428.351 164.969 431.608 167.461C434.985 169.954 439.267 171.2 444.453 171.2C452.655 171.2 459.469 169.004 464.899 164.613C470.326 160.102 473.04 153.218 473.04 143.96V135.413L458.745 135.948ZM581.868 155.71C581.868 161.883 580.3 167.046 577.164 171.2C574.028 175.355 569.566 178.5 563.776 180.636C557.987 182.773 551.112 183.841 543.152 183.841C536.398 183.841 530.548 183.307 525.603 182.239C520.779 181.171 516.497 179.687 512.758 177.788V163.544C516.618 165.443 521.261 167.224 526.689 168.886C532.237 170.429 537.845 171.2 543.514 171.2C551.595 171.2 557.444 169.954 561.063 167.461C564.681 164.85 566.49 161.408 566.49 157.135C566.49 154.761 565.827 152.624 564.5 150.725C563.173 148.826 560.761 146.927 557.263 145.028C553.886 143.129 549.002 140.992 542.609 138.618C536.337 136.244 530.97 133.87 526.508 131.496C522.045 129.123 518.608 126.274 516.195 122.95C513.783 119.627 512.577 115.354 512.577 110.131C512.577 102.06 515.894 95.8284 522.528 91.4367C529.282 87.0449 538.086 84.8491 548.941 84.8491C554.851 84.8491 560.339 85.4426 565.405 86.6295C570.591 87.6978 575.415 89.2408 579.878 91.2586L574.45 103.722C571.797 102.535 568.963 101.526 565.947 100.695C563.053 99.7454 560.098 99.0332 557.082 98.5584C554.067 97.9649 550.992 97.6682 547.856 97.6682C541.343 97.6682 536.337 98.7365 532.84 100.873C529.463 102.891 527.774 105.68 527.774 109.241C527.774 111.852 528.558 114.108 530.126 116.007C531.694 117.787 534.287 119.568 537.905 121.348C541.644 123.01 546.589 125.028 552.74 127.401C558.892 129.657 564.138 131.971 568.48 134.345C572.822 136.719 576.139 139.627 578.43 143.069C580.722 146.393 581.868 150.606 581.868 155.71Z" fill="white"/>
<path d="M0 37.6084H29.03L92.5454 162.431L77.933 191L0 37.6084Z" fill="white"/>
<path d="M366.55 36.3209C366.55 38.3784 366.027 40.0995 364.982 41.4841C363.937 42.8688 362.449 43.9174 360.52 44.6296C358.59 45.3417 356.298 45.6978 353.645 45.6978C351.393 45.6978 349.443 45.5198 347.795 45.1637C346.187 44.8076 344.76 44.3132 343.513 43.68V38.9322C344.8 39.5654 346.348 40.1588 348.157 40.7126C350.006 41.2271 351.876 41.4841 353.765 41.4841C356.459 41.4841 358.409 41.0687 359.615 40.2378C360.821 39.3672 361.424 38.22 361.424 36.7957C361.424 36.0045 361.203 35.2923 360.761 34.6591C360.319 34.0259 359.514 33.3932 358.349 32.76C357.223 32.1268 355.594 31.4146 353.464 30.6235C351.373 29.8323 349.584 29.0407 348.097 28.2496C346.609 27.4584 345.463 26.5087 344.659 25.4009C343.855 24.293 343.453 22.8687 343.453 21.1278C343.453 18.4374 344.559 16.3602 346.77 14.8963C349.021 13.4324 351.956 12.7004 355.574 12.7004C357.545 12.7004 359.374 12.8982 361.062 13.2939C362.791 13.65 364.399 14.1644 365.887 14.837L364.078 18.9913C363.193 18.5956 362.248 18.2594 361.243 17.9824C360.278 17.6659 359.293 17.4285 358.288 17.2702C357.283 17.0724 356.258 16.9735 355.213 16.9735C353.042 16.9735 351.373 17.3296 350.207 18.0417C349.081 18.7143 348.519 19.6441 348.519 20.8311C348.519 21.7015 348.78 22.4532 349.303 23.0863C349.826 23.6798 350.69 24.2733 351.896 24.8667C353.142 25.4206 354.791 26.0933 356.841 26.8846C358.891 27.6365 360.64 28.408 362.087 29.1991C363.535 29.9903 364.64 30.9599 365.404 32.1072C366.168 33.2152 366.55 34.6194 366.55 36.3209ZM386.602 12.7598C390.542 12.7598 393.457 13.6104 395.347 15.3117C397.236 17.0131 398.181 19.7232 398.181 23.4424V45.1043H394.322L393.296 40.5939H393.055C392.131 41.7412 391.166 42.7108 390.16 43.502C389.196 44.2539 388.07 44.8076 386.783 45.1637C385.537 45.5198 384.009 45.6978 382.2 45.6978C380.27 45.6978 378.522 45.3614 376.954 44.6889C375.426 44.0165 374.22 42.9875 373.335 41.6028C372.451 40.1785 372.009 38.398 372.009 36.2615C372.009 33.0965 373.275 30.6632 375.808 28.9617C378.341 27.221 382.241 26.2713 387.507 26.113L392.995 25.935V24.0359C392.995 21.385 392.412 19.5452 391.246 18.5165C390.08 17.4878 388.432 16.9735 386.301 16.9735C384.612 16.9735 383.004 17.2306 381.477 17.745C379.949 18.2198 378.522 18.7737 377.195 19.4067L375.567 15.4898C376.974 14.738 378.642 14.105 380.572 13.5907C382.502 13.0368 384.512 12.7598 386.602 12.7598ZM388.17 29.7333C384.15 29.8917 381.356 30.5244 379.788 31.6324C378.26 32.7404 377.496 34.303 377.496 36.3209C377.496 38.1013 378.039 39.407 379.125 40.2378C380.25 41.0687 381.677 41.4841 383.406 41.4841C386.14 41.4841 388.412 40.7523 390.221 39.2883C392.03 37.7849 392.935 35.49 392.935 32.4039V29.5552L388.17 29.7333ZM423.542 12.7004C427.522 12.7004 430.719 14.0654 433.131 16.7954C435.583 19.5254 436.809 23.6402 436.809 29.1398C436.809 32.7404 436.247 35.7867 435.121 38.2793C434.035 40.7322 432.487 42.5921 430.477 43.858C428.507 45.0847 426.176 45.6978 423.482 45.6978C421.834 45.6978 420.366 45.4801 419.08 45.045C417.793 44.6099 416.687 44.0557 415.763 43.3833C414.878 42.6711 414.115 41.8996 413.471 41.0687H413.109C413.19 41.7412 413.27 42.5921 413.351 43.6207C413.431 44.6492 413.471 45.5394 413.471 46.2913V59.3478H408.164V13.2939H412.506L413.23 17.6263H413.471C414.115 16.7163 414.878 15.8855 415.763 15.1337C416.687 14.3819 417.773 13.7885 419.019 13.3533C420.306 12.9181 421.813 12.7004 423.542 12.7004ZM422.577 17.0922C420.406 17.0922 418.658 17.5076 417.331 18.3385C416.004 19.1298 415.039 20.3365 414.436 21.9587C413.833 23.5809 413.512 25.6383 413.471 28.1309V29.1398C413.471 31.7511 413.753 33.9666 414.316 35.7867C414.878 37.6069 415.823 38.9915 417.15 39.9411C418.517 40.8907 420.366 41.3654 422.698 41.3654C424.668 41.3654 426.276 40.8313 427.522 39.763C428.809 38.6948 429.754 37.2508 430.357 35.4307C431 33.5712 431.322 31.4543 431.322 29.0804C431.322 25.4404 430.598 22.5324 429.151 20.3563C427.744 18.1802 425.552 17.0922 422.577 17.0922ZM460.644 12.7004C464.625 12.7004 467.821 14.0654 470.233 16.7954C472.687 19.5254 473.912 23.6402 473.912 29.1398C473.912 32.7404 473.351 35.7867 472.223 38.2793C471.138 40.7322 469.589 42.5921 467.58 43.858C465.608 45.0847 463.28 45.6978 460.584 45.6978C458.935 45.6978 457.468 45.4801 456.182 45.045C454.895 44.6099 453.79 44.0557 452.865 43.3833C451.98 42.6711 451.216 41.8996 450.573 41.0687H450.212C450.292 41.7412 450.372 42.5921 450.453 43.6207C450.533 44.6492 450.573 45.5394 450.573 46.2913V59.3478H445.267V13.2939H449.609L450.332 17.6263H450.573C451.216 16.7163 451.98 15.8855 452.865 15.1337C453.79 14.3819 454.875 13.7885 456.122 13.3533C457.408 12.9181 458.916 12.7004 460.644 12.7004ZM459.68 17.0922C457.509 17.0922 455.76 17.5076 454.433 18.3385C453.106 19.1298 452.141 20.3365 451.538 21.9587C450.935 23.5809 450.613 25.6383 450.573 28.1309V29.1398C450.573 31.7511 450.855 33.9666 451.418 35.7867C451.98 37.6069 452.925 38.9915 454.252 39.9411C455.619 40.8907 457.468 41.3654 459.8 41.3654C461.772 41.3654 463.377 40.8313 464.625 39.763C465.91 38.6948 466.856 37.2508 467.459 35.4307C468.104 33.5712 468.424 31.4543 468.424 29.0804C468.424 25.4404 467.701 22.5324 466.253 20.3563C464.848 18.1802 462.654 17.0922 459.68 17.0922ZM487.676 13.2346C487.676 13.9863 487.634 14.7578 487.555 15.5491C487.513 16.3404 487.453 17.0526 487.374 17.6857H487.736C488.418 16.5778 489.285 15.6678 490.329 14.9557C491.373 14.2435 492.542 13.7093 493.827 13.3533C495.112 12.9576 496.438 12.7598 497.807 12.7598C500.419 12.7598 502.59 13.1752 504.32 14.0061C506.087 14.7974 507.414 16.0437 508.3 17.745C509.186 19.4463 509.627 21.662 509.627 24.392V45.1043H504.38V24.748C504.38 22.1763 503.796 20.2574 502.631 18.9913C501.467 17.7252 499.635 17.0922 497.144 17.0922C494.731 17.0922 492.843 17.5472 491.475 18.4572C490.106 19.3276 489.123 20.6333 488.52 22.3741C487.959 24.0755 487.676 26.1724 487.676 28.665V45.1043H482.369V0H487.676V13.2346ZM524.954 13.2939V45.1043H519.647V13.2939H524.954ZM522.36 1.365C523.163 1.365 523.868 1.64197 524.471 2.19587C525.116 2.71023 525.436 3.5411 525.436 4.68848C525.436 5.79632 525.116 6.62719 524.471 7.18109C523.868 7.73498 523.163 8.01196 522.36 8.01196C521.474 8.01196 520.732 7.73498 520.129 7.18109C519.526 6.62719 519.225 5.79632 519.225 4.68848C519.225 3.5411 519.526 2.71023 520.129 2.19587C520.732 1.64197 521.474 1.365 522.36 1.365ZM550.272 12.7004C550.876 12.7004 551.516 12.74 552.202 12.8191C552.926 12.8587 553.548 12.9378 554.072 13.0565L553.408 17.8637C552.884 17.745 552.3 17.6461 551.659 17.567C551.056 17.4878 550.472 17.4483 549.911 17.4483C548.663 17.4483 547.475 17.7054 546.353 18.2198C545.225 18.7341 544.219 19.4661 543.337 20.4157C542.451 21.3256 541.746 22.4335 541.227 23.7391C540.744 25.0448 540.503 26.5087 540.503 28.1309V45.1043H535.196V13.2939H539.538L540.141 19.11H540.382C541.064 17.923 541.89 16.8548 542.855 15.9052C543.82 14.9161 544.924 14.1446 546.172 13.5907C547.415 12.9972 548.783 12.7004 550.272 12.7004ZM571.412 12.7004C574.186 12.7004 576.556 13.2939 578.528 14.4809C580.536 15.6678 582.063 17.3493 583.111 19.5254C584.197 21.662 584.739 24.1743 584.739 27.0626V30.208H562.607C562.686 33.8086 563.609 36.5583 565.381 38.4574C567.19 40.3168 569.7 41.2467 572.919 41.2467C574.97 41.2467 576.779 41.0687 578.347 40.7126C579.952 40.3168 581.603 39.763 583.292 39.0509V43.6207C581.641 44.3328 580.012 44.8473 578.407 45.1637C576.798 45.5198 574.886 45.6978 572.678 45.6978C569.621 45.6978 566.907 45.0847 564.537 43.858C562.204 42.6314 560.376 40.8117 559.049 38.398C557.76 35.9452 557.119 32.9577 557.119 29.4365C557.119 25.9548 557.699 22.9676 558.868 20.475C560.074 17.9824 561.74 16.0635 563.874 14.7183C566.045 13.373 568.554 12.7004 571.412 12.7004ZM571.352 16.9735C568.819 16.9735 566.805 17.7846 565.321 19.4067C563.874 20.9894 563.006 23.205 562.728 26.0537H579.191C579.191 24.2337 578.908 22.6511 578.347 21.3059C577.781 19.9606 576.918 18.9122 575.754 18.1604C574.627 17.3691 573.161 16.9735 571.352 16.9735Z" fill="white"/>
</svg>
