<svg width="139" height="50" viewBox="0 0 139 50" fill="none" xmlns="http://www.w3.org/2000/svg">
<path d="M39.5139 24.6802C41.4621 24.6802 43.1279 25.1041 44.5114 25.952C45.9231 26.7998 46.996 28.0009 47.7301 29.5552C48.4924 31.0813 48.8736 32.8759 48.8736 34.9389V37.1857H33.3306C33.387 39.7574 34.0364 41.7215 35.2787 43.0781C36.5493 44.4063 38.3139 45.0705 40.5727 45.0705C42.0126 45.0705 43.2832 44.9433 44.3843 44.6889C45.5137 44.4063 46.6713 44.0107 47.8571 43.502V46.7661C46.6995 47.2748 45.556 47.6422 44.4267 47.8683C43.2973 48.1226 41.9562 48.2498 40.4033 48.2498C38.2575 48.2498 36.3516 47.8118 34.6858 46.9357C33.0482 46.0596 31.7635 44.7596 30.8318 43.0357C29.9283 41.2835 29.4766 39.1498 29.4766 36.6346C29.4766 34.1476 29.886 32.0139 30.7048 30.2335C31.5518 28.4531 32.7235 27.0824 34.2199 26.1215C35.7446 25.1607 37.5092 24.6802 39.5139 24.6802ZM39.4715 27.7324C37.6928 27.7324 36.281 28.3118 35.2364 29.4705C34.2199 30.6009 33.6129 32.1835 33.4153 34.2183H44.9772C44.9772 32.9183 44.7796 31.7878 44.3843 30.827C43.989 29.8661 43.382 29.1172 42.5632 28.5802C41.7726 28.015 40.7421 27.7324 39.4715 27.7324ZM65.2405 24.6802C65.664 24.6802 66.1158 24.7085 66.5958 24.765C67.104 24.7933 67.5416 24.8498 67.9087 24.9346L67.4428 28.3683C67.0757 28.2835 66.6663 28.2128 66.2146 28.1563C65.7911 28.0998 65.3817 28.0715 64.9864 28.0715C64.1111 28.0715 63.2782 28.2552 62.4877 28.6226C61.6971 28.99 60.9912 29.5128 60.3701 30.1911C59.7489 30.8411 59.2548 31.6324 58.8878 32.565C58.549 33.4976 58.3795 34.5433 58.3795 35.702V47.8259H54.6526V25.1041H57.7019L58.1254 29.2585H58.2948C58.7748 28.4107 59.3536 27.6476 60.0313 26.9694C60.7089 26.2628 61.4853 25.7118 62.3606 25.3161C63.2359 24.8922 64.1958 24.6802 65.2405 24.6802ZM75.8743 25.1041V47.8259H72.1474V25.1041H75.8743ZM74.0532 16.5835C74.6179 16.5835 75.112 16.7813 75.5355 17.177C75.9873 17.5444 76.2131 18.1378 76.2131 18.9574C76.2131 19.7487 75.9873 20.3422 75.5355 20.7378C75.112 21.1335 74.6179 21.3313 74.0532 21.3313C73.4321 21.3313 72.9097 21.1335 72.4862 20.7378C72.0627 20.3422 71.8509 19.7487 71.8509 18.9574C71.8509 18.1378 72.0627 17.5444 72.4862 17.177C72.9097 16.7813 73.4321 16.5835 74.0532 16.5835ZM90.6471 45.1976C91.2118 45.1976 91.7906 45.1552 92.3835 45.0705C92.9764 44.9574 93.4564 44.8444 93.8235 44.7313V47.5715C93.4282 47.7694 92.8635 47.9248 92.1294 48.0378C91.3953 48.1791 90.6894 48.2498 90.0118 48.2498C88.826 48.2498 87.7248 48.052 86.7084 47.6563C85.7202 47.2324 84.9155 46.5118 84.2944 45.4944C83.6732 44.477 83.3626 43.0498 83.3626 41.2128V27.9868H80.1439V26.2063L83.405 24.7226L84.8873 19.89H87.0896V25.1041H93.6541V27.9868H87.0896V41.1281C87.0896 42.5128 87.4143 43.5444 88.0637 44.2226C88.7413 44.8726 89.6024 45.1976 90.6471 45.1976ZM106.966 24.7226C109.734 24.7226 111.781 25.3302 113.108 26.5455C114.435 27.7607 115.098 29.6965 115.098 32.3531V47.8259H112.388L111.668 44.6041H111.499C110.849 45.4237 110.171 46.1161 109.466 46.6813C108.788 47.2183 107.997 47.6139 107.093 47.8683C106.218 48.1226 105.145 48.2498 103.875 48.2498C102.519 48.2498 101.291 48.0096 100.19 47.5291C99.1172 47.0487 98.2702 46.3139 97.649 45.3248C97.0278 44.3074 96.7173 43.0357 96.7173 41.5096C96.7173 39.2487 97.6066 37.5107 99.3854 36.2955C101.164 35.052 103.903 34.3737 107.602 34.2607L111.456 34.1335V32.777C111.456 30.8835 111.047 29.5694 110.228 28.8346C109.409 28.0998 108.251 27.7324 106.755 27.7324C105.569 27.7324 104.439 27.9161 103.366 28.2835C102.294 28.6226 101.291 29.0183 100.36 29.4705L99.216 26.6726C100.204 26.1357 101.376 25.6835 102.731 25.3161C104.086 24.9205 105.498 24.7226 106.966 24.7226ZM108.067 36.8465C105.244 36.9596 103.282 37.4118 102.181 38.2031C101.108 38.9944 100.571 40.1107 100.571 41.552C100.571 42.8237 100.952 43.7563 101.715 44.3498C102.505 44.9433 103.508 45.24 104.722 45.24C106.642 45.24 108.237 44.7172 109.508 43.6715C110.779 42.5976 111.414 40.9585 111.414 38.7541V36.7194L108.067 36.8465ZM136.89 41.552C136.89 43.0215 136.523 44.2509 135.789 45.24C135.055 46.2291 134.01 46.9781 132.655 47.4868C131.299 47.9955 129.69 48.2498 127.827 48.2498C126.246 48.2498 124.876 48.1226 123.719 47.8683C122.589 47.6139 121.587 47.2607 120.712 46.8085V43.4172C121.615 43.8694 122.702 44.2933 123.973 44.6889C125.271 45.0563 126.584 45.24 127.911 45.24C129.803 45.24 131.172 44.9433 132.019 44.3498C132.866 43.7281 133.29 42.9085 133.29 41.8911C133.29 41.3259 133.135 40.8172 132.824 40.365C132.514 39.9128 131.949 39.4607 131.13 39.0085C130.34 38.5563 129.196 38.0476 127.7 37.4824C126.231 36.9172 124.975 36.352 123.93 35.7868C122.886 35.2215 122.081 34.5433 121.516 33.752C120.952 32.9607 120.669 31.9433 120.669 30.6998C120.669 28.7781 121.446 27.2944 122.999 26.2487C124.58 25.2031 126.641 24.6802 129.182 24.6802C130.565 24.6802 131.85 24.8215 133.036 25.1041C134.25 25.3585 135.379 25.7259 136.424 26.2063L135.153 29.1737C134.532 28.8911 133.869 28.6509 133.163 28.4531C132.485 28.227 131.794 28.0574 131.088 27.9444C130.382 27.8031 129.662 27.7324 128.928 27.7324C127.403 27.7324 126.231 27.9868 125.413 28.4955C124.622 28.9759 124.227 29.64 124.227 30.4878C124.227 31.1096 124.41 31.6465 124.777 32.0987C125.144 32.5226 125.751 32.9465 126.598 33.3705C127.474 33.7661 128.631 34.2465 130.071 34.8118C131.511 35.3487 132.739 35.8998 133.756 36.465C134.772 37.0302 135.549 37.7226 136.085 38.5422C136.622 39.3335 136.89 40.3368 136.89 41.552Z" fill="#A60505"/>
<path d="M0 13.478H6.7958L21.6645 43.1976L18.2438 49.9998L0 13.478Z" fill="#A60505"/>
<path d="M86.485 13.1259C86.485 13.6157 86.3626 14.0255 86.118 14.3552C85.8733 14.6849 85.525 14.9345 85.0733 15.1041C84.6215 15.2737 84.0851 15.3585 83.4639 15.3585C82.9369 15.3585 82.4804 15.3161 82.0946 15.2313C81.7181 15.1465 81.384 15.0288 81.0922 14.878V13.7476C81.3934 13.8984 81.7557 14.0397 82.1793 14.1715C82.6122 14.294 83.0499 14.3552 83.4922 14.3552C84.1228 14.3552 84.5792 14.2563 84.8615 14.0585C85.1439 13.8512 85.285 13.578 85.285 13.2389C85.285 13.0505 85.2332 12.881 85.1298 12.7302C85.0263 12.5794 84.838 12.4288 84.5651 12.278C84.3015 12.1273 83.9203 11.9577 83.4216 11.7693C82.9321 11.581 82.5134 11.3925 82.1651 11.2041C81.8169 11.0157 81.5487 10.7896 81.3605 10.5259C81.1723 10.2621 81.0781 9.92295 81.0781 9.50846C81.0781 8.86789 81.3369 8.37332 81.8546 8.02477C82.3816 7.67621 83.0686 7.50194 83.9157 7.50194C84.3769 7.50194 84.8051 7.54904 85.2003 7.64324C85.6051 7.72803 85.9815 7.85049 86.3297 8.01064L85.9062 8.99977C85.6991 8.90556 85.478 8.82549 85.2427 8.75955C85.0168 8.68419 84.7863 8.62767 84.551 8.58998C84.3156 8.54289 84.0756 8.51933 83.831 8.51933C83.3228 8.51933 82.9321 8.60411 82.6593 8.77368C82.3957 8.93382 82.264 9.1552 82.264 9.43781C82.264 9.64506 82.3251 9.82404 82.4475 9.97477C82.5699 10.1161 82.7722 10.2574 83.0545 10.3987C83.3463 10.5306 83.7322 10.6907 84.2121 10.8791C84.6921 11.0581 85.1015 11.2418 85.4403 11.4302C85.7791 11.6186 86.0379 11.8494 86.2168 12.1226C86.3956 12.3864 86.485 12.7207 86.485 13.1259ZM91.1792 7.51607C92.1015 7.51607 92.7839 7.7186 93.2262 8.12368C93.6685 8.52876 93.8897 9.17404 93.8897 10.0595V15.2172H92.9862L92.7462 14.1432H92.6897C92.4733 14.4164 92.2474 14.6473 92.0121 14.8356C91.7862 15.0147 91.5227 15.1465 91.2215 15.2313C90.9297 15.3161 90.5721 15.3585 90.1486 15.3585C89.6969 15.3585 89.2875 15.2784 88.9204 15.1182C88.5628 14.9581 88.2805 14.7131 88.0734 14.3835C87.8663 14.0443 87.7628 13.6204 87.7628 13.1117C87.7628 12.3581 88.0593 11.7788 88.6522 11.3737C89.2451 10.9592 90.1581 10.7331 91.3909 10.6954L92.6756 10.653V10.2009C92.6756 9.56969 92.5391 9.13165 92.2662 8.88672C91.9933 8.6418 91.6074 8.51933 91.1086 8.51933C90.7133 8.51933 90.3368 8.58056 89.9792 8.70303C89.6216 8.81607 89.2875 8.94795 88.9769 9.09868L88.5957 8.16607C88.9251 7.98708 89.3157 7.83636 89.7675 7.7139C90.2192 7.58202 90.6898 7.51607 91.1792 7.51607ZM91.5462 11.5574C90.605 11.5951 89.951 11.7457 89.5839 12.0095C89.2263 12.2734 89.0475 12.6454 89.0475 13.1259C89.0475 13.5498 89.1745 13.8606 89.4287 14.0585C89.6922 14.2563 90.0263 14.3552 90.431 14.3552C91.0709 14.3552 91.6027 14.181 92.0262 13.8324C92.4497 13.4744 92.6615 12.928 92.6615 12.1932V11.515L91.5462 11.5574ZM99.8266 7.50194C100.758 7.50194 101.507 7.82694 102.071 8.47694C102.645 9.12694 102.932 10.1066 102.932 11.4161C102.932 12.2734 102.801 12.9987 102.537 13.5922C102.283 14.1762 101.921 14.619 101.45 14.9204C100.989 15.2125 100.443 15.3585 99.8125 15.3585C99.4267 15.3585 99.0831 15.3066 98.7819 15.203C98.4808 15.0994 98.2219 14.9675 98.0055 14.8074C97.7984 14.6378 97.6197 14.4541 97.469 14.2563H97.3843C97.4031 14.4164 97.422 14.619 97.4408 14.8639C97.4596 15.1088 97.469 15.3207 97.469 15.4998V18.6085H96.2267V7.64324H97.2432L97.4126 8.67477H97.469C97.6197 8.4581 97.7984 8.26028 98.0055 8.08129C98.2219 7.9023 98.476 7.76099 98.7678 7.65738C99.069 7.55376 99.4219 7.50194 99.8266 7.50194ZM99.6007 8.54759C99.0925 8.54759 98.6831 8.64651 98.3725 8.84433C98.062 9.03273 97.8361 9.32006 97.6949 9.70629C97.5537 10.0925 97.4785 10.5824 97.469 11.1759V11.4161C97.469 12.0378 97.535 12.5653 97.6667 12.9987C97.7984 13.432 98.0196 13.7617 98.3302 13.9878C98.6502 14.2139 99.0831 14.3269 99.629 14.3269C100.09 14.3269 100.467 14.1998 100.758 13.9454C101.059 13.6911 101.281 13.3473 101.422 12.9139C101.572 12.4712 101.648 11.9672 101.648 11.4019C101.648 10.5353 101.478 9.84289 101.14 9.32477C100.81 8.80665 100.297 8.54759 99.6007 8.54759ZM108.512 7.50194C109.444 7.50194 110.192 7.82694 110.757 8.47694C111.331 9.12694 111.618 10.1066 111.618 11.4161C111.618 12.2734 111.487 12.9987 111.223 13.5922C110.969 14.1762 110.606 14.619 110.136 14.9204C109.674 15.2125 109.129 15.3585 108.498 15.3585C108.112 15.3585 107.769 15.3066 107.467 15.203C107.166 15.0994 106.907 14.9675 106.691 14.8074C106.484 14.6378 106.305 14.4541 106.154 14.2563H106.07C106.089 14.4164 106.107 14.619 106.126 14.8639C106.145 15.1088 106.154 15.3207 106.154 15.4998V18.6085H104.912V7.64324H105.929L106.098 8.67477H106.154C106.305 8.4581 106.484 8.26028 106.691 8.08129C106.907 7.9023 107.161 7.76099 107.453 7.65738C107.754 7.55376 108.107 7.50194 108.512 7.50194ZM108.286 8.54759C107.778 8.54759 107.369 8.64651 107.058 8.84433C106.747 9.03273 106.522 9.32006 106.38 9.70629C106.239 10.0925 106.164 10.5824 106.154 11.1759V11.4161C106.154 12.0378 106.22 12.5653 106.352 12.9987C106.484 13.432 106.705 13.7617 107.016 13.9878C107.336 14.2139 107.769 14.3269 108.314 14.3269C108.776 14.3269 109.152 14.1998 109.444 13.9454C109.745 13.6911 109.966 13.3473 110.107 12.9139C110.258 12.4712 110.333 11.9672 110.333 11.4019C110.333 10.5353 110.164 9.84289 109.825 9.32477C109.496 8.80665 108.982 8.54759 108.286 8.54759ZM114.84 7.62911C114.84 7.8081 114.83 7.9918 114.812 8.1802C114.802 8.3686 114.788 8.53817 114.769 8.6889H114.854C115.014 8.42513 115.217 8.20846 115.461 8.0389C115.705 7.86933 115.979 7.74216 116.28 7.65738C116.581 7.56317 116.891 7.51607 117.212 7.51607C117.823 7.51607 118.331 7.61498 118.736 7.81281C119.15 8.00121 119.461 8.29795 119.668 8.70303C119.875 9.1081 119.979 9.63564 119.979 10.2856V15.2172H118.75V10.3704C118.75 9.7581 118.614 9.30121 118.341 8.99977C118.068 8.69832 117.639 8.54759 117.056 8.54759C116.492 8.54759 116.05 8.65593 115.729 8.87259C115.409 9.07984 115.179 9.39071 115.038 9.8052C114.906 10.2103 114.84 10.7095 114.84 11.303V15.2172H113.598V4.47803H114.84V7.62911ZM123.567 7.64324V15.2172H122.324V7.64324H123.567ZM122.959 4.80303C123.147 4.80303 123.312 4.86897 123.454 5.00085C123.605 5.12332 123.679 5.32115 123.679 5.59433C123.679 5.8581 123.605 6.05593 123.454 6.18781C123.312 6.31969 123.147 6.38564 122.959 6.38564C122.752 6.38564 122.578 6.31969 122.437 6.18781C122.296 6.05593 122.225 5.8581 122.225 5.59433C122.225 5.32115 122.296 5.12332 122.437 5.00085C122.578 4.86897 122.752 4.80303 122.959 4.80303ZM129.494 7.50194C129.635 7.50194 129.785 7.51136 129.945 7.5302C130.115 7.53963 130.26 7.55846 130.383 7.58672L130.228 8.73129C130.105 8.70303 129.968 8.67947 129.818 8.66064C129.677 8.6418 129.54 8.63238 129.409 8.63238C129.117 8.63238 128.839 8.6936 128.576 8.81607C128.312 8.93854 128.076 9.11281 127.87 9.3389C127.663 9.55556 127.498 9.81933 127.376 10.1302C127.263 10.4411 127.207 10.7896 127.207 11.1759V15.2172H125.964V7.64324H126.981L127.122 9.02803H127.178C127.338 8.74542 127.531 8.49107 127.757 8.26498C127.983 8.02947 128.241 7.84578 128.534 7.7139C128.825 7.57259 129.145 7.50194 129.494 7.50194ZM134.442 7.50194C135.092 7.50194 135.646 7.64324 136.108 7.92585C136.578 8.20846 136.935 8.60882 137.181 9.12694C137.435 9.63564 137.562 10.2338 137.562 10.9215V11.6704H132.381C132.4 12.5277 132.616 13.1824 133.03 13.6345C133.454 14.0773 134.041 14.2987 134.795 14.2987C135.275 14.2987 135.699 14.2563 136.066 14.1715C136.441 14.0773 136.828 13.9454 137.223 13.7759V14.8639C136.837 15.0335 136.456 15.156 136.08 15.2313C135.703 15.3161 135.256 15.3585 134.739 15.3585C134.023 15.3585 133.388 15.2125 132.833 14.9204C132.287 14.6284 131.859 14.1951 131.548 13.6204C131.246 13.0364 131.096 12.3251 131.096 11.4867C131.096 10.6577 131.232 9.94651 131.506 9.35303C131.788 8.75955 132.178 8.30267 132.678 7.98238C133.186 7.66208 133.773 7.50194 134.442 7.50194ZM134.428 8.51933C133.835 8.51933 133.364 8.71245 133.016 9.09868C132.678 9.4755 132.474 10.003 132.409 10.6813H136.263C136.263 10.248 136.197 9.87115 136.066 9.55085C135.933 9.23056 135.731 8.98093 135.459 8.80194C135.195 8.61354 134.852 8.51933 134.428 8.51933Z" fill="#A60505"/>
</svg>
