<svg width="100" height="76" viewBox="0 0 100 76" fill="none" xmlns="http://www.w3.org/2000/svg">
<path d="M66.3013 32.084H98.5823L96.594 26.1621H69.711V28.8926C69.711 29.3145 69.4727 29.6934 69.0899 29.8926C68.711 30.0918 68.2696 30.0528 67.9297 29.791L66.3008 28.6113L66.3013 32.084Z" fill="#C00808"/>
<path d="M66.3008 71.186H96.4488V34.334H66.3008V71.186ZM87.7188 46.956V38.4638C87.7188 37.8427 88.2188 37.3427 88.8594 37.3427H92.2696C92.8907 37.3427 93.3907 37.8427 93.3907 38.4638V46.9521C93.9493 47.0302 94.3907 47.4716 94.3907 48.0537C94.3907 48.6748 93.8907 49.1748 93.2696 49.1748H87.8477C87.2266 49.1748 86.7266 48.6748 86.7266 48.0537C86.7305 47.4756 87.1719 47.0342 87.7188 46.956ZM87.7188 62.214V53.7257C87.7188 53.1046 88.2188 52.6046 88.8594 52.6046H92.2696C92.8907 52.6046 93.3907 53.1046 93.3907 53.7257V62.214C93.9493 62.2921 94.3907 62.7335 94.3907 63.3156C94.3907 63.9367 93.8907 64.4367 93.2696 64.4367H87.8477C87.2266 64.4367 86.7266 63.9367 86.7266 63.3156C86.7305 62.7336 87.1719 62.2961 87.7188 62.214ZM78.5391 46.956V38.4638C78.5391 37.8427 79.0391 37.3427 79.6602 37.3427H83.0704C83.711 37.3427 84.211 37.8427 84.211 38.4638V46.9521C84.75 47.0302 85.1915 47.4716 85.1915 48.0537C85.1915 48.6748 84.6915 49.1748 84.0704 49.1748H78.6484C78.0274 49.1748 77.5274 48.6748 77.5274 48.0537C77.5391 47.4756 77.9805 47.0342 78.5391 46.956ZM78.5391 62.214V53.7257C78.5391 53.1046 79.0391 52.6046 79.6602 52.6046H83.0704C83.711 52.6046 84.211 53.1046 84.211 53.7257V62.214C84.75 62.2921 85.1915 62.7335 85.1915 63.3156C85.1915 63.9367 84.6915 64.4367 84.0704 64.4367H78.6484C78.0274 64.4367 77.5274 63.9367 77.5274 63.3156C77.5391 62.7336 77.9805 62.2961 78.5391 62.214ZM69.3516 46.956V38.4638C69.3516 37.8427 69.8516 37.3427 70.4727 37.3427H73.9024C74.5235 37.3427 75.0235 37.8427 75.0235 38.4638V46.9521C75.5821 47.0302 76.004 47.4716 76.004 48.0537C76.004 48.6748 75.504 49.1748 74.8829 49.1748H69.4845C68.8634 49.1748 68.3438 48.6748 68.3438 48.0537C68.3517 47.4756 68.7891 47.0342 69.3516 46.956ZM69.3516 62.214V53.7257C69.3516 53.1046 69.8516 52.6046 70.4727 52.6046H73.9024C74.5235 52.6046 75.0235 53.1046 75.0235 53.7257V62.214C75.5821 62.2921 76.004 62.7335 76.004 63.3156C76.004 63.9367 75.504 64.4367 74.8829 64.4367H69.4845C68.8634 64.4367 68.3438 63.9367 68.3438 63.3156C68.3517 62.7336 68.7891 62.2961 69.3516 62.214Z" fill="#C00808"/>
<path d="M71.6016 39.5918H72.7618V42.541H71.6016V39.5918Z" fill="#C00808"/>
<path d="M71.6016 44.7949H72.7618V46.9433H71.6016V44.7949Z" fill="#C00808"/>
<path d="M80.7891 44.7949H81.9493V46.9433H80.7891V44.7949Z" fill="#C00808"/>
<path d="M80.7891 39.5918H81.9493V42.541H80.7891V39.5918Z" fill="#C00808"/>
<path d="M89.9805 39.5918H91.1407V42.541H89.9805V39.5918Z" fill="#C00808"/>
<path d="M89.9805 44.7949H91.1407V46.9433H89.9805V44.7949Z" fill="#C00808"/>
<path d="M89.9805 54.8418H91.1407V57.791H89.9805V54.8418Z" fill="#C00808"/>
<path d="M89.9805 60.0449H91.1407V62.1933H89.9805V60.0449Z" fill="#C00808"/>
<path d="M71.6016 60.0449H72.7618V62.1933H71.6016V60.0449Z" fill="#C00808"/>
<path d="M71.6016 54.8418H72.7618V57.791H71.6016V54.8418Z" fill="#C00808"/>
<path d="M80.7891 54.8418H81.9493V57.791H80.7891V54.8418Z" fill="#C00808"/>
<path d="M80.7891 60.0449H81.9493V62.1933H80.7891V60.0449Z" fill="#C00808"/>
<path d="M53.8711 71.1853V52.1543L50.5781 49.7246V71.1856L53.8711 71.1853Z" fill="#C00808"/>
<path d="M56.6211 71.1859V50.7519L49.4492 45.4902L42.2773 50.7519V71.1819H42.7578L42.7617 51.5729C42.7617 51.2136 42.9414 50.8932 43.2227 50.6745L48.7813 46.6042C48.8008 46.6042 48.8203 46.6042 48.8399 46.5847C49.0195 46.4831 49.2188 46.3854 49.4414 46.3854C49.6602 46.3854 49.8633 46.487 50.043 46.5847C50.0625 46.6042 50.082 46.6042 50.1016 46.6042L55.6407 50.6745C55.9415 50.8932 56.1016 51.2136 56.1016 51.5729V71.1819L56.6211 71.1859Z" fill="#C00808"/>
<path d="M48.3282 71.1856V49.7246L45.0391 52.1543V71.1853L48.3282 71.1856Z" fill="#C00808"/>
<path d="M0 73.4541H100V75.4658H0V73.4541Z" fill="#C00808"/>
<path d="M34.0785 25.3842C34.098 25.3647 34.098 25.3647 34.1175 25.3452L48.7465 13.9662C48.7856 13.9467 48.8247 13.9271 48.8481 13.9076C49.0278 13.806 49.227 13.7279 49.4497 13.7279C49.4887 13.7279 49.5512 13.7474 49.5903 13.7474C49.77 13.767 49.9497 13.8256 50.1098 13.9467L55.9692 18.2475L65.8481 25.517L65.9067 25.5755C65.9262 25.5951 65.9458 25.6146 65.9653 25.6146L67.4536 26.6732V23.142L49.4806 10.083L32.5586 23.114V26.5828L34.0274 25.4226C34.0391 25.4226 34.0589 25.4038 34.0785 25.3842Z" fill="#C00808"/>
<path d="M64.0512 71.1857V26.9867L49.4812 16.2637L35.9502 26.7837V71.1817H40.0205V50.1817C40.0205 49.8223 40.2002 49.4825 40.4814 49.2832L48.79 43.1816C49.1689 42.9004 49.7119 42.9004 50.1103 43.1816L58.4189 49.2832C58.7002 49.4825 58.8799 49.8223 58.8799 50.1817V71.1817L64.0512 71.1857ZM49.4612 42.6427C44.262 42.6427 40.0315 38.4044 40.0315 33.213C40.0315 28.0216 44.2698 23.7833 49.4612 23.7833C54.6604 23.7833 58.8909 28.0216 58.8909 33.213C58.8909 38.4044 54.6604 42.6427 49.4612 42.6427Z" fill="#C00808"/>
<path d="M49.461 26.0449C45.5118 26.0449 42.2891 29.2558 42.2891 33.2168C42.2891 37.166 45.5 40.4082 49.461 40.4082C53.4102 40.4082 56.6329 37.1777 56.6329 33.2168C56.6211 29.252 53.4102 26.0449 49.461 26.0449Z" fill="#C00808"/>
<path d="M33.6993 28.5527L32.1095 29.7715C31.9103 29.9317 31.6681 30.0098 31.4103 30.0098C31.2501 30.0098 31.09 29.9707 30.9298 29.8887C30.5314 29.709 30.2892 29.3106 30.2892 28.8887V26.1621H3.41017L1.42188 32.084H33.6989L33.6993 28.5527Z" fill="#C00808"/>
<path d="M33.6988 71.186V34.334H3.55078V71.186H33.6988ZM24.9683 46.956V38.4638C24.9683 37.8427 25.4683 37.3427 26.0894 37.3427H29.5191C30.1402 37.3427 30.6402 37.8427 30.6402 38.4638V46.9521C31.1988 47.0302 31.6402 47.4716 31.6402 48.0537C31.6402 48.6748 31.1402 49.1748 30.5191 49.1748H25.0972C24.4761 49.1748 23.9761 48.6748 23.9761 48.0537C23.9878 47.4756 24.4292 47.0342 24.9683 46.956ZM24.9683 62.214V53.7257C24.9683 53.1046 25.4683 52.6046 26.0894 52.6046H29.5191C30.1402 52.6046 30.6402 53.1046 30.6402 53.7257V62.214C31.1988 62.2921 31.6402 62.7335 31.6402 63.3156C31.6402 63.9367 31.1402 64.4367 30.5191 64.4367H25.0972C24.4761 64.4367 23.9761 63.9367 23.9761 63.3156C23.9878 62.7336 24.4292 62.2961 24.9683 62.214ZM15.8003 46.956V38.4638C15.8003 37.8427 16.3003 37.3427 16.9214 37.3427H20.3316C20.9722 37.3427 21.4722 37.8427 21.4722 38.4638V46.9521C22.0112 47.0302 22.4527 47.4716 22.4527 48.0537C22.4527 48.6748 21.9527 49.1748 21.3316 49.1748H15.9097C15.2886 49.1748 14.7886 48.6748 14.7886 48.0537C14.7886 47.4756 15.23 47.0342 15.8003 46.956ZM15.8003 62.214V53.7257C15.8003 53.1046 16.3003 52.6046 16.9214 52.6046H20.3316C20.9722 52.6046 21.4722 53.1046 21.4722 53.7257V62.214C22.0112 62.2921 22.4527 62.7335 22.4527 63.3156C22.4527 63.9367 21.9527 64.4367 21.3316 64.4367H15.9097C15.2886 64.4367 14.7886 63.9367 14.7886 63.3156C14.7886 62.7336 15.23 62.2961 15.8003 62.214ZM6.60108 46.956V38.4638C6.60108 37.8427 7.10108 37.3427 7.72218 37.3427H11.1519C11.773 37.3427 12.273 37.8427 12.273 38.4638V46.9521C12.8316 47.0302 13.2535 47.4716 13.2535 48.0537C13.2535 48.6748 12.7535 49.1748 12.1324 49.1748H6.73395C6.11286 49.1748 5.59335 48.6748 5.59335 48.0537C5.60116 47.4756 6.03859 47.0342 6.60108 46.956ZM6.60108 62.214V53.7257C6.60108 53.1046 7.10108 52.6046 7.72218 52.6046H11.1519C11.773 52.6046 12.273 53.1046 12.273 53.7257V62.214C12.8316 62.2921 13.2535 62.7335 13.2535 63.3156C13.2535 63.9367 12.7535 64.4367 12.1324 64.4367H6.73395C6.11286 64.4367 5.59335 63.9367 5.59335 63.3156C5.60116 62.7336 6.03859 62.2961 6.60108 62.214Z" fill="#C00808"/>
<path d="M8.85156 39.5918H10.0118V42.541H8.85156V39.5918Z" fill="#C00808"/>
<path d="M8.85156 44.7949H10.0118V46.9433H8.85156V44.7949Z" fill="#C00808"/>
<path d="M8.85156 54.8418H10.0118V57.791H8.85156V54.8418Z" fill="#C00808"/>
<path d="M8.85156 60.0449H10.0118V62.1933H8.85156V60.0449Z" fill="#C00808"/>
<path d="M18.0391 60.0449H19.1993V62.1933H18.0391V60.0449Z" fill="#C00808"/>
<path d="M18.0391 54.8418H19.1993V57.791H18.0391V54.8418Z" fill="#C00808"/>
<path d="M18.0391 44.7949H19.1993V46.9433H18.0391V44.7949Z" fill="#C00808"/>
<path d="M18.0391 39.5918H19.1993V42.541H18.0391V39.5918Z" fill="#C00808"/>
<path d="M27.2383 39.5918H28.3985V42.541H27.2383V39.5918Z" fill="#C00808"/>
<path d="M27.2383 44.7949H28.3985V46.9433H27.2383V44.7949Z" fill="#C00808"/>
<path d="M27.2383 54.8418H28.3985V57.791H27.2383V54.8418Z" fill="#C00808"/>
<path d="M27.2383 60.0449H28.3985V62.1933H27.2383V60.0449Z" fill="#C00808"/>
<path d="M50.1211 7.77554L50.582 8.11538V7.07628H56.9609C57.4219 7.07628 57.8398 6.79503 58.0195 6.35753C58.1797 5.93565 58.0586 5.43565 57.7187 5.13873L56.0468 3.58793L57.7187 2.03713C58.0586 1.71682 58.1797 1.23635 58.0195 0.798828C57.8398 0.357418 57.418 0.0800781 56.9609 0.0800781H49.4492C48.8281 0.0800781 48.3281 0.580079 48.3281 1.20118V8.15038L48.7695 7.81054C49.1602 7.49413 49.7187 7.47475 50.1211 7.77554Z" fill="#C00808"/>
</svg>
